{
copyright = "Copyright (c) 2022 by Thanos Poulakidas. All rights reserved.";
designer = "Thanos Poulakidas";
familyName = Geom;
customParameters = (
{
name = glyphOrder;
value = (
.notdef,
uni0000,
uni000D,
space,
quotedbl,
numbersign,
dollar,
percent,
ampersand,
quotesingle,
parenleft,
parenright,
asterisk,
plus,
comma,
hyphen,
period,
slash,
zero,
one,
two,
three,
four,
five,
six,
seven,
eight,
nine,
colon,
semicolon,
less,
equal,
greater,
question,
at,
A,
B,
C,
D,
E,
F,
G,
H,
I,
J,
K,
L,
M,
N,
O,
P,
Q,
R,
S,
T,
U,
V,
W,
X,
Y,
Z,
bracketleft,
backslash,
bracketright,
asciicircum,
underscore,
grave,
a,
b,
c,
d,
e,
f,
g,
h,
i,
j,
k,
l,
m,
n,
o,
p,
q,
r,
s,
t,
u,
v,
w,
x,
y,
z,
braceleft,
bar,
braceright,
asciitilde,
Euro,
quotesinglbase,
florin,
quotedblbase,
ellipsis,
dagger,
daggerdbl,
circumflex,
perthousand,
guilsinglleft,
quoteleft,
quoteright,
quotedblleft,
quotedblright,
bullet,
endash,
emdash,
tilde,
trademark,
guilsinglright,
exclamdown,
cent,
sterling,
currency,
yen,
brokenbar,
section,
dieresis,
copyright,
ordfeminine,
guillemotleft,
logicalnot,
registered,
degree,
plusminus,
acute,
paragraph,
cedilla,
ordmasculine,
guillemotright,
onequarter,
onehalf,
threequarters,
questiondown,
germandbls,
divide,
oslash,
fraction,
fi,
fl,
breve,
dotaccent,
ring,
hungarumlaut,
ogonek,
caron,
dotlessi,
greaterequal,
radical,
notequal,
product,
summation,
lessequal,
uni02C9,
lozenge,
minus,
uni2215,
approxequal,
integral,
uni2113,
partialdiff,
uni2206,
infinity,
uni2126,
uni2219,
estimated,
exclam,
Alpha,
Epsilon,
Eta,
Iota,
Kappa,
Mu,
Nu,
Omicron,
Chi,
Tau,
Rho,
Upsilon,
uni0394,
uni03A9,
Lambda,
Beta,
Zeta,
Pi,
Xi,
Sigma,
Psi,
omicron,
kappa,
nu,
tonos,
Alphatonos,
Epsilontonos,
Etatonos,
Iotatonos,
Omicrontonos,
Upsilontonos,
Gamma,
Theta,
Iotadieresis,
Upsilondieresis,
dieresistonos,
alpha,
rho,
iota,
eta,
gamma,
upsilon,
beta,
pi,
uni03BC,
tau,
Phi,
chi,
sigma,
theta,
lambda,
psi,
epsilon,
delta,
alphatonos,
etatonos,
iotatonos,
omicrontonos,
upsilontonos,

glyphs = (
{
glyphname = .notdef;
layers = (
{
hints = (
{
horizontal = 1;
place = "{0, 57}";
type = Stem;
},
{
horizontal = 1;
place = "{663, 57}";
type = Stem;
},
{
place = "{-7, 68}";
type = Stem;
},
{
place = "{453, 67}";
type = Stem;
}
);
layerId = "0D3EB0FA-AC0F-4259-9DA6-5CB309C7FB4D";
paths = (
{
closed = 1;
nodes = (
"-7 0 LINE",
"520 0 LINE",
"520 720 LINE",
"-7 720 LINE"
);
},
{
closed = 1;
nodes = (
"257 420 LINE",
"93 663 LINE",
"420 663 LINE"
);
},
{
closed = 1;
nodes = (
"61 597 LINE",
"218 360 LINE",
"61 126 LINE"
);
},
{
closed = 1;
nodes = (
"295 360 LINE",
"453 596 LINE",
"453 126 LINE"
);
},
{
closed = 1;
nodes = (
"93 57 LINE",
"257 302 LINE",
"420 57 LINE"
);
}
);
width = 515;
}
);
},
{
glyphname = quotedbl;
layers = (
{
hints = (
{
place = "{42, 389}";
type = Stem;
},
{
horizontal = 1;
place = "{392, 312}";
type = Stem;
},
{
horizontal = 1;
place = "{704, -20}";
target = down;
type = TopGhost;
}
);
layerId = "0D3EB0FA-AC0F-4259-9DA6-5CB309C7FB4D";
paths = (
{
closed = 1;
nodes = (
"119 392 LINE",
"207 676 LINE",
"213 704 LINE",
"66 704 LINE",
"42 392 LINE"
);
},
{
closed = 1;
nodes = (
"259 392 LINE",
"337 392 LINE",
"425 676 LINE",
"431 704 LINE",
"284 704 LINE"
);
}
);
width = 472;
}
);
unicode = 0022;
},
{
glyphname = numbersign;
layers = (
{
hints = (
{
horizontal = 1;
place = "{0, 21}";
target = up;
type = BottomGhost;
},
{
horizontal = 1;
place = "{165, 116}";
type = Stem;
},
{
horizontal = 1;
place = "{429, 115}";
type = Stem;
},
{
horizontal = 1;
place = "{703, -20}";
target = down;
type = TopGhost;
},
{
place = "{39, 605}";
type = Stem;
}
);
layerId = "0D3EB0FA-AC0F-4259-9DA6-5CB309C7FB4D";
paths = (
{
closed = 1;
nodes = (
"104 0 LINE",
"213 0 LINE",
"239 165 LINE",
"384 165 LINE",
"358 0 LINE",
"467 0 LINE",
"493 165 LINE",
"611 165 LINE",
"611 281 LINE",
"512 281 LINE",
"536 427 LINE",
"644 427 LINE",
"644 544 LINE",
"556 544 LINE",
"580 703 LINE",
"471 703 LINE",
"447 544 LINE",
"302 544 LINE",
"327 703 LINE",
"218 703 LINE",
"193 544 LINE",
"72 544 LINE",
"72 427 LINE",
"174 427 LINE",
"150 281 LINE",
"39 281 LINE",
"39 165 LINE",
"131 165 LINE"
);
},
{
closed = 1;
nodes = (
"429 429 LINE",
"405 279 LINE",
"256 279 LINE",
"281 429 LINE"
);
}
);
width = 682;
}
);
unicode = 0023;
},
{
glyphname = dollar;
layers = (
{
hints = (
{
place = "{87, 129}";
type = Stem;
},
{
place = "{302, 85}";
type = Stem;
},
{
place = "{305, 80}";
type = Stem;
},
{
place = "{477, 128}";
type = Stem;
},
{
horizontal = 1;
place = "{-1, 106}";
type = Stem;
},
{
horizontal = 1;
place = "{-2, 21}";
target = up;
type = BottomGhost;
},
{
horizontal = 1;
place = "{-1, 21}";
target = up;
type = BottomGhost;
},
{
horizontal = 1;
place = "{598, 170}";
type = Stem;
},
{
horizontal = 1;
place = "{705, -20}";
target = down;
type = TopGhost;
},
{
horizontal = 1;
place = "{706, -20}";
target = down;
type = TopGhost;
}
);
layerId = "0D3EB0FA-AC0F-4259-9DA6-5CB309C7FB4D";
paths = (
{
closed = 1;
nodes = (
"302 -97 LINE",
"387 -97 LINE",
"387 -2 LINE",
"515 11 OFFCURVE",
"605 89 OFFCURVE",
"605 202 CURVE SMOOTH",
"605 309 OFFCURVE",
"533 366 OFFCURVE",
"385 410 CURVE",
"385 597 LINE",
"430 590 OFFCURVE",
"471 568 OFFCURVE",
"499 532 CURVE",
"573 612 LINE",
"534 657 OFFCURVE",
"473 696 OFFCURVE",
"388 705 CURVE",
"388 768 LINE",
"303 768 LINE",
"303 706 LINE",
"172 695 OFFCURVE",
"87 617 OFFCURVE",
"87 508 CURVE SMOOTH",
"87 395 OFFCURVE",
"165 337 OFFCURVE",
"305 297 CURVE",
"305 105 LINE",
"240 110 OFFCURVE",
"181 146 OFFCURVE",
"140 193 CURVE",
"61 107 LINE",
"124 42 OFFCURVE",
"210 -1 OFFCURVE",
"302 -1 CURVE"
);
},
{
closed = 1;
nodes = (
"216 561 OFFCURVE",
"245 591 OFFCURVE",
"306 598 CURVE",
"306 430 LINE",
"245 453 OFFCURVE",
"216 477 OFFCURVE",
"216 520 CURVE SMOOTH"
);
},
{
closed = 1;
nodes = (
"477 148 OFFCURVE",
"449 115 OFFCURVE",
"385 106 CURVE",
"385 279 LINE",
"460 255 OFFCURVE",
"477 221 OFFCURVE",
"477 189 CURVE SMOOTH"
);
}
);
width = 667;
}
);
unicode = 0024;
},
{
glyphname = percent;
layers = (
{
hints = (
{
place = "{29, 95}";
type = Stem;
},
{
place = "{281, 94}";
type = Stem;
},
{
place = "{473, 95}";
type = Stem;
},
{
place = "{724, 95}";
type = Stem;
},
{
horizontal = 1;
place = "{-11, 86}";
type = Stem;
},
{
horizontal = 1;
place = "{-2, 21}";
target = up;
type = BottomGhost;
},
{
horizontal = 1;
place = "{273, 85}";
type = Stem;
},
{
horizontal = 1;
place = "{347, 85}";
type = Stem;
},
{
horizontal = 1;
place = "{632, 85}";
type = Stem;
},
{
horizontal = 1;
place = "{712, -20}";
target = down;
type = TopGhost;
}
);
layerId = "0D3EB0FA-AC0F-4259-9DA6-5CB309C7FB4D";
paths = (
{
closed = 1;
nodes = (
"375 634 OFFCURVE",
"307 717 OFFCURVE",
"203 717 CURVE SMOOTH",
"100 717 OFFCURVE",
"29 634 OFFCURVE",
"29 533 CURVE SMOOTH",
"29 430 OFFCURVE",
"99 347 OFFCURVE",
"202 347 CURVE SMOOTH",
"305 347 OFFCURVE",
"375 431 OFFCURVE",
"375 534 CURVE SMOOTH"
);
},
{
closed = 1;
nodes = (
"728 705 LINE",
"628 712 LINE",
"117 -2 LINE",
"217 -10 LINE"
);
},
{
closed = 1;
nodes = (
"281 475 OFFCURVE",
"251 432 OFFCURVE",
"203 432 CURVE SMOOTH",
"156 432 OFFCURVE",
"124 474 OFFCURVE",
"124 533 CURVE SMOOTH",
"124 590 OFFCURVE",
"154 632 OFFCURVE",
"202 632 CURVE SMOOTH",
"247 632 OFFCURVE",
"281 591 OFFCURVE",
"281 531 CURVE SMOOTH"
);
},
{
closed = 1;
nodes = (
"819 276 OFFCURVE",
"750 358 OFFCURVE",
"646 358 CURVE SMOOTH",
"544 358 OFFCURVE",
"473 275 OFFCURVE",
"473 174 CURVE SMOOTH",
"473 74 OFFCURVE",
"543 -11 OFFCURVE",
"645 -11 CURVE SMOOTH",
"749 -11 OFFCURVE",
"819 75 OFFCURVE",
"819 175 CURVE SMOOTH"
);
},
{
closed = 1;
nodes = (
"724 118 OFFCURVE",
"694 75 OFFCURVE",
"646 75 CURVE SMOOTH",
"602 75 OFFCURVE",
"568 115 OFFCURVE",
"568 174 CURVE SMOOTH",
"568 233 OFFCURVE",
"597 273 OFFCURVE",
"645 273 CURVE SMOOTH",
"692 273 OFFCURVE",
"724 233 OFFCURVE",
"724 174 CURVE SMOOTH"
);
}
);
width = 850;
}
);
unicode = 0025;
},
{
glyphname = ampersand;
layers = (
{
hints = (
{
place = "{32, 141}";
type = Stem;
},
{
place = "{131, 122}";
type = Stem;
},
{
place = "{400, 117}";
type = Stem;
},
{
horizontal = 1;
place = "{-12, 106}";
type = Stem;
},
{
horizontal = 1;
place = "{-5, 21}";
target = up;
type = BottomGhost;
},
{
horizontal = 1;
place = "{619, 100}";
type = Stem;
}
);
layerId = "0D3EB0FA-AC0F-4259-9DA6-5CB309C7FB4D";
paths = (
{
closed = 1;
nodes = (
"560 378 LINE",
"537 330 OFFCURVE",
"514 287 OFFCURVE",
"486 246 CURVE",
"370 372 LINE",
"458 411 OFFCURVE",
"517 465 OFFCURVE",
"517 553 CURVE SMOOTH",
"517 646 OFFCURVE",
"442 719 OFFCURVE",
"328 719 CURVE SMOOTH",
"210 719 OFFCURVE",
"131 644 OFFCURVE",
"131 545 CURVE SMOOTH",
"131 494 OFFCURVE",
"152 446 OFFCURVE",
"188 397 CURVE",
"87 356 OFFCURVE",
"32 288 OFFCURVE",
"32 192 CURVE SMOOTH",
"32 66 OFFCURVE",
"135 -12 OFFCURVE",
"268 -12 CURVE SMOOTH",
"353 -12 OFFCURVE",
"420 20 OFFCURVE",
"480 75 CURVE",
"557 -5 LINE",
"690 23 LINE",
"561 166 LINE",
"597 218 OFFCURVE",
"633 284 OFFCURVE",
"664 344 CURVE"
);
},
{
closed = 1;
nodes = (
"368 619 OFFCURVE",
"400 591 OFFCURVE",
"400 547 CURVE SMOOTH",
"400 502 OFFCURVE",
"362 465 OFFCURVE",
"303 440 CURVE",
"271 479 OFFCURVE",
"253 510 OFFCURVE",
"253 542 CURVE SMOOTH",
"253 589 OFFCURVE",
"284 619 OFFCURVE",
"327 619 CURVE SMOOTH"
);
},
{
closed = 1;
nodes = (
"407 156 LINE",
"372 120 OFFCURVE",
"331 94 OFFCURVE",
"284 94 CURVE SMOOTH",
"217 94 OFFCURVE",
"173 139 OFFCURVE",
"173 198 CURVE SMOOTH",
"173 250 OFFCURVE",
"203 287 OFFCURVE",
"260 315 CURVE"
);
}
);
width = 696;
}
);
unicode = 0026;
},
{
glyphname = quotesingle;
layers = (
{
hints = (
{
horizontal = 1;
place = "{704, -20}";
target = down;
type = TopGhost;
},
{
place = "{42, 173}";
type = Stem;
}
);
layerId = "0D3EB0FA-AC0F-4259-9DA6-5CB309C7FB4D";
paths = (
{
closed = 1;
nodes = (
"42 392 LINE",
"121 392 LINE",
"209 676 LINE",
"215 704 LINE",
"65 704 LINE"
);
}
);
width = 256;
}
);
unicode = 0027;
},
{
glyphname = parenleft;
layers = (
{
hints = (
{
horizontal = 1;
place = "{-147, 869}";
type = Stem;
},
{
place = "{64, 134}";
type = Stem;
}
);
layerId = "0D3EB0FA-AC0F-4259-9DA6-5CB309C7FB4D";
paths = (
{
closed = 1;
nodes = (
"198 430 OFFCURVE",
"256 537 OFFCURVE",
"384 642 CURVE",
"314 722 LINE",
"159 610 OFFCURVE",
"64 479 OFFCURVE",
"64 286 CURVE SMOOTH",
"64 91 OFFCURVE",
"157 -45 OFFCURVE",
"313 -147 CURVE",
"383 -69 LINE",
"256 38 OFFCURVE",
"198 142 OFFCURVE",
"198 286 CURVE SMOOTH"
);
}
);
width = 416;
}
);
unicode = 0028;
},
{
glyphname = parenright;
layers = (
{
hints = (
{
horizontal = 1;
place = "{-147, 869}";
type = Stem;
},
{
place = "{219, 134}";
type = Stem;
}
);
layerId = "0D3EB0FA-AC0F-4259-9DA6-5CB309C7FB4D";
paths = (
{
closed = 1;
nodes = (
"219 143 OFFCURVE",
"162 38 OFFCURVE",
"33 -69 CURVE",
"104 -147 LINE",
"262 -42 OFFCURVE",
"353 94 OFFCURVE",
"353 286 CURVE SMOOTH",
"353 475 OFFCURVE",
"264 610 OFFCURVE",
"102 722 CURVE",
"32 642 LINE",
"164 537 OFFCURVE",
"219 429 OFFCURVE",
"219 286 CURVE SMOOTH"
);
}
);
width = 418;
}
);
unicode = 0029;
},
{
glyphname = asterisk;
layers = (
{
hints = (
{
horizontal = 1;
place = "{718, -20}";
target = down;
type = TopGhost;
},
{
place = "{166, 72}";
type = Stem;
}
);
layerId = "0D3EB0FA-AC0F-4259-9DA6-5CB309C7FB4D";
paths = (
{
closed = 1;
nodes = (
"144 581 LINE",
"31 542 LINE",
"53 475 LINE",
"166 514 LINE",
"166 390 LINE",
"238 390 LINE",
"238 512 LINE",
"349 475 LINE",
"371 542 LINE",
"261 580 LINE",
"329 678 LINE",
"271 718 LINE",
"202 623 LINE",
"132 718 LINE",
"74 677 LINE"
);
}
);
width = 402;
}
);
unicode = 002A;
},
{
glyphname = plus;
layers = (
{
hints = (
{
horizontal = 1;
place = "{288, 121}";
type = Stem;
},
{
place = "{230, 125}";
type = Stem;
}
);
layerId = "0D3EB0FA-AC0F-4259-9DA6-5CB309C7FB4D";
paths = (
{
closed = 1;
nodes = (
"355 599 LINE",
"230 599 LINE",
"230 409 LINE",
"42 409 LINE",
"42 288 LINE",
"230 288 LINE",
"230 98 LINE",
"355 98 LINE",
"355 288 LINE",
"544 288 LINE",
"544 409 LINE",
"355 409 LINE"
);
}
);
width = 585;
}
);
unicode = 002B;
},
{
glyphname = comma;
layers = (
{
hints = (
{
horizontal = 1;
place = "{-152, 311}";
type = Stem;
},
{
place = "{6, 188}";
type = Stem;
}
);
layerId = "0D3EB0FA-AC0F-4259-9DA6-5CB309C7FB4D";
paths = (
{
closed = 1;
nodes = (
"194 159 LINE",
"59 159 LINE",
"6 -152 LINE",
"106 -152 LINE"
);
}
);
width = 227;
}
);
unicode = 002C;
},
{
glyphname = hyphen;
layers = (
{
hints = (
{
horizontal = 1;
place = "{232, 122}";
type = Stem;
},
{
place = "{32, 299}";
type = Stem;
}
);
layerId = "0D3EB0FA-AC0F-4259-9DA6-5CB309C7FB4D";
paths = (
{
closed = 1;
nodes = (
"331 354 LINE",
"32 354 LINE",
"32 232 LINE",
"331 232 LINE"
);
}
);
width = 364;
}
);
unicode = 002D;
},
{
glyphname = period;
layers = (
{
hints = (
{
horizontal = 1;
place = "{-12, 170}";
type = Stem;
},
{
place = "{53, 172}";
type = Stem;
}
);
layerId = "0D3EB0FA-AC0F-4259-9DA6-5CB309C7FB4D";
paths = (
{
closed = 1;
nodes = (
"53 22 OFFCURVE",
"91 -12 OFFCURVE",
"139 -12 CURVE SMOOTH",
"187 -12 OFFCURVE",
"225 22 OFFCURVE",
"225 74 CURVE SMOOTH",
"225 126 OFFCURVE",
"187 158 OFFCURVE",
"139 158 CURVE SMOOTH",
"91 158 OFFCURVE",
"53 126 OFFCURVE",
"53 74 CURVE SMOOTH"
);
}
);
width = 258;
}
);
unicode = 002E;
},
{
glyphname = slash;
layers = (
{
hints = (
{
horizontal = 1;
place = "{-109, 900}";
type = Stem;
},
{
place = "{12, 548}";
type = Stem;
}
);
layerId = "0D3EB0FA-AC0F-4259-9DA6-5CB309C7FB4D";
paths = (
{
closed = 1;
nodes = (
"560 783 LINE",
"448 791 LINE",
"12 -103 LINE",
"123 -109 LINE"
);
}
);
width = 559;
}
);
unicode = 002F;
},
{
glyphname = zero;
layers = (
{
hints = (
{
horizontal = 1;
place = "{-14, 124}";
type = Stem;
},
{
horizontal = 1;
place = "{593, 124}";
type = Stem;
},
{
place = "{35, 141}";
type = Stem;
},
{
place = "{484, 141}";
type = Stem;
}
);
layerId = "0D3EB0FA-AC0F-4259-9DA6-5CB309C7FB4D";
paths = (
{
closed = 1;
nodes = (
"144 717 OFFCURVE",
"35 558 OFFCURVE",
"35 352 CURVE SMOOTH",
"35 141 OFFCURVE",
"143 -14 OFFCURVE",
"329 -14 CURVE SMOOTH",
"518 -14 OFFCURVE",
"625 148 OFFCURVE",
"625 352 CURVE SMOOTH",
"625 561 OFFCURVE",
"518 717 OFFCURVE",
"331 717 CURVE SMOOTH"
);
},
{
closed = 1;
nodes = (
"426 593 OFFCURVE",
"484 493 OFFCURVE",
"484 351 CURVE SMOOTH",
"484 212 OFFCURVE",
"427 110 OFFCURVE",
"331 110 CURVE SMOOTH",
"234 110 OFFCURVE",
"176 209 OFFCURVE",
"176 355 CURVE SMOOTH",
"176 493 OFFCURVE",
"234 593 OFFCURVE",
"329 593 CURVE SMOOTH"
);
}
);
width = 660;
}
);
unicode = 0030;
},
{
glyphname = one;
layers = (
{
hints = (
{
horizontal = 1;
place = "{0, 21}";
target = up;
type = BottomGhost;
},
{
horizontal = 1;
place = "{577, 130}";
type = Stem;
},
{
place = "{227, 137}";
type = Stem;
}
);
layerId = "0D3EB0FA-AC0F-4259-9DA6-5CB309C7FB4D";
paths = (
{
closed = 1;
nodes = (
"364 707 LINE",
"95 707 LINE",
"95 577 LINE",
"227 577 LINE",
"227 0 LINE",
"364 0 LINE"
);
}
);
width = 550;
}
);
unicode = 0031;
},
{
glyphname = two;
layers = (
{
hints = (
{
horizontal = 1;
place = "{0, 117}";
type = Stem;
},
{
horizontal = 1;
place = "{593, 122}";
type = Stem;
},
{
place = "{408, 142}";
type = Stem;
}
);
layerId = "0D3EB0FA-AC0F-4259-9DA6-5CB309C7FB4D";
paths = (
{
closed = 1;
nodes = (
"170 715 OFFCURVE",
"66 640 OFFCURVE",
"53 483 CURVE",
"188 483 LINE",
"196 553 OFFCURVE",
"241 593 OFFCURVE",
"307 593 CURVE SMOOTH",
"376 593 OFFCURVE",
"408 554 OFFCURVE",
"408 504 CURVE SMOOTH",
"408 459 OFFCURVE",
"380 402 OFFCURVE",
"312 319 CURVE",
"45 0 LINE",
"561 0 LINE",
"561 117 LINE",
"309 117 LINE",
"420 254 LINE",
"508 366 OFFCURVE",
"550 431 OFFCURVE",
"550 509 CURVE SMOOTH",
"550 629 OFFCURVE",
"452 715 OFFCURVE",
"309 715 CURVE SMOOTH"
);
}
);
width = 615;
}
);
unicode = 0032;
},
{
glyphname = three;
layers = (
{
hints = (
{
horizontal = 1;
place = "{-14, 122}";
type = Stem;
},
{
horizontal = 1;
place = "{337, 93}";
type = Stem;
},
{
horizontal = 1;
place = "{593, 116}";
type = Stem;
},
{
place = "{429, 137}";
type = Stem;
}
);
layerId = "0D3EB0FA-AC0F-4259-9DA6-5CB309C7FB4D";
paths = (
{
closed = 1;
nodes = (
"545 603 LINE",
"545 709 LINE",
"86 709 LINE",
"86 593 LINE",
"373 593 LINE",
"186 407 LINE",
"206 334 LINE",
"225 337 OFFCURVE",
"264 337 OFFCURVE",
"283 337 CURVE SMOOTH",
"369 337 OFFCURVE",
"429 303 OFFCURVE",
"429 223 CURVE SMOOTH",
"429 153 OFFCURVE",
"377 108 OFFCURVE",
"304 108 CURVE SMOOTH",
"233 108 OFFCURVE",
"182 145 OFFCURVE",
"143 213 CURVE",
"41 133 LINE",
"93 45 OFFCURVE",
"185 -14 OFFCURVE",
"309 -14 CURVE SMOOTH",
"461 -14 OFFCURVE",
"566 87 OFFCURVE",
"566 223 CURVE SMOOTH",
"566 350 OFFCURVE",
"478 419 OFFCURVE",
"364 430 CURVE"
);
}
);
width = 629;
}
);
unicode = 0033;
},
{
glyphname = four;
layers = (
{
hints = (
{
place = "{403, 135}";
type = Stem;
},
{
horizontal = 1;
place = "{0, 21}";
target = up;
type = BottomGhost;
},
{
horizontal = 1;
place = "{145, 109}";
type = Stem;
},
{
horizontal = 1;
place = "{558, 151}";
type = Stem;
},
{
horizontal = 1;
place = "{709, -20}";
target = down;
type = TopGhost;
}
);
layerId = "0D3EB0FA-AC0F-4259-9DA6-5CB309C7FB4D";
paths = (
{
closed = 1;
nodes = (
"376 709 LINE",
"22 252 LINE",
"46 145 LINE",
"403 145 LINE",
"403 0 LINE",
"538 0 LINE",
"538 145 LINE",
"631 145 LINE",
"631 254 LINE",
"538 254 LINE",
"538 709 LINE"
);
},
{
closed = 1;
nodes = (
"403 254 LINE",
"173 254 LINE",
"403 558 LINE"
);
}
);
width = 654;
}
);
unicode = 0034;
},
{
glyphname = five;
layers = (
{
hints = (
{
horizontal = 1;
place = "{-14, 121}";
type = Stem;
},
{
horizontal = 1;
place = "{343, 109}";
type = Stem;
},
{
horizontal = 1;
place = "{585, 118}";
type = Stem;
},
{
place = "{431, 137}";
type = Stem;
}
);
layerId = "0D3EB0FA-AC0F-4259-9DA6-5CB309C7FB4D";
paths = (
{
closed = 1;
nodes = (
"185 316 LINE",
"218 332 OFFCURVE",
"251 343 OFFCURVE",
"290 343 CURVE SMOOTH",
"372 343 OFFCURVE",
"431 295 OFFCURVE",
"431 227 CURVE SMOOTH",
"431 155 OFFCURVE",
"380 107 OFFCURVE",
"296 107 CURVE SMOOTH",
"232 107 OFFCURVE",
"177 135 OFFCURVE",
"124 183 CURVE",
"44 90 LINE",
"113 26 OFFCURVE",
"186 -14 OFFCURVE",
"297 -14 CURVE SMOOTH",
"459 -14 OFFCURVE",
"568 82 OFFCURVE",
"568 230 CURVE SMOOTH",
"568 374 OFFCURVE",
"457 452 OFFCURVE",
"327 452 CURVE SMOOTH",
"286 452 OFFCURVE",
"253 442 OFFCURVE",
"218 429 CURVE",
"232 585 LINE",
"537 585 LINE",
"541 703 LINE",
"121 703 LINE",
"95 363 LINE"
);
}
);
width = 627;
}
);
unicode = 0035;
},
{
glyphname = six;
layers = (
{
hints = (
{
horizontal = 1;
place = "{-14, 112}";
type = Stem;
},
{
horizontal = 1;
place = "{340, 103}";
type = Stem;
},
{
horizontal = 1;
place = "{706, -20}";
target = down;
type = TopGhost;
},
{
place = "{33, 141}";
type = Stem;
},
{
place = "{431, 137}";
type = Stem;
}
);
layerId = "0D3EB0FA-AC0F-4259-9DA6-5CB309C7FB4D";
paths = (
{
closed = 1;
nodes = (
"296 706 LINE",
"147 481 LINE SMOOTH",
"65 359 OFFCURVE",
"33 295 OFFCURVE",
"33 223 CURVE SMOOTH",
"33 80 OFFCURVE",
"146 -14 OFFCURVE",
"306 -14 CURVE SMOOTH",
"455 -14 OFFCURVE",
"568 82 OFFCURVE",
"568 228 CURVE SMOOTH",
"568 364 OFFCURVE",
"480 443 OFFCURVE",
"356 443 CURVE SMOOTH",
"302 443 OFFCURVE",
"275 434 OFFCURVE",
"237 407 CURVE",
"445 706 LINE"
);
},
{
closed = 1;
nodes = (
"174 286 OFFCURVE",
"224 340 OFFCURVE",
"303 340 CURVE SMOOTH",
"379 340 OFFCURVE",
"431 289 OFFCURVE",
"431 221 CURVE SMOOTH",
"431 150 OFFCURVE",
"380 98 OFFCURVE",
"304 98 CURVE SMOOTH",
"229 98 OFFCURVE",
"174 152 OFFCURVE",
"174 220 CURVE SMOOTH"
);
}
);
width = 598;
}
);
unicode = 0036;
},
{
glyphname = seven;
layers = (
{
hints = (
{
horizontal = 1;
place = "{0, 21}";
target = up;
type = BottomGhost;
},
{
horizontal = 1;
place = "{584, 119}";
type = Stem;
},
{
place = "{54, 509}";
type = Stem;
}
);
layerId = "0D3EB0FA-AC0F-4259-9DA6-5CB309C7FB4D";
paths = (
{
closed = 1;
nodes = (
"563 592 LINE",
"563 703 LINE",
"54 703 LINE",
"54 584 LINE",
"411 584 LINE",
"85 0 LINE",
"239 0 LINE"
);
}
);
width = 612;
}
);
unicode = 0037;
},
{
glyphname = eight;
layers = (
{
hints = (
{
place = "{35, 137}";
type = Stem;
},
{
place = "{61, 130}";
type = Stem;
},
{
place = "{415, 131}";
type = Stem;
},
{
place = "{434, 137}";
type = Stem;
},
{
horizontal = 1;
place = "{-12, 109}";
type = Stem;
},
{
horizontal = 1;
place = "{311, 99}";
type = Stem;
},
{
horizontal = 1;
place = "{607, 108}";
type = Stem;
}
);
layerId = "0D3EB0FA-AC0F-4259-9DA6-5CB309C7FB4D";
paths = (
{
closed = 1;
nodes = (
"546 634 OFFCURVE",
"440 715 OFFCURVE",
"303 715 CURVE SMOOTH",
"163 715 OFFCURVE",
"61 635 OFFCURVE",
"61 524 CURVE SMOOTH",
"61 449 OFFCURVE",
"101 398 OFFCURVE",
"164 367 CURVE",
"83 332 OFFCURVE",
"35 274 OFFCURVE",
"35 193 CURVE SMOOTH",
"35 74 OFFCURVE",
"149 -12 OFFCURVE",
"303 -12 CURVE SMOOTH",
"456 -12 OFFCURVE",
"571 71 OFFCURVE",
"571 194 CURVE SMOOTH",
"571 274 OFFCURVE",
"521 333 OFFCURVE",
"442 366 CURVE",
"503 399 OFFCURVE",
"546 447 OFFCURVE",
"546 522 CURVE SMOOTH"
);
},
{
closed = 1;
nodes = (
"191 564 OFFCURVE",
"237 607 OFFCURVE",
"303 607 CURVE SMOOTH",
"369 607 OFFCURVE",
"415 564 OFFCURVE",
"415 510 CURVE SMOOTH",
"415 453 OFFCURVE",
"367 410 OFFCURVE",
"303 410 CURVE SMOOTH",
"239 410 OFFCURVE",
"191 454 OFFCURVE",
"191 510 CURVE SMOOTH"
);
},
{
closed = 1;
nodes = (
"172 266 OFFCURVE",
"226 311 OFFCURVE",
"303 311 CURVE SMOOTH",
"380 311 OFFCURVE",
"434 267 OFFCURVE",
"434 205 CURVE SMOOTH",
"434 146 OFFCURVE",
"384 97 OFFCURVE",
"303 97 CURVE SMOOTH",
"221 97 OFFCURVE",
"172 146 OFFCURVE",
"172 205 CURVE SMOOTH"
);
}
);
width = 605;
}
);
unicode = 0038;
},
{
glyphname = nine;
layers = (
{
hints = (
{
horizontal = 1;
place = "{-1, 21}";
target = up;
type = BottomGhost;
},
{
horizontal = 1;
place = "{260, 106}";
type = Stem;
},
{
horizontal = 1;
place = "{608, 112}";
type = Stem;
},
{
place = "{35, 138}";
type = Stem;
},
{
place = "{429, 141}";
type = Stem;
}
);
layerId = "0D3EB0FA-AC0F-4259-9DA6-5CB309C7FB4D";
paths = (
{
closed = 1;
nodes = (
"307 -1 LINE",
"481 263 LINE SMOOTH",
"537 348 OFFCURVE",
"570 413 OFFCURVE",
"570 482 CURVE SMOOTH",
"570 625 OFFCURVE",
"459 720 OFFCURVE",
"295 720 CURVE SMOOTH",
"151 720 OFFCURVE",
"35 623 OFFCURVE",
"35 479 CURVE SMOOTH",
"35 346 OFFCURVE",
"126 260 OFFCURVE",
"249 260 CURVE SMOOTH",
"300 260 OFFCURVE",
"329 272 OFFCURVE",
"366 299 CURVE",
"159 -1 LINE"
);
},
{
closed = 1;
nodes = (
"429 420 OFFCURVE",
"377 366 OFFCURVE",
"301 366 CURVE SMOOTH",
"224 366 OFFCURVE",
"173 419 OFFCURVE",
"173 487 CURVE SMOOTH",
"173 555 OFFCURVE",
"223 608 OFFCURVE",
"299 608 CURVE SMOOTH",
"374 608 OFFCURVE",
"429 554 OFFCURVE",
"429 487 CURVE SMOOTH"
);
}
);
width = 605;
}
);
unicode = 0039;
},
{
glyphname = colon;
layers = (
{
hints = (
{
horizontal = 1;
place = "{-12, 171}";
type = Stem;
},
{
horizontal = 1;
place = "{352, 170}";
type = Stem;
},
{
place = "{53, 173}";
type = Stem;
}
);
layerId = "0D3EB0FA-AC0F-4259-9DA6-5CB309C7FB4D";
paths = (
{
closed = 1;
nodes = (
"53 384 OFFCURVE",
"89 352 OFFCURVE",
"140 352 CURVE SMOOTH",
"187 352 OFFCURVE",
"226 384 OFFCURVE",
"226 437 CURVE SMOOTH",
"226 490 OFFCURVE",
"187 522 OFFCURVE",
"140 522 CURVE SMOOTH",
"89 522 OFFCURVE",
"53 490 OFFCURVE",
"53 437 CURVE SMOOTH"
);
},
{
closed = 1;
nodes = (
"53 22 OFFCURVE",
"89 -12 OFFCURVE",
"140 -12 CURVE SMOOTH",
"187 -12 OFFCURVE",
"226 22 OFFCURVE",
"226 74 CURVE SMOOTH",
"226 127 OFFCURVE",
"187 159 OFFCURVE",
"140 159 CURVE SMOOTH",
"89 159 OFFCURVE",
"53 127 OFFCURVE",
"53 74 CURVE SMOOTH"
);
}
);
width = 260;
}
);
unicode = 003A;
},
{
glyphname = semicolon;
layers = (
{
hints = (
{
horizontal = 1;
place = "{352, 170}";
type = Stem;
},
{
place = "{33, 173}";
type = Stem;
}
);
layerId = "0D3EB0FA-AC0F-4259-9DA6-5CB309C7FB4D";
paths = (
{
closed = 1;
nodes = (
"33 384 OFFCURVE",
"71 352 OFFCURVE",
"120 352 CURVE SMOOTH",
"167 352 OFFCURVE",
"206 384 OFFCURVE",
"206 437 CURVE SMOOTH",
"206 490 OFFCURVE",
"167 522 OFFCURVE",
"120 522 CURVE SMOOTH",
"71 522 OFFCURVE",
"33 490 OFFCURVE",
"33 437 CURVE SMOOTH"
);
},
{
closed = 1;
nodes = (
"196 159 LINE",
"60 159 LINE",
"7 -152 LINE",
"107 -152 LINE"
);
}
);
width = 235;
}
);
unicode = 003B;
},
{
glyphname = less;
layers = (
{
hints = (
{
horizontal = 1;
place = "{72, 550}";
type = Stem;
},
{
place = "{63, 488}";
type = Stem;
}
);
layerId = "0D3EB0FA-AC0F-4259-9DA6-5CB309C7FB4D";
paths = (
{
closed = 1;
nodes = (
"551 622 LINE",
"63 409 LINE",
"63 285 LINE",
"551 72 LINE",
"551 201 LINE",
"194 348 LINE",
"551 494 LINE"
);
}
);
width = 613;
}
);
unicode = 003C;
},
{
glyphname = equal;
layers = (
{
hints = (
{
horizontal = 1;
place = "{165, 121}";
type = Stem;
},
{
horizontal = 1;
place = "{421, 121}";
type = Stem;
},
{
place = "{42, 483}";
type = Stem;
}
);
layerId = "0D3EB0FA-AC0F-4259-9DA6-5CB309C7FB4D";
paths = (
{
closed = 1;
nodes = (
"42 542 LINE",
"42 421 LINE",
"525 421 LINE",
"525 542 LINE"
);
},
{
closed = 1;
nodes = (
"42 286 LINE",
"42 165 LINE",
"525 165 LINE",
"525 286 LINE"
);
}
);
width = 567;
}
);
unicode = 003D;
},
{
glyphname = greater;
layers = (
{
hints = (
{
horizontal = 1;
place = "{73, 549}";
type = Stem;
},
{
place = "{63, 487}";
type = Stem;
}
);
layerId = "0D3EB0FA-AC0F-4259-9DA6-5CB309C7FB4D";
paths = (
{
closed = 1;
nodes = (
"63 493 LINE",
"420 347 LINE",
"63 201 LINE",
"63 73 LINE",
"550 285 LINE",
"550 410 LINE",
"63 622 LINE"
);
}
);
width = 613;
}
);
unicode = 003E;
},
{
glyphname = question;
layers = (
{
hints = (
{
place = "{141, 168}";
type = Stem;
},
{
place = "{155, 128}";
type = Stem;
},
{
place = "{307, 136}";
type = Stem;
},
{
horizontal = 1;
place = "{-11, 156}";
type = Stem;
},
{
horizontal = 1;
place = "{594, 119}";
type = Stem;
}
);
layerId = "0D3EB0FA-AC0F-4259-9DA6-5CB309C7FB4D";
paths = (
{
closed = 1;
nodes = (
"268 594 OFFCURVE",
"307 563 OFFCURVE",
"307 519 CURVE SMOOTH",
"307 480 OFFCURVE",
"277 451 OFFCURVE",
"245 423 CURVE SMOOTH",
"202 385 OFFCURVE",
"155 340 OFFCURVE",
"155 257 CURVE SMOOTH",
"155 204 LINE",
"283 204 LINE",
"283 236 LINE SMOOTH",
"283 290 OFFCURVE",
"299 313 OFFCURVE",
"342 350 CURVE",
"401 398 OFFCURVE",
"443 445 OFFCURVE",
"443 529 CURVE SMOOTH",
"443 644 OFFCURVE",
"352 713 OFFCURVE",
"237 713 CURVE SMOOTH",
"161 713 OFFCURVE",
"92 684 OFFCURVE",
"51 631 CURVE",
"51 504 LINE",
"96 557 OFFCURVE",
"155 594 OFFCURVE",
"214 594 CURVE SMOOTH"
);
},
{
closed = 1;
nodes = (
"141 18 OFFCURVE",
"178 -11 OFFCURVE",
"225 -11 CURVE SMOOTH",
"272 -11 OFFCURVE",
"309 18 OFFCURVE",
"309 67 CURVE SMOOTH",
"309 115 OFFCURVE",
"272 145 OFFCURVE",
"225 145 CURVE SMOOTH",
"178 145 OFFCURVE",
"141 115 OFFCURVE",
"141 67 CURVE SMOOTH"
);
}
);
width = 485;
}
);
unicode = 003F;
},
{
glyphname = at;
layers = (
{
hints = (
{
place = "{51, 52}";
type = Stem;
},
{
place = "{232, 119}";
type = Stem;
},
{
place = "{560, 105}";
type = Stem;
},
{
place = "{839, 51}";
type = Stem;
},
{
horizontal = 1;
place = "{-128, 47}";
type = Stem;
},
{
horizontal = 1;
place = "{83, 57}";
type = Stem;
},
{
horizontal = 1;
place = "{85, 100}";
type = Stem;
},
{
horizontal = 1;
place = "{421, 101}";
type = Stem;
},
{
horizontal = 1;
place = "{671, 46}";
type = Stem;
}
);
layerId = "0D3EB0FA-AC0F-4259-9DA6-5CB309C7FB4D";
paths = (
{
closed = 1;
nodes = (
"731 -15 LINE",
"655 -62 OFFCURVE",
"581 -81 OFFCURVE",
"488 -81 CURVE SMOOTH",
"255 -81 OFFCURVE",
"103 81 OFFCURVE",
"103 293 CURVE SMOOTH",
"103 506 OFFCURVE",
"259 671 OFFCURVE",
"478 671 CURVE SMOOTH",
"690 671 OFFCURVE",
"839 524 OFFCURVE",
"839 336 CURVE SMOOTH",
"839 213 OFFCURVE",
"790 140 OFFCURVE",
"726 140 CURVE SMOOTH",
"676 140 OFFCURVE",
"665 187 OFFCURVE",
"665 222 CURVE SMOOTH",
"665 232 LINE",
"707 494 LINE",
"594 509 LINE",
"583 446 LINE",
"558 489 OFFCURVE",
"517 522 OFFCURVE",
"450 522 CURVE SMOOTH",
"332 522 OFFCURVE",
"232 413 OFFCURVE",
"232 278 CURVE SMOOTH",
"232 163 OFFCURVE",
"309 85 OFFCURVE",
"411 85 CURVE SMOOTH",
"476 85 OFFCURVE",
"523 119 OFFCURVE",
"559 164 CURVE",
"580 115 OFFCURVE",
"620 83 OFFCURVE",
"692 83 CURVE SMOOTH",
"798 83 OFFCURVE",
"890 172 OFFCURVE",
"890 341 CURVE SMOOTH",
"890 549 OFFCURVE",
"711 717 OFFCURVE",
"478 717 CURVE SMOOTH",
"237 717 OFFCURVE",
"51 527 OFFCURVE",
"51 292 CURVE SMOOTH",
"51 57 OFFCURVE",
"233 -128 OFFCURVE",
"483 -128 CURVE SMOOTH",
"587 -128 OFFCURVE",
"674 -99 OFFCURVE",
"753 -48 CURVE"
);
},
{
closed = 1;
nodes = (
"525 421 OFFCURVE",
"560 381 OFFCURVE",
"560 324 CURVE SMOOTH",
"560 251 OFFCURVE",
"508 185 OFFCURVE",
"440 185 CURVE SMOOTH",
"387 185 OFFCURVE",
"351 225 OFFCURVE",
"351 286 CURVE SMOOTH",
"351 361 OFFCURVE",
"402 421 OFFCURVE",
"470 421 CURVE SMOOTH"
);
}
);
width = 933;
}
);
unicode = 0040;
},
{
glyphname = A;
layers = (
{
hints = (
{
horizontal = 1;
place = "{0, 21}";
target = up;
type = BottomGhost;
},
{
horizontal = 1;
place = "{161, 113}";
type = Stem;
},
{
horizontal = 1;
place = "{705, -20}";
target = down;
type = TopGhost;
},
{
place = "{21, 735}";
type = Stem;
}
);
layerId = "0D3EB0FA-AC0F-4259-9DA6-5CB309C7FB4D";
paths = (
{
closed = 1;
nodes = (
"538 161 LINE",
"605 0 LINE",
"756 0 LINE",
"452 705 LINE",
"324 705 LINE",
"21 0 LINE",
"168 0 LINE",
"236 161 LINE"
);
},
{
closed = 1;
nodes = (
"387 541 LINE",
"494 274 LINE",
"280 274 LINE"
);
}
);
width = 780;
}
);
unicode = 0041;
},
{
glyphname = B;
layers = (
{
hints = (
{
place = "{73, 136}";
type = Stem;
},
{
place = "{455, 139}";
type = Stem;
},
{
place = "{502, 139}";
type = Stem;
},
{
horizontal = 1;
place = "{0, 115}";
type = Stem;
},
{
horizontal = 1;
place = "{304, 105}";
type = Stem;
},
{
horizontal = 1;
place = "{588, 115}";
type = Stem;
}
);
layerId = "0D3EB0FA-AC0F-4259-9DA6-5CB309C7FB4D";
paths = (
{
closed = 1;
nodes = (
"73 0 LINE",
"367 0 LINE SMOOTH",
"553 0 OFFCURVE",
"641 82 OFFCURVE",
"641 195 CURVE SMOOTH",
"641 285 OFFCURVE",
"590 345 OFFCURVE",
"489 366 CURVE",
"554 393 OFFCURVE",
"594 447 OFFCURVE",
"594 526 CURVE SMOOTH",
"594 648 OFFCURVE",
"486 703 OFFCURVE",
"352 703 CURVE SMOOTH",
"73 703 LINE"
);
},
{
closed = 1;
nodes = (
"209 588 LINE",
"335 588 LINE SMOOTH",
"410 588 OFFCURVE",
"455 559 OFFCURVE",
"455 500 CURVE SMOOTH",
"455 445 OFFCURVE",
"416 409 OFFCURVE",
"333 409 CURVE SMOOTH",
"209 409 LINE"
);
},
{
closed = 1;
nodes = (
"209 304 LINE",
"346 304 LINE SMOOTH",
"458 304 OFFCURVE",
"502 269 OFFCURVE",
"502 210 CURVE SMOOTH",
"502 150 OFFCURVE",
"456 115 OFFCURVE",
"363 115 CURVE SMOOTH",
"209 115 LINE"
);
}
);
width = 682;
}
);
unicode = 0042;
},
{
glyphname = C;
layers = (
{
hints = (
{
horizontal = 1;
place = "{-14, 127}";
type = Stem;
},
{
horizontal = 1;
place = "{590, 127}";
type = Stem;
},
{
place = "{37, 144}";
type = Stem;
}
);
layerId = "0D3EB0FA-AC0F-4259-9DA6-5CB309C7FB4D";
paths = (
{
closed = 1;
nodes = (
"628 212 LINE",
"565 154 OFFCURVE",
"497 113 OFFCURVE",
"410 113 CURVE SMOOTH",
"270 113 OFFCURVE",
"181 219 OFFCURVE",
"181 352 CURVE SMOOTH",
"181 484 OFFCURVE",
"270 590 OFFCURVE",
"410 590 CURVE SMOOTH",
"505 590 OFFCURVE",
"570 553 OFFCURVE",
"618 501 CURVE",
"618 648 LINE",
"562 689 OFFCURVE",
"495 717 OFFCURVE",
"404 717 CURVE SMOOTH",
"193 717 OFFCURVE",
"37 555 OFFCURVE",
"37 351 CURVE SMOOTH",
"37 143 OFFCURVE",
"195 -14 OFFCURVE",
"398 -14 CURVE SMOOTH",
"493 -14 OFFCURVE",
"563 17 OFFCURVE",
"628 66 CURVE"
);
}
);
width = 658;
}
);
unicode = 0043;
},
{
glyphname = D;
layers = (
{
hints = (
{
horizontal = 1;
place = "{0, 124}";
type = Stem;
},
{
horizontal = 1;
place = "{578, 125}";
type = Stem;
},
{
place = "{73, 139}";
type = Stem;
},
{
place = "{559, 145}";
type = Stem;
}
);
layerId = "0D3EB0FA-AC0F-4259-9DA6-5CB309C7FB4D";
paths = (
{
closed = 1;
nodes = (
"73 0 LINE",
"316 0 LINE SMOOTH",
"555 0 OFFCURVE",
"704 150 OFFCURVE",
"704 354 CURVE SMOOTH",
"704 561 OFFCURVE",
"551 703 OFFCURVE",
"318 703 CURVE SMOOTH",
"73 703 LINE"
);
},
{
closed = 1;
nodes = (
"212 578 LINE",
"341 578 LINE SMOOTH",
"478 578 OFFCURVE",
"559 473 OFFCURVE",
"559 351 CURVE SMOOTH",
"559 215 OFFCURVE",
"470 124 OFFCURVE",
"317 124 CURVE SMOOTH",
"212 124 LINE"
);
}
);
width = 741;
}
);
unicode = 0044;
},
{
glyphname = E;
layers = (
{
hints = (
{
horizontal = 1;
place = "{0, 121}";
type = Stem;
},
{
horizontal = 1;
place = "{299, 114}";
type = Stem;
},
{
horizontal = 1;
place = "{582, 121}";
type = Stem;
},
{
place = "{73, 139}";
type = Stem;
}
);
layerId = "0D3EB0FA-AC0F-4259-9DA6-5CB309C7FB4D";
paths = (
{
closed = 1;
nodes = (
"212 299 LINE",
"552 299 LINE",
"552 413 LINE",
"212 413 LINE",
"212 582 LINE",
"584 582 LINE",
"584 703 LINE",
"73 703 LINE",
"73 0 LINE",
"592 0 LINE",
"592 121 LINE",
"212 121 LINE"
);
}
);
width = 631;
}
);
unicode = 0045;
},
{
glyphname = F;
layers = (
{
hints = (
{
horizontal = 1;
place = "{-1, 21}";
target = up;
type = BottomGhost;
},
{
horizontal = 1;
place = "{282, 118}";
type = Stem;
},
{
horizontal = 1;
place = "{580, 123}";
type = Stem;
},
{
place = "{73, 139}";
type = Stem;
}
);
layerId = "0D3EB0FA-AC0F-4259-9DA6-5CB309C7FB4D";
paths = (
{
closed = 1;
nodes = (
"212 282 LINE",
"548 282 LINE",
"548 400 LINE",
"212 400 LINE",
"212 580 LINE",
"581 580 LINE",
"581 703 LINE",
"73 703 LINE",
"73 -1 LINE",
"212 -1 LINE"
);
}
);
width = 633;
}
);
unicode = 0046;
},
{
glyphname = G;
layers = (
{
hints = (
{
place = "{37, 142}";
type = Stem;
},
{
place = "{438, 189}";
type = Stem;
},
{
place = "{612, 132}";
type = Stem;
},
{
horizontal = 1;
place = "{-15, 123}";
type = Stem;
},
{
horizontal = 1;
place = "{294, 110}";
type = Stem;
},
{
horizontal = 1;
place = "{592, 125}";
type = Stem;
}
);
layerId = "0D3EB0FA-AC0F-4259-9DA6-5CB309C7FB4D";
paths = (
{
closed = 1;
nodes = (
"612 294 LINE",
"612 174 OFFCURVE",
"515 108 OFFCURVE",
"410 108 CURVE SMOOTH",
"280 108 OFFCURVE",
"179 210 OFFCURVE",
"179 351 CURVE SMOOTH",
"179 483 OFFCURVE",
"289 592 OFFCURVE",
"425 592 CURVE SMOOTH",
"506 592 OFFCURVE",
"576 561 OFFCURVE",
"627 514 CURVE",
"627 664 LINE",
"566 700 OFFCURVE",
"490 717 OFFCURVE",
"417 717 CURVE SMOOTH",
"204 717 OFFCURVE",
"37 555 OFFCURVE",
"37 351 CURVE SMOOTH",
"37 145 OFFCURVE",
"196 -15 OFFCURVE",
"402 -15 CURVE SMOOTH",
"603 -15 OFFCURVE",
"744 116 OFFCURVE",
"744 371 CURVE SMOOTH",
"744 404 LINE",
"438 404 LINE",
"438 294 LINE"
);
}
);
width = 801;
}
);
unicode = 0047;
},
{
glyphname = H;
layers = (
{
hints = (
{
horizontal = 1;
place = "{0, 21}";
target = up;
type = BottomGhost;
},
{
horizontal = 1;
place = "{293, 125}";
type = Stem;
},
{
horizontal = 1;
place = "{703, -20}";
target = down;
type = TopGhost;
},
{
place = "{73, 139}";
type = Stem;
},
{
place = "{527, 139}";
type = Stem;
}
);
layerId = "0D3EB0FA-AC0F-4259-9DA6-5CB309C7FB4D";
paths = (
{
closed = 1;
nodes = (
"73 0 LINE",
"212 0 LINE",
"212 293 LINE",
"527 293 LINE",
"527 0 LINE",
"666 0 LINE",
"666 703 LINE",
"527 703 LINE",
"527 418 LINE",
"212 418 LINE",
"212 703 LINE",
"73 703 LINE"
);
}
);
width = 738;
}
);
unicode = 0048;
},
{
glyphname = I;
layers = (
{
hints = (
{
horizontal = 1;
place = "{0, 21}";
target = up;
type = BottomGhost;
},
{
horizontal = 1;
place = "{703, -20}";
target = down;
type = TopGhost;
},
{
place = "{73, 139}";
type = Stem;
}
);
layerId = "0D3EB0FA-AC0F-4259-9DA6-5CB309C7FB4D";
paths = (
{
closed = 1;
nodes = (
"212 703 LINE",
"73 703 LINE",
"73 0 LINE",
"212 0 LINE"
);
}
);
width = 284;
}
);
unicode = 0049;
},
{
glyphname = J;
layers = (
{
hints = (
{
horizontal = 1;
place = "{-12, 124}";
type = Stem;
},
{
horizontal = 1;
place = "{703, -20}";
target = down;
type = TopGhost;
},
{
place = "{220, 140}";
type = Stem;
}
);
layerId = "0D3EB0FA-AC0F-4259-9DA6-5CB309C7FB4D";
paths = (
{
closed = 1;
nodes = (
"1 32 LINE",
"22 17 OFFCURVE",
"46 5 OFFCURVE",
"71 -3 CURVE SMOOTH",
"84 -7 OFFCURVE",
"95 -9 OFFCURVE",
"108 -10 CURVE SMOOTH",
"115 -11 OFFCURVE",
"120 -11 OFFCURVE",
"127 -11 CURVE",
"128 -12 OFFCURVE",
"129 -12 OFFCURVE",
"130 -12 CURVE",
"138 -12 LINE SMOOTH",
"271 -12 OFFCURVE",
"351 69 OFFCURVE",
"359 213 CURVE",
"359 225 OFFCURVE",
"360 240 OFFCURVE",
"360 257 CURVE SMOOTH",
"360 703 LINE",
"220 703 LINE",
"220 232 LINE SMOOTH",
"220 147 OFFCURVE",
"183 112 OFFCURVE",
"126 112 CURVE SMOOTH",
"105 112 OFFCURVE",
"85 117 OFFCURVE",
"66 125 CURVE SMOOTH",
"42 136 OFFCURVE",
"21 152 OFFCURVE",
"1 169 CURVE"
);
}
);
width = 426;
}
);
unicode = 004A;
},
{
glyphname = K;
layers = (
{
hints = (
{
horizontal = 1;
place = "{0, 21}";
target = up;
type = BottomGhost;
},
{
horizontal = 1;
place = "{703, -20}";
target = down;
type = TopGhost;
},
{
place = "{73, 139}";
type = Stem;
}
);
layerId = "0D3EB0FA-AC0F-4259-9DA6-5CB309C7FB4D";
paths = (
{
closed = 1;
nodes = (
"212 703 LINE",
"73 703 LINE",
"73 0 LINE",
"212 0 LINE",
"212 349 LINE",
"483 0 LINE",
"653 0 LINE",
"351 387 LINE",
"635 703 LINE",
"466 703 LINE",
"212 413 LINE"
);
}
);
width = 648;
}
);
unicode = 004B;
},
{
glyphname = L;
layers = (
{
hints = (
{
horizontal = 1;
place = "{0, 123}";
type = Stem;
},
{
horizontal = 1;
place = "{703, -20}";
target = down;
type = TopGhost;
},
{
place = "{73, 139}";
type = Stem;
}
);
layerId = "0D3EB0FA-AC0F-4259-9DA6-5CB309C7FB4D";
paths = (
{
closed = 1;
nodes = (
"212 703 LINE",
"73 703 LINE",
"73 0 LINE",
"554 0 LINE",
"554 123 LINE",
"212 123 LINE"
);
}
);
width = 579;
}
);
unicode = 004C;
},
{
glyphname = M;
layers = (
{
hints = (
{
horizontal = 1;
place = "{0, 21}";
target = up;
type = BottomGhost;
},
{
place = "{56, 137}";
type = Stem;
},
{
place = "{646, 139}";
type = Stem;
}
);
layerId = "0D3EB0FA-AC0F-4259-9DA6-5CB309C7FB4D";
paths = (
{
closed = 1;
nodes = (
"419 141 LINE",
"646 484 LINE",
"646 0 LINE",
"785 0 LINE",
"785 700 LINE",
"641 700 LINE",
"420 354 LINE",
"199 700 LINE",
"56 700 LINE",
"56 0 LINE",
"193 0 LINE",
"193 483 LINE"
);
}
);
width = 841;
}
);
unicode = 004D;
},
{
glyphname = N;
layers = (
{
hints = (
{
horizontal = 1;
place = "{0, 21}";
target = up;
type = BottomGhost;
},
{
horizontal = 1;
place = "{703, -20}";
target = down;
type = TopGhost;
},
{
place = "{73, 137}";
type = Stem;
},
{
place = "{559, 137}";
type = Stem;
}
);
layerId = "0D3EB0FA-AC0F-4259-9DA6-5CB309C7FB4D";
paths = (
{
closed = 1;
nodes = (
"206 700 LINE",
"73 700 LINE",
"73 0 LINE",
"210 0 LINE",
"210 481 LINE",
"569 0 LINE",
"696 0 LINE",
"696 703 LINE",
"559 703 LINE",
"559 228 LINE"
);
}
);
width = 769;
}
);
unicode = 004E;
},
{
glyphname = O;
layers = (
{
hints = (
{
horizontal = 1;
place = "{-14, 126}";
type = Stem;
},
{
horizontal = 1;
place = "{591, 126}";
type = Stem;
},
{
place = "{37, 143}";
type = Stem;
},
{
place = "{637, 143}";
type = Stem;
}
);
layerId = "0D3EB0FA-AC0F-4259-9DA6-5CB309C7FB4D";
paths = (
{
closed = 1;
nodes = (
"780 552 OFFCURVE",
"622 717 OFFCURVE",
"410 717 CURVE SMOOTH",
"195 717 OFFCURVE",
"37 553 OFFCURVE",
"37 351 CURVE SMOOTH",
"37 148 OFFCURVE",
"195 -14 OFFCURVE",
"408 -14 CURVE SMOOTH",
"620 -14 OFFCURVE",
"780 152 OFFCURVE",
"780 353 CURVE SMOOTH"
);
},
{
closed = 1;
nodes = (
"637 220 OFFCURVE",
"542 112 OFFCURVE",
"409 112 CURVE SMOOTH",
"275 112 OFFCURVE",
"180 221 OFFCURVE",
"180 353 CURVE SMOOTH",
"180 484 OFFCURVE",
"274 591 OFFCURVE",
"409 591 CURVE SMOOTH",
"542 591 OFFCURVE",
"637 481 OFFCURVE",
"637 350 CURVE SMOOTH"
);
}
);
width = 817;
}
);
unicode = 004F;
},
{
glyphname = P;
layers = (
{
hints = (
{
horizontal = 1;
place = "{-1, 21}";
target = up;
type = BottomGhost;
},
{
horizontal = 1;
place = "{240, 114}";
type = Stem;
},
{
horizontal = 1;
place = "{583, 120}";
type = Stem;
},
{
place = "{73, 140}";
type = Stem;
},
{
place = "{467, 140}";
type = Stem;
}
);
layerId = "0D3EB0FA-AC0F-4259-9DA6-5CB309C7FB4D";
paths = (
{
closed = 1;
nodes = (
"73 -1 LINE",
"213 -1 LINE",
"213 240 LINE",
"328 240 LINE SMOOTH",
"487 240 OFFCURVE",
"607 324 OFFCURVE",
"607 476 CURVE SMOOTH",
"607 618 OFFCURVE",
"501 703 OFFCURVE",
"336 703 CURVE SMOOTH",
"73 703 LINE"
);
},
{
closed = 1;
nodes = (
"213 583 LINE",
"325 583 LINE SMOOTH",
"416 583 OFFCURVE",
"467 545 OFFCURVE",
"467 469 CURVE SMOOTH",
"467 398 OFFCURVE",
"414 354 OFFCURVE",
"325 354 CURVE SMOOTH",
"213 354 LINE"
);
}
);
width = 643;
}
);
unicode = 0050;
},
{
glyphname = Q;
layers = (
{
hints = (
{
horizontal = 1;
place = "{-14, 126}";
type = Stem;
},
{
horizontal = 1;
place = "{591, 126}";
type = Stem;
},
{
place = "{37, 143}";
type = Stem;
},
{
place = "{637, 143}";
type = Stem;
}
);
layerId = "0D3EB0FA-AC0F-4259-9DA6-5CB309C7FB4D";
paths = (
{
closed = 1;
nodes = (
"807 -114 LINE",
"807 41 LINE",
"705 134 LINE",
"754 195 OFFCURVE",
"780 265 OFFCURVE",
"780 352 CURVE SMOOTH",
"780 553 OFFCURVE",
"622 717 OFFCURVE",
"410 717 CURVE SMOOTH",
"195 717 OFFCURVE",
"37 553 OFFCURVE",
"37 350 CURVE SMOOTH",
"37 149 OFFCURVE",
"195 -14 OFFCURVE",
"408 -14 CURVE SMOOTH",
"488 -14 OFFCURVE",
"567 10 OFFCURVE",
"620 50 CURVE"
);
},
{
closed = 1;
nodes = (
"637 220 OFFCURVE",
"542 112 OFFCURVE",
"409 112 CURVE SMOOTH",
"275 112 OFFCURVE",
"180 220 OFFCURVE",
"180 352 CURVE SMOOTH",
"180 483 OFFCURVE",
"274 591 OFFCURVE",
"409 591 CURVE SMOOTH",
"542 591 OFFCURVE",
"637 481 OFFCURVE",
"637 350 CURVE SMOOTH"
);
}
);
width = 842;
}
);
unicode = 0051;
},
{
glyphname = R;
layers = (
{
hints = (
{
horizontal = 1;
place = "{0, 21}";
target = up;
type = BottomGhost;
},
{
horizontal = 1;
place = "{256, 110}";
type = Stem;
},
{
horizontal = 1;
place = "{581, 122}";
type = Stem;
},
{
place = "{73, 140}";
type = Stem;
},
{
place = "{474, 141}";
type = Stem;
}
);
layerId = "0D3EB0FA-AC0F-4259-9DA6-5CB309C7FB4D";
paths = (
{
closed = 1;
nodes = (
"213 0 LINE",
"213 256 LINE",
"301 256 LINE",
"480 0 LINE",
"644 0 LINE",
"446 274 LINE",
"549 303 OFFCURVE",
"615 374 OFFCURVE",
"615 482 CURVE SMOOTH",
"615 614 OFFCURVE",
"517 703 OFFCURVE",
"348 703 CURVE SMOOTH",
"73 703 LINE",
"73 0 LINE"
);
},
{
closed = 1;
nodes = (
"213 366 LINE",
"213 581 LINE",
"338 581 LINE SMOOTH",
"423 581 OFFCURVE",
"474 547 OFFCURVE",
"474 475 CURVE SMOOTH",
"474 402 OFFCURVE",
"415 366 OFFCURVE",
"330 366 CURVE SMOOTH"
);
}
);
width = 665;
}
);
unicode = 0052;
},
{
glyphname = S;
layers = (
{
hints = (
{
horizontal = 1;
place = "{-12, 118}";
type = Stem;
},
{
horizontal = 1;
place = "{600, 115}";
type = Stem;
},
{
place = "{67, 141}";
type = Stem;
},
{
place = "{438, 140}";
type = Stem;
}
);
layerId = "0D3EB0FA-AC0F-4259-9DA6-5CB309C7FB4D";
paths = (
{
closed = 1;
nodes = (
"227 106 OFFCURVE",
"125 147 OFFCURVE",
"43 221 CURVE",
"43 88 LINE",
"119 17 OFFCURVE",
"217 -12 OFFCURVE",
"317 -12 CURVE SMOOTH",
"455 -12 OFFCURVE",
"570 49 OFFCURVE",
"578 180 CURVE",
"578 193 LINE SMOOTH",
"578 304 OFFCURVE",
"496 369 OFFCURVE",
"398 405 CURVE SMOOTH",
"304 440 OFFCURVE",
"208 468 OFFCURVE",
"208 529 CURVE SMOOTH",
"208 570 OFFCURVE",
"250 600 OFFCURVE",
"319 600 CURVE SMOOTH",
"392 600 OFFCURVE",
"478 566 OFFCURVE",
"541 500 CURVE",
"541 640 LINE",
"480 691 OFFCURVE",
"404 715 OFFCURVE",
"311 715 CURVE SMOOTH",
"184 715 OFFCURVE",
"67 650 OFFCURVE",
"67 521 CURVE SMOOTH",
"67 285 OFFCURVE",
"438 318 OFFCURVE",
"438 184 CURVE SMOOTH",
"438 121 OFFCURVE",
"370 106 OFFCURVE",
"318 106 CURVE SMOOTH"
);
}
);
width = 621;
}
);
unicode = 0053;
},
{
glyphname = T;
layers = (
{
hints = (
{
horizontal = 1;
place = "{0, 21}";
target = up;
type = BottomGhost;
},
{
horizontal = 1;
place = "{580, 123}";
type = Stem;
},
{
place = "{221, 139}";
type = Stem;
}
);
layerId = "0D3EB0FA-AC0F-4259-9DA6-5CB309C7FB4D";
paths = (
{
closed = 1;
nodes = (
"360 580 LINE",
"570 580 LINE",
"570 703 LINE",
"11 703 LINE",
"11 580 LINE",
"221 580 LINE",
"221 0 LINE",
"360 0 LINE"
);
}
);
width = 580;
}
);
unicode = 0054;
},
{
glyphname = U;
layers = (
{
hints = (
{
horizontal = 1;
place = "{-14, 127}";
type = Stem;
},
{
horizontal = 1;
place = "{703, -20}";
target = down;
type = TopGhost;
},
{
place = "{72, 140}";
type = Stem;
},
{
place = "{537, 140}";
type = Stem;
}
);
layerId = "0D3EB0FA-AC0F-4259-9DA6-5CB309C7FB4D";
paths = (
{
closed = 1;
nodes = (
"566 -14 OFFCURVE",
"677 93 OFFCURVE",
"677 300 CURVE SMOOTH",
"677 703 LINE",
"537 703 LINE",
"537 296 LINE SMOOTH",
"537 172 OFFCURVE",
"476 113 OFFCURVE",
"375 113 CURVE SMOOTH",
"270 113 OFFCURVE",
"212 180 OFFCURVE",
"212 300 CURVE SMOOTH",
"212 703 LINE",
"72 703 LINE",
"72 296 LINE SMOOTH",
"72 97 OFFCURVE",
"182 -14 OFFCURVE",
"374 -14 CURVE SMOOTH"
);
}
);
width = 749;
}
);
unicode = 0055;
},
{
glyphname = V;
layers = (
{
hints = (
{
horizontal = 1;
place = "{-3, 21}";
target = up;
type = BottomGhost;
},
{
horizontal = 1;
place = "{703, -20}";
target = down;
type = TopGhost;
},
{
place = "{9, 700}";
type = Stem;
}
);
layerId = "0D3EB0FA-AC0F-4259-9DA6-5CB309C7FB4D";
paths = (
{
closed = 1;
nodes = (
"9 703 LINE",
"289 -3 LINE",
"430 -3 LINE",
"709 703 LINE",
"557 703 LINE",
"361 173 LINE",
"164 703 LINE"
);
}
);
width = 713;
}
);
unicode = 0056;
},
{
glyphname = W;
layers = (
{
hints = (
{
horizontal = 1;
place = "{-3, 21}";
target = up;
type = BottomGhost;
},
{
horizontal = 1;
place = "{703, -20}";
target = down;
type = TopGhost;
},
{
horizontal = 1;
place = "{704, -20}";
target = down;
type = TopGhost;
},
{
place = "{16, 1036}";
type = Stem;
}
);
layerId = "0D3EB0FA-AC0F-4259-9DA6-5CB309C7FB4D";
paths = (
{
closed = 1;
nodes = (
"164 703 LINE",
"16 703 LINE",
"252 -3 LINE",
"377 -3 LINE",
"534 490 LINE",
"694 -3 LINE",
"818 -3 LINE",
"1052 703 LINE",
"908 703 LINE",
"755 211 LINE",
"598 704 LINE",
"474 704 LINE",
"320 211 LINE"
);
}
);
width = 1064;
}
);
unicode = 0057;
},
{
glyphname = X;
layers = (
{
hints = (
{
horizontal = 1;
place = "{0, 21}";
target = up;
type = BottomGhost;
},
{
horizontal = 1;
place = "{703, -20}";
target = down;
type = TopGhost;
},
{
place = "{20, 658}";
type = Stem;
}
);
layerId = "0D3EB0FA-AC0F-4259-9DA6-5CB309C7FB4D";
paths = (
{
closed = 1;
nodes = (
"31 703 LINE",
"268 359 LINE",
"20 0 LINE",
"179 0 LINE",
"348 254 LINE",
"518 0 LINE",
"678 0 LINE",
"432 361 LINE",
"667 703 LINE",
"510 703 LINE",
"352 465 LINE",
"192 703 LINE"
);
}
);
width = 698;
}
);
unicode = 0058;
},
{
glyphname = Y;
layers = (
{
hints = (
{
horizontal = 1;
place = "{0, 21}";
target = up;
type = BottomGhost;
},
{
horizontal = 1;
place = "{703, -20}";
target = down;
type = TopGhost;
},
{
place = "{279, 140}";
type = Stem;
}
);
layerId = "0D3EB0FA-AC0F-4259-9DA6-5CB309C7FB4D";
paths = (
{
closed = 1;
nodes = (
"419 273 LINE",
"687 703 LINE",
"531 703 LINE",
"351 402 LINE",
"171 703 LINE",
"11 703 LINE",
"279 271 LINE",
"279 0 LINE",
"419 0 LINE"
);
}
);
width = 692;
}
);
unicode = 0059;
},
{
glyphname = Z;
layers = (
{
hints = (
{
horizontal = 1;
place = "{0, 120}";
type = Stem;
},
{
horizontal = 1;
place = "{583, 120}";
type = Stem;
},
{
place = "{27, 611}";
type = Stem;
}
);
layerId = "0D3EB0FA-AC0F-4259-9DA6-5CB309C7FB4D";
paths = (
{
closed = 1;
nodes = (
"638 596 LINE",
"638 703 LINE",
"47 703 LINE",
"47 583 LINE",
"452 583 LINE",
"27 107 LINE",
"27 0 LINE",
"627 0 LINE",
"627 120 LINE",
"216 120 LINE"
);
}
);
width = 670;
}
);
unicode = 005A;
},
{
glyphname = bracketleft;
layers = (
{
hints = (
{
horizontal = 1;
place = "{-144, 97}";
type = Stem;
},
{
horizontal = 1;
place = "{616, 97}";
type = Stem;
},
{
place = "{76, 124}";
type = Stem;
}
);
layerId = "0D3EB0FA-AC0F-4259-9DA6-5CB309C7FB4D";
paths = (
{
closed = 1;
nodes = (
"369 713 LINE",
"76 713 LINE",
"76 -144 LINE",
"369 -144 LINE",
"369 -47 LINE",
"200 -47 LINE",
"200 616 LINE",
"369 616 LINE"
);
}
);
width = 406;
}
);
unicode = 005B;
},
{
glyphname = backslash;
layers = (
{
hints = (
{
horizontal = 1;
place = "{-123, 913}";
type = Stem;
},
{
place = "{10, 529}";
type = Stem;
}
);
layerId = "0D3EB0FA-AC0F-4259-9DA6-5CB309C7FB4D";
paths = (
{
closed = 1;
nodes = (
"431 -123 LINE",
"539 -107 LINE",
"117 790 LINE",
"10 775 LINE"
);
}
);
width = 551;
}
);
unicode = 005C;
},
{
glyphname = bracketright;
layers = (
{
hints = (
{
horizontal = 1;
place = "{-145, 98}";
type = Stem;
},
{
horizontal = 1;
place = "{615, 98}";
type = Stem;
},
{
place = "{207, 124}";
type = Stem;
}
);
layerId = "0D3EB0FA-AC0F-4259-9DA6-5CB309C7FB4D";
paths = (
{
closed = 1;
nodes = (
"37 -145 LINE",
"331 -145 LINE",
"331 713 LINE",
"37 713 LINE",
"37 615 LINE",
"207 615 LINE",
"207 -47 LINE",
"37 -47 LINE"
);
}
);
width = 407;
}
);
unicode = 005D;
},
{
glyphname = asciicircum;
layers = (
{
hints = (
{
place = "{50, 424}";
type = Stem;
},
{
horizontal = 1;
place = "{456, 247}";
type = Stem;
},
{
horizontal = 1;
place = "{616, 87}";
type = Stem;
},
{
horizontal = 1;
place = "{703, -20}";
target = down;
type = TopGhost;
}
);
layerId = "0D3EB0FA-AC0F-4259-9DA6-5CB309C7FB4D";
paths = (
{
closed = 1;
nodes = (
"50 456 LINE",
"152 456 LINE",
"261 616 LINE",
"369 456 LINE",
"474 456 LINE",
"311 703 LINE",
"211 703 LINE"
);
}
);
width = 523;
}
);
unicode = 005E;
},
{
glyphname = underscore;
layers = (
{
hints = (
{
horizontal = 1;
place = "{-154, 91}";
type = Stem;
},
{
place = "{0, 583}";
type = Stem;
}
);
layerId = "0D3EB0FA-AC0F-4259-9DA6-5CB309C7FB4D";
paths = (
{
closed = 1;
nodes = (
"0 -154 LINE",
"583 -154 LINE",
"583 -63 LINE",
"0 -63 LINE"
);
}
);
width = 583;
}
);
unicode = 005F;
},
{
glyphname = grave;
layers = (
{
hints = (
{
horizontal = 1;
place = "{704, -20}";
target = down;
type = TopGhost;
},
{
place = "{10, 235}";
type = Stem;
}
);
layerId = "0D3EB0FA-AC0F-4259-9DA6-5CB309C7FB4D";
paths = (
{
closed = 1;
nodes = (
"146 575 LINE",
"245 575 LINE",
"145 742 LINE",
"10 704 LINE"
);
}
);
width = 325;
}
);
unicode = 0060;
},
{
glyphname = a;
layers = (
{
hints = (
{
place = "{32, 134}";
type = Stem;
},
{
place = "{386, 133}";
type = Stem;
},
{
horizontal = 1;
place = "{-12, 94}";
type = Stem;
},
{
horizontal = 1;
place = "{-6, 21}";
target = up;
type = BottomGhost;
},
{
horizontal = 1;
place = "{251, 79}";
type = Stem;
},
{
horizontal = 1;
place = "{413, 108}";
type = Stem;
}
);
layerId = "0D3EB0FA-AC0F-4259-9DA6-5CB309C7FB4D";
paths = (
{
closed = 1;
nodes = (
"519 -6 LINE",
"519 310 LINE SMOOTH",
"519 449 OFFCURVE",
"426 521 OFFCURVE",
"274 521 CURVE SMOOTH",
"193 521 OFFCURVE",
"125 502 OFFCURVE",
"72 479 CURVE",
"72 373 LINE",
"131 402 OFFCURVE",
"188 413 OFFCURVE",
"247 413 CURVE SMOOTH",
"334 413 OFFCURVE",
"386 386 OFFCURVE",
"386 317 CURVE SMOOTH",
"386 303 LINE",
"349 320 OFFCURVE",
"299 330 OFFCURVE",
"244 330 CURVE SMOOTH",
"132 330 OFFCURVE",
"32 284 OFFCURVE",
"32 164 CURVE SMOOTH",
"32 53 OFFCURVE",
"125 -12 OFFCURVE",
"225 -12 CURVE SMOOTH",
"293 -12 OFFCURVE",
"343 12 OFFCURVE",
"384 53 CURVE"
);
},
{
closed = 1;
nodes = (
"386 131 LINE",
"355 99 OFFCURVE",
"318 82 OFFCURVE",
"270 82 CURVE SMOOTH",
"214 82 OFFCURVE",
"166 111 OFFCURVE",
"166 166 CURVE SMOOTH",
"166 222 OFFCURVE",
"220 251 OFFCURVE",
"280 251 CURVE SMOOTH",
"325 251 OFFCURVE",
"361 238 OFFCURVE",
"386 225 CURVE"
);
}
);
width = 576;
}
);
unicode = 0061;
},
{
glyphname = b;
layers = (
{
hints = (
{
place = "{63, 136}";
type = Stem;
},
{
place = "{478, 134}";
type = Stem;
},
{
horizontal = 1;
place = "{-11, 114}";
type = Stem;
},
{
horizontal = 1;
place = "{-6, 21}";
target = up;
type = BottomGhost;
},
{
horizontal = 1;
place = "{408, 116}";
type = Stem;
}
);
layerId = "0D3EB0FA-AC0F-4259-9DA6-5CB309C7FB4D";
paths = (
{
closed = 1;
nodes = (
"504 -11 OFFCURVE",
"612 93 OFFCURVE",
"612 256 CURVE SMOOTH",
"612 419 OFFCURVE",
"503 524 OFFCURVE",
"374 524 CURVE SMOOTH",
"293 524 OFFCURVE",
"239 484 OFFCURVE",
"199 432 CURVE",
"199 731 LINE",
"63 731 LINE",
"63 -6 LINE",
"203 69 LINE",
"239 25 OFFCURVE",
"293 -11 OFFCURVE",
"373 -11 CURVE SMOOTH"
);
},
{
closed = 1;
nodes = (
"478 166 OFFCURVE",
"416 103 OFFCURVE",
"336 103 CURVE SMOOTH",
"259 103 OFFCURVE",
"196 168 OFFCURVE",
"196 256 CURVE SMOOTH",
"196 345 OFFCURVE",
"259 408 OFFCURVE",
"336 408 CURVE SMOOTH",
"419 408 OFFCURVE",
"478 343 OFFCURVE",
"478 256 CURVE SMOOTH"
);
}
);
width = 647;
}
);
unicode = 0062;
},
{
glyphname = c;
layers = (
{
hints = (
{
horizontal = 1;
place = "{-11, 115}";
type = Stem;
},
{
horizontal = 1;
place = "{408, 114}";
type = Stem;
},
{
place = "{36, 134}";
type = Stem;
}
);
layerId = "0D3EB0FA-AC0F-4259-9DA6-5CB309C7FB4D";
paths = (
{
closed = 1;
nodes = (
"430 495 LINE",
"397 514 OFFCURVE",
"349 522 OFFCURVE",
"306 522 CURVE SMOOTH",
"146 522 OFFCURVE",
"36 402 OFFCURVE",
"36 255 CURVE SMOOTH",
"36 108 OFFCURVE",
"152 -11 OFFCURVE",
"301 -11 CURVE SMOOTH",
"352 -11 OFFCURVE",
"399 2 OFFCURVE",
"435 21 CURVE",
"435 154 LINE",
"400 122 OFFCURVE",
"359 104 OFFCURVE",
"316 104 CURVE SMOOTH",
"234 104 OFFCURVE",
"170 173 OFFCURVE",
"170 258 CURVE SMOOTH",
"170 343 OFFCURVE",
"229 408 OFFCURVE",
"313 408 CURVE SMOOTH",
"358 408 OFFCURVE",
"397 389 OFFCURVE",
"430 357 CURVE"
);
}
);
width = 459;
}
);
unicode = 0063;
},
{
glyphname = d;
layers = (
{
hints = (
{
place = "{35, 135}";
type = Stem;
},
{
place = "{448, 136}";
type = Stem;
},
{
horizontal = 1;
place = "{-11, 115}";
type = Stem;
},
{
horizontal = 1;
place = "{-6, 21}";
target = up;
type = BottomGhost;
},
{
horizontal = 1;
place = "{409, 115}";
type = Stem;
}
);
layerId = "0D3EB0FA-AC0F-4259-9DA6-5CB309C7FB4D";
paths = (
{
closed = 1;
nodes = (
"584 -6 LINE",
"584 731 LINE",
"448 731 LINE",
"448 437 LINE",
"409 486 OFFCURVE",
"354 524 OFFCURVE",
"273 524 CURVE SMOOTH",
"145 524 OFFCURVE",
"35 420 OFFCURVE",
"35 256 CURVE SMOOTH",
"35 92 OFFCURVE",
"145 -11 OFFCURVE",
"275 -11 CURVE SMOOTH",
"354 -11 OFFCURVE",
"402 26 OFFCURVE",
"443 75 CURVE"
);
},
{
closed = 1;
nodes = (
"170 348 OFFCURVE",
"233 409 OFFCURVE",
"308 409 CURVE SMOOTH",
"385 409 OFFCURVE",
"451 346 OFFCURVE",
"451 257 CURVE SMOOTH",
"451 167 OFFCURVE",
"386 104 OFFCURVE",
"308 104 CURVE SMOOTH",
"232 104 OFFCURVE",
"170 167 OFFCURVE",
"170 256 CURVE SMOOTH"
);
}
);
width = 648;
}
);
unicode = 0064;
},
{
glyphname = e;
layers = (
{
hints = (
{
horizontal = 1;
place = "{-14, 104}";
type = Stem;
},
{
horizontal = 1;
place = "{416, 106}";
type = Stem;
},
{
place = "{36, 130}";
type = Stem;
}
);
layerId = "0D3EB0FA-AC0F-4259-9DA6-5CB309C7FB4D";
paths = (
{
closed = 1;
nodes = (
"245 90 OFFCURVE",
"202 118 OFFCURVE",
"178 162 CURVE",
"543 253 LINE",
"535 396 OFFCURVE",
"450 522 OFFCURVE",
"293 522 CURVE SMOOTH",
"141 522 OFFCURVE",
"36 406 OFFCURVE",
"36 254 CURVE SMOOTH",
"36 98 OFFCURVE",
"148 -14 OFFCURVE",
"302 -14 CURVE SMOOTH",
"368 -14 OFFCURVE",
"438 5 OFFCURVE",
"495 43 CURVE",
"495 161 LINE",
"450 121 OFFCURVE",
"378 90 OFFCURVE",
"306 90 CURVE SMOOTH"
);
},
{
closed = 1;
nodes = (
"166 261 LINE",
"166 337 OFFCURVE",
"205 416 OFFCURVE",
"289 416 CURVE SMOOTH",
"350 416 OFFCURVE",
"394 377 OFFCURVE",
"409 318 CURVE",
"168 256 LINE"
);
}
);
width = 576;
}
);
unicode = 0065;
},
{
glyphname = f;
layers = (
{
hints = (
{
horizontal = 1;
place = "{0, 21}";
target = up;
type = BottomGhost;
},
{
horizontal = 1;
place = "{401, 108}";
type = Stem;
},
{
horizontal = 1;
place = "{634, 103}";
type = Stem;
},
{
place = "{106, 134}";
type = Stem;
}
);
layerId = "0D3EB0FA-AC0F-4259-9DA6-5CB309C7FB4D";
paths = (
{
closed = 1;
nodes = (
"369 724 LINE",
"346 732 OFFCURVE",
"317 737 OFFCURVE",
"281 737 CURVE SMOOTH",
"173 737 OFFCURVE",
"106 683 OFFCURVE",
"106 554 CURVE SMOOTH",
"106 510 LINE",
"15 401 LINE",
"106 401 LINE",
"106 0 LINE",
"240 0 LINE",
"240 401 LINE",
"361 401 LINE",
"361 509 LINE",
"223 509 LINE",
"223 551 LINE SMOOTH",
"223 604 OFFCURVE",
"257 634 OFFCURVE",
"305 634 CURVE SMOOTH",
"325 634 OFFCURVE",
"349 630 OFFCURVE",
"369 623 CURVE"
);
}
);
width = 347;
}
);
unicode = 0066;
},
{
glyphname = g;
layers = (
{
hints = (
{
place = "{36, 136}";
type = Stem;
},
{
place = "{451, 134}";
type = Stem;
},
{
horizontal = 1;
place = "{-178, 103}";
type = Stem;
},
{
horizontal = 1;
place = "{34, 109}";
type = Stem;
},
{
horizontal = 1;
place = "{415, 109}";
type = Stem;
},
{
horizontal = 1;
place = "{512, -20}";
target = down;
type = TopGhost;
}
);
layerId = "0D3EB0FA-AC0F-4259-9DA6-5CB309C7FB4D";
paths = (
{
closed = 1;
nodes = (
"200 -75 OFFCURVE",
"119 -43 OFFCURVE",
"64 -4 CURVE",
"64 -124 LINE",
"128 -156 OFFCURVE",
"193 -178 OFFCURVE",
"280 -178 CURVE SMOOTH",
"459 -178 OFFCURVE",
"585 -87 OFFCURVE",
"585 94 CURVE SMOOTH",
"585 512 LINE",
"444 445 LINE",
"403 490 OFFCURVE",
"351 524 OFFCURVE",
"274 524 CURVE SMOOTH",
"144 524 OFFCURVE",
"36 428 OFFCURVE",
"36 277 CURVE SMOOTH",
"36 132 OFFCURVE",
"141 34 OFFCURVE",
"273 34 CURVE SMOOTH",
"354 34 OFFCURVE",
"408 71 OFFCURVE",
"451 123 CURVE",
"451 82 LINE SMOOTH",
"451 -26 OFFCURVE",
"388 -75 OFFCURVE",
"279 -75 CURVE SMOOTH"
);
},
{
closed = 1;
nodes = (
"172 359 OFFCURVE",
"229 415 OFFCURVE",
"310 415 CURVE SMOOTH",
"389 415 OFFCURVE",
"451 356 OFFCURVE",
"451 279 CURVE SMOOTH",
"451 199 OFFCURVE",
"389 143 OFFCURVE",
"310 143 CURVE SMOOTH",
"229 143 OFFCURVE",
"172 199 OFFCURVE",
"172 279 CURVE SMOOTH"
);
}
);
width = 648;
}
);
unicode = 0067;
},
{
glyphname = h;
layers = (
{
hints = (
{
horizontal = 1;
place = "{0, 21}";
target = up;
type = BottomGhost;
},
{
horizontal = 1;
place = "{398, 125}";
type = Stem;
},
{
place = "{67, 136}";
type = Stem;
},
{
place = "{406, 136}";
type = Stem;
}
);
layerId = "0D3EB0FA-AC0F-4259-9DA6-5CB309C7FB4D";
paths = (
{
closed = 1;
nodes = (
"289 523 OFFCURVE",
"234 486 OFFCURVE",
"199 442 CURVE",
"199 731 LINE",
"67 731 LINE",
"67 0 LINE",
"203 0 LINE",
"203 287 LINE SMOOTH",
"203 360 OFFCURVE",
"255 398 OFFCURVE",
"313 398 CURVE SMOOTH",
"372 398 OFFCURVE",
"406 360 OFFCURVE",
"406 287 CURVE SMOOTH",
"406 0 LINE",
"542 0 LINE",
"542 329 LINE SMOOTH",
"542 457 OFFCURVE",
"472 523 OFFCURVE",
"364 523 CURVE SMOOTH"
);
}
);
width = 607;
}
);
unicode = 0068;
},
{
glyphname = i;
layers = (
{
hints = (
{
place = "{61, 168}";
type = Stem;
},
{
place = "{78, 136}";
type = Stem;
},
{
horizontal = 1;
place = "{0, 21}";
target = up;
type = BottomGhost;
},
{
horizontal = 1;
place = "{512, -20}";
target = down;
type = TopGhost;
},
{
horizontal = 1;
place = "{583, 156}";
type = Stem;
}
);
layerId = "0D3EB0FA-AC0F-4259-9DA6-5CB309C7FB4D";
paths = (
{
closed = 1;
nodes = (
"61 613 OFFCURVE",
"98 583 OFFCURVE",
"145 583 CURVE SMOOTH",
"192 583 OFFCURVE",
"229 613 OFFCURVE",
"229 661 CURVE SMOOTH",
"229 710 OFFCURVE",
"192 739 OFFCURVE",
"145 739 CURVE SMOOTH",
"98 739 OFFCURVE",
"61 710 OFFCURVE",
"61 661 CURVE SMOOTH"
);
},
{
closed = 1;
nodes = (
"214 512 LINE",
"78 512 LINE",
"78 0 LINE",
"214 0 LINE"
);
}
);
width = 290;
}
);
unicode = 0069;
},
{
glyphname = j;
layers = (
{
hints = (
{
place = "{21, 167}";
type = Stem;
},
{
place = "{39, 136}";
type = Stem;
},
{
horizontal = 1;
place = "{-179, 101}";
type = Stem;
},
{
horizontal = 1;
place = "{512, -20}";
target = down;
type = TopGhost;
},
{
horizontal = 1;
place = "{583, 156}";
type = Stem;
}
);
layerId = "0D3EB0FA-AC0F-4259-9DA6-5CB309C7FB4D";
paths = (
{
closed = 1;
nodes = (
"21 613 OFFCURVE",
"57 583 OFFCURVE",
"104 583 CURVE SMOOTH",
"149 583 OFFCURVE",
"188 613 OFFCURVE",
"188 661 CURVE SMOOTH",
"188 710 OFFCURVE",
"149 739 OFFCURVE",
"104 739 CURVE SMOOTH",
"57 739 OFFCURVE",
"21 710 OFFCURVE",
"21 661 CURVE SMOOTH"
);
},
{
closed = 1;
nodes = (
"-43 -172 LINE",
"-24 -176 OFFCURVE",
"-4 -179 OFFCURVE",
"21 -179 CURVE SMOOTH",
"133 -179 OFFCURVE",
"175 -118 OFFCURVE",
"175 -7 CURVE SMOOTH",
"175 512 LINE",
"39 512 LINE",
"39 -15 LINE SMOOTH",
"39 -55 OFFCURVE",
"27 -78 OFFCURVE",
"-8 -78 CURVE SMOOTH",
"-19 -78 OFFCURVE",
"-31 -76 OFFCURVE",
"-43 -71 CURVE"
);
}
);
width = 247;
}
);
unicode = 006A;
},
{
glyphname = k;
layers = (
{
hints = (
{
horizontal = 1;
place = "{0, 21}";
target = up;
type = BottomGhost;
},
{
horizontal = 1;
place = "{512, -20}";
target = down;
type = TopGhost;
},
{
place = "{67, 136}";
type = Stem;
}
);
layerId = "0D3EB0FA-AC0F-4259-9DA6-5CB309C7FB4D";
paths = (
{
closed = 1;
nodes = (
"203 731 LINE",
"67 731 LINE",
"67 0 LINE",
"203 0 LINE",
"203 250 LINE",
"381 0 LINE",
"536 0 LINE",
"325 289 LINE",
"529 512 LINE",
"369 512 LINE",
"203 321 LINE"
);
}
);
width = 522;
}
);
unicode = 006B;
},
{
glyphname = l;
layers = (
{
hints = (
{
horizontal = 1;
place = "{0, 21}";
target = up;
type = BottomGhost;
},
{
place = "{67, 136}";
type = Stem;
}
);
layerId = "0D3EB0FA-AC0F-4259-9DA6-5CB309C7FB4D";
paths = (
{
closed = 1;
nodes = (
"203 731 LINE",
"67 731 LINE",
"67 0 LINE",
"203 0 LINE"
);
}
);
width = 271;
}
);
unicode = 006C;
},
{
glyphname = m;
layers = (
{
hints = (
{
horizontal = 1;
place = "{0, 21}";
target = up;
type = BottomGhost;
},
{
horizontal = 1;
place = "{403, 120}";
type = Stem;
},
{
place = "{63, 136}";
type = Stem;
},
{
place = "{390, 136}";
type = Stem;
},
{
place = "{718, 136}";
type = Stem;
}
);
layerId = "0D3EB0FA-AC0F-4259-9DA6-5CB309C7FB4D";
paths = (
{
closed = 1;
nodes = (
"854 0 LINE",
"854 330 LINE SMOOTH",
"854 437 OFFCURVE",
"793 523 OFFCURVE",
"679 523 CURVE SMOOTH",
"603 523 OFFCURVE",
"544 491 OFFCURVE",
"505 435 CURVE",
"477 496 OFFCURVE",
"419 523 OFFCURVE",
"355 523 CURVE SMOOTH",
"292 523 OFFCURVE",
"237 497 OFFCURVE",
"198 446 CURVE",
"63 511 LINE",
"63 0 LINE",
"199 0 LINE",
"199 287 LINE SMOOTH",
"199 354 OFFCURVE",
"238 403 OFFCURVE",
"299 403 CURVE SMOOTH",
"361 403 OFFCURVE",
"390 356 OFFCURVE",
"390 287 CURVE SMOOTH",
"390 0 LINE",
"526 0 LINE",
"526 287 LINE SMOOTH",
"526 348 OFFCURVE",
"562 403 OFFCURVE",
"627 403 CURVE SMOOTH",
"683 403 OFFCURVE",
"718 367 OFFCURVE",
"718 287 CURVE SMOOTH",
"718 0 LINE"
);
}
);
width = 919;
}
);
unicode = 006D;
},
{
glyphname = n;
layers = (
{
hints = (
{
place = "{63, 136}";
type = Stem;
},
{
place = "{402, 136}";
type = Stem;
},
{
horizontal = 1;
place = "{0, 21}";
target = up;
type = BottomGhost;
},
{
horizontal = 1;
place = "{403, 120}";
type = Stem;
},
{
horizontal = 1;
place = "{512, -20}";
target = down;
type = TopGhost;
}
);
layerId = "0D3EB0FA-AC0F-4259-9DA6-5CB309C7FB4D";
paths = (
{
closed = 1;
nodes = (
"286 523 OFFCURVE",
"235 487 OFFCURVE",
"200 443 CURVE",
"63 512 LINE",
"63 0 LINE",
"199 0 LINE",
"199 287 LINE SMOOTH",
"199 371 OFFCURVE",
"255 403 OFFCURVE",
"305 403 CURVE SMOOTH",
"354 403 OFFCURVE",
"402 370 OFFCURVE",
"402 287 CURVE SMOOTH",
"402 0 LINE",
"538 0 LINE",
"538 329 LINE SMOOTH",
"538 453 OFFCURVE",
"463 523 OFFCURVE",
"359 523 CURVE SMOOTH"
);
}
);
width = 603;
}
);
unicode = 006E;
},
{
glyphname = o;
layers = (
{
hints = (
{
horizontal = 1;
place = "{-12, 116}";
type = Stem;
},
{
horizontal = 1;
place = "{409, 115}";
type = Stem;
},
{
place = "{36, 134}";
type = Stem;
},
{
place = "{459, 134}";
type = Stem;
}
);
layerId = "0D3EB0FA-AC0F-4259-9DA6-5CB309C7FB4D";
paths = (
{
closed = 1;
nodes = (
"593 405 OFFCURVE",
"476 524 OFFCURVE",
"315 524 CURVE SMOOTH",
"153 524 OFFCURVE",
"36 404 OFFCURVE",
"36 255 CURVE SMOOTH",
"36 108 OFFCURVE",
"153 -12 OFFCURVE",
"313 -12 CURVE SMOOTH",
"476 -12 OFFCURVE",
"593 111 OFFCURVE",
"593 257 CURVE SMOOTH"
);
},
{
closed = 1;
nodes = (
"459 173 OFFCURVE",
"400 104 OFFCURVE",
"315 104 CURVE SMOOTH",
"232 104 OFFCURVE",
"170 172 OFFCURVE",
"170 257 CURVE SMOOTH",
"170 341 OFFCURVE",
"228 409 OFFCURVE",
"313 409 CURVE SMOOTH",
"399 409 OFFCURVE",
"459 339 OFFCURVE",
"459 256 CURVE SMOOTH"
);
}
);
width = 630;
}
);
unicode = 006F;
},
{
glyphname = p;
layers = (
{
hints = (
{
place = "{63, 136}";
type = Stem;
},
{
place = "{478, 134}";
type = Stem;
},
{
horizontal = 1;
place = "{-174, 21}";
target = up;
type = BottomGhost;
},
{
horizontal = 1;
place = "{-11, 114}";
type = Stem;
},
{
horizontal = 1;
place = "{408, 116}";
type = Stem;
},
{
horizontal = 1;
place = "{512, -20}";
target = down;
type = TopGhost;
}
);
layerId = "0D3EB0FA-AC0F-4259-9DA6-5CB309C7FB4D";
paths = (
{
closed = 1;
nodes = (
"199 75 LINE",
"238 24 OFFCURVE",
"293 -11 OFFCURVE",
"374 -11 CURVE SMOOTH",
"500 -11 OFFCURVE",
"612 93 OFFCURVE",
"612 257 CURVE SMOOTH",
"612 420 OFFCURVE",
"502 524 OFFCURVE",
"373 524 CURVE SMOOTH",
"293 524 OFFCURVE",
"245 486 OFFCURVE",
"204 438 CURVE",
"63 512 LINE",
"63 -174 LINE",
"199 -174 LINE"
);
},
{
closed = 1;
nodes = (
"478 165 OFFCURVE",
"415 103 OFFCURVE",
"338 103 CURVE SMOOTH",
"261 103 OFFCURVE",
"195 168 OFFCURVE",
"195 256 CURVE SMOOTH",
"195 345 OFFCURVE",
"260 408 OFFCURVE",
"336 408 CURVE SMOOTH",
"416 408 OFFCURVE",
"478 347 OFFCURVE",
"478 257 CURVE SMOOTH"
);
}
);
width = 649;
}
);
unicode = 0070;
},
{
glyphname = q;
layers = (
{
hints = (
{
place = "{36, 135}";
type = Stem;
},
{
place = "{449, 136}";
type = Stem;
},
{
horizontal = 1;
place = "{-174, 21}";
target = up;
type = BottomGhost;
},
{
horizontal = 1;
place = "{-12, 115}";
type = Stem;
},
{
horizontal = 1;
place = "{409, 115}";
type = Stem;
},
{
horizontal = 1;
place = "{512, -20}";
target = down;
type = TopGhost;
}
);
layerId = "0D3EB0FA-AC0F-4259-9DA6-5CB309C7FB4D";
paths = (
{
closed = 1;
nodes = (
"585 -174 LINE",
"585 512 LINE",
"444 443 LINE",
"404 488 OFFCURVE",
"356 524 OFFCURVE",
"275 524 CURVE SMOOTH",
"146 524 OFFCURVE",
"36 420 OFFCURVE",
"36 256 CURVE SMOOTH",
"36 96 OFFCURVE",
"145 -12 OFFCURVE",
"276 -12 CURVE SMOOTH",
"355 -12 OFFCURVE",
"408 27 OFFCURVE",
"449 80 CURVE",
"449 -174 LINE"
);
},
{
closed = 1;
nodes = (
"171 348 OFFCURVE",
"234 409 OFFCURVE",
"311 409 CURVE SMOOTH",
"388 409 OFFCURVE",
"453 346 OFFCURVE",
"453 257 CURVE SMOOTH",
"453 170 OFFCURVE",
"387 103 OFFCURVE",
"311 103 CURVE SMOOTH",
"234 103 OFFCURVE",
"171 170 OFFCURVE",
"171 258 CURVE SMOOTH"
);
}
);
width = 649;
}
);
unicode = 0071;
},
{
glyphname = r;
layers = (
{
hints = (
{
place = "{63, 136}";
type = Stem;
},
{
horizontal = 1;
place = "{0, 21}";
target = up;
type = BottomGhost;
},
{
horizontal = 1;
place = "{385, 136}";
type = Stem;
},
{
horizontal = 1;
place = "{512, -20}";
target = down;
type = TopGhost;
},
{
horizontal = 1;
place = "{518, -20}";
target = down;
type = TopGhost;
}
);
layerId = "0D3EB0FA-AC0F-4259-9DA6-5CB309C7FB4D";
paths = (
{
closed = 1;
nodes = (
"380 518 LINE",
"372 519 OFFCURVE",
"364 521 OFFCURVE",
"355 521 CURVE SMOOTH",
"286 521 OFFCURVE",
"233 487 OFFCURVE",
"200 430 CURVE",
"63 512 LINE",
"63 0 LINE",
"199 0 LINE",
"199 220 LINE SMOOTH",
"199 335 OFFCURVE",
"269 385 OFFCURVE",
"350 385 CURVE SMOOTH",
"362 385 OFFCURVE",
"372 384 OFFCURVE",
"380 380 CURVE"
);
}
);
width = 399;
}
);
unicode = 0072;
},
{
glyphname = s;
layers = (
{
hints = (
{
horizontal = 1;
place = "{-11, 101}";
type = Stem;
},
{
horizontal = 1;
place = "{422, 101}";
type = Stem;
},
{
place = "{42, 126}";
type = Stem;
},
{
place = "{301, 125}";
type = Stem;
}
);
layerId = "0D3EB0FA-AC0F-4259-9DA6-5CB309C7FB4D";
paths = (
{
closed = 1;
nodes = (
"166 90 OFFCURVE",
"96 124 OFFCURVE",
"43 164 CURVE",
"43 42 LINE",
"100 14 OFFCURVE",
"157 -11 OFFCURVE",
"233 -11 CURVE SMOOTH",
"350 -11 OFFCURVE",
"426 55 OFFCURVE",
"426 149 CURVE SMOOTH",
"426 318 OFFCURVE",
"168 304 OFFCURVE",
"168 382 CURVE SMOOTH",
"168 405 OFFCURVE",
"187 422 OFFCURVE",
"226 422 CURVE SMOOTH",
"274 422 OFFCURVE",
"338 394 OFFCURVE",
"386 362 CURVE",
"386 483 LINE",
"336 509 OFFCURVE",
"288 523 OFFCURVE",
"226 523 CURVE SMOOTH",
"117 523 OFFCURVE",
"42 466 OFFCURVE",
"42 375 CURVE SMOOTH",
"42 204 OFFCURVE",
"301 230 OFFCURVE",
"301 142 CURVE SMOOTH",
"301 106 OFFCURVE",
"265 90 OFFCURVE",
"226 90 CURVE SMOOTH"
);
}
);
width = 462;
}
);
unicode = 0073;
},
{
glyphname = t;
layers = (
{
hints = (
{
place = "{119, 135}";
type = Stem;
},
{
horizontal = 1;
place = "{-11, 116}";
type = Stem;
},
{
horizontal = 1;
place = "{-11, 21}";
target = up;
type = BottomGhost;
},
{
horizontal = 1;
place = "{400, 112}";
type = Stem;
}
);
layerId = "0D3EB0FA-AC0F-4259-9DA6-5CB309C7FB4D";
paths = (
{
closed = 1;
nodes = (
"119 144 LINE SMOOTH",
"119 39 OFFCURVE",
"178 -11 OFFCURVE",
"267 -11 CURVE SMOOTH",
"303 -11 OFFCURVE",
"333 -3 OFFCURVE",
"358 10 CURVE",
"358 119 LINE",
"338 110 OFFCURVE",
"321 105 OFFCURVE",
"302 105 CURVE SMOOTH",
"269 105 OFFCURVE",
"254 126 OFFCURVE",
"254 159 CURVE SMOOTH",
"254 400 LINE",
"381 400 LINE",
"381 512 LINE",
"254 512 LINE",
"254 679 LINE",
"18 400 LINE",
"119 400 LINE"
);
}
);
width = 410;
}
);
unicode = 0074;
},
{
glyphname = u;
layers = (
{
hints = (
{
place = "{65, 136}";
type = Stem;
},
{
place = "{404, 136}";
type = Stem;
},
{
horizontal = 1;
place = "{-11, 121}";
type = Stem;
},
{
horizontal = 1;
place = "{1, 21}";
target = up;
type = BottomGhost;
},
{
horizontal = 1;
place = "{512, -20}";
target = down;
type = TopGhost;
}
);
layerId = "0D3EB0FA-AC0F-4259-9DA6-5CB309C7FB4D";
paths = (
{
closed = 1;
nodes = (
"319 -11 OFFCURVE",
"368 24 OFFCURVE",
"403 68 CURVE",
"540 1 LINE",
"540 512 LINE",
"404 512 LINE",
"404 226 LINE SMOOTH",
"404 141 OFFCURVE",
"351 110 OFFCURVE",
"299 110 CURVE SMOOTH",
"247 110 OFFCURVE",
"201 142 OFFCURVE",
"201 226 CURVE SMOOTH",
"201 512 LINE",
"65 512 LINE",
"65 184 LINE SMOOTH",
"65 59 OFFCURVE",
"133 -11 OFFCURVE",
"244 -11 CURVE SMOOTH"
);
}
);
width = 604;
}
);
unicode = 0075;
},
{
glyphname = v;
layers = (
{
hints = (
{
horizontal = 1;
place = "{-2, 21}";
target = up;
type = BottomGhost;
},
{
place = "{11, 545}";
type = Stem;
}
);
layerId = "0D3EB0FA-AC0F-4259-9DA6-5CB309C7FB4D";
paths = (
{
closed = 1;
nodes = (
"556 511 LINE",
"415 511 LINE",
"285 158 LINE",
"156 511 LINE",
"11 511 LINE",
"220 -2 LINE",
"347 -2 LINE"
);
}
);
width = 566;
}
);
unicode = 0076;
},
{
glyphname = w;
layers = (
{
hints = (
{
horizontal = 1;
place = "{-2, 21}";
target = up;
type = BottomGhost;
},
{
horizontal = 1;
place = "{512, -20}";
target = down;
type = TopGhost;
},
{
horizontal = 1;
place = "{513, -20}";
target = down;
type = TopGhost;
},
{
place = "{14, 784}";
type = Stem;
}
);
layerId = "0D3EB0FA-AC0F-4259-9DA6-5CB309C7FB4D";
paths = (
{
closed = 1;
nodes = (
"14 512 LINE",
"179 -2 LINE",
"299 -2 LINE",
"405 336 LINE",
"510 -2 LINE",
"633 -2 LINE",
"798 512 LINE",
"664 512 LINE",
"567 184 LINE",
"467 513 LINE",
"347 513 LINE",
"246 184 LINE",
"149 512 LINE"
);
}
);
width = 811;
}
);
unicode = 0077;
},
{
glyphname = x;
layers = (
{
hints = (
{
horizontal = 1;
place = "{0, 21}";
target = up;
type = BottomGhost;
},
{
place = "{5, 525}";
type = Stem;
}
);
layerId = "0D3EB0FA-AC0F-4259-9DA6-5CB309C7FB4D";
paths = (
{
closed = 1;
nodes = (
"5 0 LINE",
"151 0 LINE",
"266 166 LINE",
"382 0 LINE",
"530 0 LINE",
"343 263 LINE",
"521 511 LINE",
"376 511 LINE",
"269 358 LINE",
"162 511 LINE",
"13 511 LINE",
"193 261 LINE"
);
}
);
width = 537;
}
);
unicode = 0078;
},
{
glyphname = y;
layers = (
{
hints = (
{
horizontal = 1;
place = "{-174, 21}";
target = up;
type = BottomGhost;
},
{
place = "{-3, 547}";
type = Stem;
}
);
layerId = "0D3EB0FA-AC0F-4259-9DA6-5CB309C7FB4D";
paths = (
{
closed = 1;
nodes = (
"221 -3 LINE",
"159 -174 LINE",
"278 -174 LINE",
"544 511 LINE",
"404 511 LINE",
"278 147 LINE",
"142 511 LINE",
"-3 511 LINE"
);
}
);
width = 558;
}
);
unicode = 0079;
},
{
glyphname = z;
layers = (
{
hints = (
{
place = "{22, 485}";
type = Stem;
},
{
horizontal = 1;
place = "{0, 111}";
type = Stem;
},
{
horizontal = 1;
place = "{402, 110}";
type = Stem;
},
{
horizontal = 1;
place = "{415, 97}";
type = Stem;
}
);
layerId = "0D3EB0FA-AC0F-4259-9DA6-5CB309C7FB4D";
paths = (
{
closed = 1;
nodes = (
"507 415 LINE",
"507 512 LINE",
"37 512 LINE",
"37 402 LINE",
"332 402 LINE",
"22 97 LINE",
"22 0 LINE",
"504 0 LINE",
"504 111 LINE",
"197 111 LINE"
);
}
);
width = 527;
}
);
unicode = 007A;
},
{
glyphname = braceleft;
layers = (
{
hints = (
{
horizontal = 1;
place = "{238, 100}";
type = Stem;
},
{
place = "{151, 125}";
type = Stem;
}
);
layerId = "0D3EB0FA-AC0F-4259-9DA6-5CB309C7FB4D";
paths = (
{
closed = 1;
nodes = (
"31 238 LINE",
"137 238 OFFCURVE",
"151 177 OFFCURVE",
"151 102 CURVE SMOOTH",
"151 89 LINE",
"151 77 LINE SMOOTH",
"151 -88 OFFCURVE",
"197 -132 OFFCURVE",
"383 -148 CURVE",
"389 -61 LINE",
"292 -42 OFFCURVE",
"278 5 OFFCURVE",
"278 75 CURVE SMOOTH",
"278 88 LINE SMOOTH",
"278 184 OFFCURVE",
"268 251 OFFCURVE",
"175 288 CURVE",
"268 324 OFFCURVE",
"278 382 OFFCURVE",
"278 436 CURVE SMOOTH",
"278 445 OFFCURVE",
"276 473 OFFCURVE",
"276 528 CURVE SMOOTH",
"276 606 OFFCURVE",
"320 624 OFFCURVE",
"389 637 CURVE",
"383 724 LINE",
"211 711 OFFCURVE",
"151 647 OFFCURVE",
"151 482 CURVE SMOOTH",
"151 386 OFFCURVE",
"149 338 OFFCURVE",
"31 338 CURVE"
);
}
);
width = 421;
}
);
unicode = 007B;
},
{
glyphname = bar;
layers = (
{
hints = (
{
horizontal = 1;
place = "{-148, 931}";
type = Stem;
},
{
place = "{92, 109}";
type = Stem;
}
);
layerId = "0D3EB0FA-AC0F-4259-9DA6-5CB309C7FB4D";
paths = (
{
closed = 1;
nodes = (
"92 783 LINE",
"92 -148 LINE",
"201 -148 LINE",
"201 783 LINE"
);
}
);
width = 293;
}
);
unicode = 007C;
},
{
glyphname = braceright;
layers = (
{
hints = (
{
horizontal = 1;
place = "{238, 100}";
type = Stem;
},
{
place = "{143, 127}";
type = Stem;
}
);
layerId = "0D3EB0FA-AC0F-4259-9DA6-5CB309C7FB4D";
paths = (
{
closed = 1;
nodes = (
"390 338 LINE",
"383 338 LINE SMOOTH",
"281 338 OFFCURVE",
"268 389 OFFCURVE",
"268 441 CURVE SMOOTH",
"268 450 OFFCURVE",
"271 479 OFFCURVE",
"271 530 CURVE SMOOTH",
"271 681 OFFCURVE",
"173 713 OFFCURVE",
"38 724 CURVE",
"32 637 LINE",
"129 618 OFFCURVE",
"143 578 OFFCURVE",
"143 488 CURVE SMOOTH",
"143 471 LINE SMOOTH",
"143 400 OFFCURVE",
"151 326 OFFCURVE",
"246 288 CURVE",
"152 251 OFFCURVE",
"143 176 OFFCURVE",
"143 106 CURVE SMOOTH",
"143 88 LINE",
"143 75 LINE SMOOTH",
"143 5 OFFCURVE",
"129 -42 OFFCURVE",
"32 -61 CURVE",
"38 -148 LINE",
"214 -135 OFFCURVE",
"270 -73 OFFCURVE",
"270 100 CURVE SMOOTH",
"270 193 OFFCURVE",
"274 238 OFFCURVE",
"390 238 CURVE"
);
}
);
width = 421;
}
);
unicode = 007D;
},
{
glyphname = asciitilde;
layers = (
{
hints = (
{
place = "{45, 415}";
type = Stem;
},
{
horizontal = 1;
place = "{231, 101}";
type = Stem;
},
{
horizontal = 1;
place = "{278, 101}";
type = Stem;
}
);
layerId = "0D3EB0FA-AC0F-4259-9DA6-5CB309C7FB4D";
paths = (
{
closed = 1;
nodes = (
"391 385 LINE",
"376 352 OFFCURVE",
"356 332 OFFCURVE",
"327 332 CURVE SMOOTH",
"281 332 OFFCURVE",
"233 379 OFFCURVE",
"167 379 CURVE SMOOTH",
"106 379 OFFCURVE",
"70 342 OFFCURVE",
"45 257 CURVE",
"113 225 LINE",
"129 260 OFFCURVE",
"145 278 OFFCURVE",
"176 278 CURVE SMOOTH",
"226 278 OFFCURVE",
"281 231 OFFCURVE",
"341 231 CURVE SMOOTH",
"396 231 OFFCURVE",
"436 269 OFFCURVE",
"460 352 CURVE"
);
}
);
width = 500;
}
);
unicode = 007E;
},
{
glyphname = Euro;
layers = (
{
hints = (
{
horizontal = 1;
place = "{-16, 121}";
type = Stem;
},
{
horizontal = 1;
place = "{295, 84}";
type = Stem;
},
{
horizontal = 1;
place = "{598, 121}";
type = Stem;
},
{
place = "{7, 135}";
type = Stem;
}
);
layerId = "0D3EB0FA-AC0F-4259-9DA6-5CB309C7FB4D";
paths = (
{
closed = 1;
nodes = (
"142 379 LINE",
"147 499 OFFCURVE",
"211 598 OFFCURVE",
"319 598 CURVE SMOOTH",
"371 598 OFFCURVE",
"409 576 OFFCURVE",
"444 536 CURVE",
"477 563 OFFCURVE",
"508 588 OFFCURVE",
"539 614 CURVE",
"488 678 OFFCURVE",
"422 719 OFFCURVE",
"319 719 CURVE SMOOTH",
"103 719 OFFCURVE",
"7 535 OFFCURVE",
"7 348 CURVE SMOOTH",
"7 138 OFFCURVE",
"123 -16 OFFCURVE",
"311 -16 CURVE SMOOTH",
"414 -16 OFFCURVE",
"488 25 OFFCURVE",
"541 93 CURVE",
"447 169 LINE",
"412 128 OFFCURVE",
"369 105 OFFCURVE",
"318 105 CURVE SMOOTH",
"209 105 OFFCURVE",
"159 203 OFFCURVE",
"148 295 CURVE",
"355 295 LINE",
"355 379 LINE"
);
}
);
width = 567;
}
);
unicode = 20AC;
},
{
glyphname = quotesinglbase;
layers = (
{
hints = (
{
horizontal = 1;
place = "{-154, 305}";
type = Stem;
},
{
place = "{19, 189}";
type = Stem;
}
);
layerId = "0D3EB0FA-AC0F-4259-9DA6-5CB309C7FB4D";
paths = (
{
closed = 1;
nodes = (
"208 151 LINE",
"67 151 LINE",
"19 -154 LINE",
"116 -154 LINE"
);
}
);
width = 243;
}
);
unicode = 201A;
},
{
glyphname = florin;
layers = (
{
hints = (
{
place = "{24, 422}";
type = Stem;
},
{
horizontal = 1;
place = "{350, 106}";
type = Stem;
},
{
horizontal = 1;
place = "{620, 108}";
type = Stem;
},
{
horizontal = 1;
place = "{717, -20}";
target = down;
type = TopGhost;
}
);
layerId = "0D3EB0FA-AC0F-4259-9DA6-5CB309C7FB4D";
paths = (
{
closed = 1;
nodes = (
"24 -133 LINE",
"158 -133 LINE",
"257 350 LINE",
"363 350 LINE",
"384 456 LINE",
"277 456 LINE",
"290 518 LINE SMOOTH",
"306 596 OFFCURVE",
"335 620 OFFCURVE",
"385 620 CURVE SMOOTH",
"398 620 OFFCURVE",
"414 618 OFFCURVE",
"427 614 CURVE",
"446 717 LINE",
"422 724 OFFCURVE",
"392 728 OFFCURVE",
"361 728 CURVE SMOOTH",
"261 728 OFFCURVE",
"190 681 OFFCURVE",
"161 551 CURVE SMOOTH",
"140 456 LINE",
"70 456 LINE",
"49 350 LINE",
"121 350 LINE"
);
}
);
width = 492;
}
);
unicode = 0192;
},
{
glyphname = quotedblbase;
layers = (
{
hints = (
{
horizontal = 1;
place = "{-154, 305}";
type = Stem;
},
{
place = "{18, 405}";
type = Stem;
}
);
layerId = "0D3EB0FA-AC0F-4259-9DA6-5CB309C7FB4D";
paths = (
{
closed = 1;
nodes = (
"207 151 LINE",
"67 151 LINE",
"18 -154 LINE",
"115 -154 LINE"
);
},
{
closed = 1;
nodes = (
"423 151 LINE",
"284 151 LINE",
"235 -154 LINE",
"332 -154 LINE"
);
}
);
width = 461;
}
);
unicode = 201E;
},
{
glyphname = ellipsis;
layers = (
{
hints = (
{
horizontal = 1;
place = "{-8, 161}";
type = Stem;
},
{
place = "{89, 169}";
type = Stem;
},
{
place = "{353, 169}";
type = Stem;
},
{
place = "{617, 167}";
type = Stem;
}
);
layerId = "0D3EB0FA-AC0F-4259-9DA6-5CB309C7FB4D";
paths = (
{
closed = 1;
nodes = (
"89 22 OFFCURVE",
"126 -8 OFFCURVE",
"173 -8 CURVE SMOOTH",
"220 -8 OFFCURVE",
"258 22 OFFCURVE",
"258 73 CURVE SMOOTH",
"258 124 OFFCURVE",
"220 153 OFFCURVE",
"173 153 CURVE SMOOTH",
"126 153 OFFCURVE",
"89 124 OFFCURVE",
"89 73 CURVE SMOOTH"
);
},
{
closed = 1;
nodes = (
"353 22 OFFCURVE",
"390 -8 OFFCURVE",
"437 -8 CURVE SMOOTH",
"485 -8 OFFCURVE",
"522 22 OFFCURVE",
"522 73 CURVE SMOOTH",
"522 124 OFFCURVE",
"485 153 OFFCURVE",
"437 153 CURVE SMOOTH",
"390 153 OFFCURVE",
"353 124 OFFCURVE",
"353 73 CURVE SMOOTH"
);
},
{
closed = 1;
nodes = (
"617 22 OFFCURVE",
"653 -8 OFFCURVE",
"701 -8 CURVE SMOOTH",
"748 -8 OFFCURVE",
"784 22 OFFCURVE",
"784 73 CURVE SMOOTH",
"784 124 OFFCURVE",
"748 153 OFFCURVE",
"701 153 CURVE SMOOTH",
"653 153 OFFCURVE",
"617 124 OFFCURVE",
"617 73 CURVE SMOOTH"
);
}
);
width = 873;
}
);
unicode = 2026;
},
{
glyphname = dagger;
layers = (
{
hints = (
{
horizontal = 1;
place = "{478, 74}";
type = Stem;
},
{
horizontal = 1;
place = "{708, -20}";
target = down;
type = TopGhost;
},
{
place = "{168, 77}";
type = Stem;
}
);
layerId = "0D3EB0FA-AC0F-4259-9DA6-5CB309C7FB4D";
paths = (
{
closed = 1;
nodes = (
"253 708 LINE",
"161 708 LINE",
"172 548 LINE",
"39 557 LINE",
"39 474 LINE",
"173 483 LINE",
"164 63 LINE",
"250 63 LINE",
"241 483 LINE",
"376 474 LINE",
"376 557 LINE",
"242 548 LINE"
);
}
);
width = 414;
}
);
unicode = 2020;
},
{
glyphname = daggerdbl;
layers = (
{
hints = (
{
place = "{165, 80}";
type = Stem;
},
{
place = "{171, 69}";
type = Stem;
},
{
horizontal = 1;
place = "{84, 75}";
type = Stem;
},
{
horizontal = 1;
place = "{481, 75}";
type = Stem;
},
{
horizontal = 1;
place = "{709, -20}";
target = down;
type = TopGhost;
}
);
layerId = "0D3EB0FA-AC0F-4259-9DA6-5CB309C7FB4D";
paths = (
{
closed = 1;
nodes = (
"161 -61 LINE",
"251 -61 LINE",
"241 89 LINE",
"373 80 LINE",
"373 164 LINE",
"240 155 LINE",
"243 240 OFFCURVE",
"243 401 OFFCURVE",
"240 486 CURVE",
"373 476 LINE",
"373 560 LINE",
"241 552 LINE",
"251 709 LINE",
"161 709 LINE",
"170 552 LINE",
"38 560 LINE",
"38 476 LINE",
"171 486 LINE",
"171 155 LINE",
"38 164 LINE",
"38 80 LINE",
"170 89 LINE"
);
}
);
width = 411;
}
);
unicode = 2021;
},
{
glyphname = circumflex;
layers = (
{
hints = (
{
horizontal = 1;
place = "{536, 163}";
type = Stem;
},
{
place = "{7, 333}";
type = Stem;
}
);
layerId = "0D3EB0FA-AC0F-4259-9DA6-5CB309C7FB4D";
paths = (
{
closed = 1;
nodes = (
"217 699 LINE",
"131 699 LINE",
"7 536 LINE",
"106 536 LINE",
"173 607 LINE",
"242 536 LINE",
"340 536 LINE"
);
}
);
width = 346;
}
);
unicode = 02C6;
},
{
glyphname = perthousand;
layers = (
{
hints = (
{
place = "{29, 94}";
type = Stem;
},
{
place = "{277, 94}";
type = Stem;
},
{
place = "{453, 94}";
type = Stem;
},
{
place = "{700, 94}";
type = Stem;
},
{
place = "{837, 94}";
type = Stem;
},
{
place = "{1084, 94}";
type = Stem;
},
{
horizontal = 1;
place = "{-11, 85}";
type = Stem;
},
{
horizontal = 1;
place = "{0, 21}";
target = up;
type = BottomGhost;
},
{
horizontal = 1;
place = "{269, 84}";
type = Stem;
},
{
horizontal = 1;
place = "{346, 84}";
type = Stem;
},
{
horizontal = 1;
place = "{626, 84}";
type = Stem;
}
);
layerId = "0D3EB0FA-AC0F-4259-9DA6-5CB309C7FB4D";
paths = (
{
closed = 1;
nodes = (
"371 630 OFFCURVE",
"302 710 OFFCURVE",
"201 710 CURVE SMOOTH",
"100 710 OFFCURVE",
"29 628 OFFCURVE",
"29 528 CURVE SMOOTH",
"29 429 OFFCURVE",
"97 346 OFFCURVE",
"200 346 CURVE SMOOTH",
"301 346 OFFCURVE",
"371 429 OFFCURVE",
"371 529 CURVE SMOOTH"
);
},
{
closed = 1;
nodes = (
"617 701 LINE",
"104 0 LINE",
"215 0 LINE",
"344 186 OFFCURVE",
"595 513 OFFCURVE",
"727 701 CURVE"
);
},
{
closed = 1;
nodes = (
"277 472 OFFCURVE",
"246 430 OFFCURVE",
"201 430 CURVE SMOOTH",
"157 430 OFFCURVE",
"123 472 OFFCURVE",
"123 529 CURVE SMOOTH",
"123 586 OFFCURVE",
"153 626 OFFCURVE",
"198 626 CURVE SMOOTH",
"246 626 OFFCURVE",
"277 584 OFFCURVE",
"277 528 CURVE SMOOTH"
);
},
{
closed = 1;
nodes = (
"794 273 OFFCURVE",
"724 353 OFFCURVE",
"624 353 CURVE SMOOTH",
"523 353 OFFCURVE",
"453 274 OFFCURVE",
"453 171 CURVE SMOOTH",
"453 72 OFFCURVE",
"522 -11 OFFCURVE",
"623 -11 CURVE SMOOTH",
"724 -11 OFFCURVE",
"794 74 OFFCURVE",
"794 173 CURVE SMOOTH"
);
},
{
closed = 1;
nodes = (
"1178 273 OFFCURVE",
"1109 353 OFFCURVE",
"1009 353 CURVE SMOOTH",
"907 353 OFFCURVE",
"837 274 OFFCURVE",
"837 171 CURVE SMOOTH",
"837 72 OFFCURVE",
"907 -11 OFFCURVE",
"1008 -11 CURVE SMOOTH",
"1108 -11 OFFCURVE",
"1178 74 OFFCURVE",
"1178 173 CURVE SMOOTH"
);
},
{
closed = 1;
nodes = (
"700 114 OFFCURVE",
"672 74 OFFCURVE",
"624 74 CURVE SMOOTH",
"580 74 OFFCURVE",
"547 116 OFFCURVE",
"547 173 CURVE SMOOTH",
"547 229 OFFCURVE",
"578 269 OFFCURVE",
"623 269 CURVE SMOOTH",
"668 269 OFFCURVE",
"700 230 OFFCURVE",
"700 170 CURVE SMOOTH"
);
},
{
closed = 1;
nodes = (
"1084 114 OFFCURVE",
"1056 74 OFFCURVE",
"1009 74 CURVE SMOOTH",
"964 74 OFFCURVE",
"931 116 OFFCURVE",
"931 173 CURVE SMOOTH",
"931 229 OFFCURVE",
"961 269 OFFCURVE",
"1008 269 CURVE SMOOTH",
"1052 269 OFFCURVE",
"1084 230 OFFCURVE",
"1084 170 CURVE SMOOTH"
);
}
);
width = 1209;
}
);
unicode = 2030;
},
{
glyphname = guilsinglleft;
layers = (
{
hints = (
{
horizontal = 1;
place = "{38, 441}";
type = Stem;
},
{
place = "{29, 268}";
type = Stem;
}
);
layerId = "0D3EB0FA-AC0F-4259-9DA6-5CB309C7FB4D";
paths = (
{
closed = 1;
nodes = (
"167 259 LINE",
"297 436 LINE",
"192 479 LINE",
"29 257 LINE",
"191 38 LINE",
"296 83 LINE"
);
}
);
width = 320;
}
);
unicode = 2039;
},
{
glyphname = quoteleft;
layers = (
{
hints = (
{
horizontal = 1;
place = "{706, -20}";
target = down;
type = TopGhost;
},
{
place = "{31, 189}";
type = Stem;
}
);
layerId = "0D3EB0FA-AC0F-4259-9DA6-5CB309C7FB4D";
paths = (
{
closed = 1;
nodes = (
"31 402 LINE",
"171 402 LINE",
"220 706 LINE",
"122 706 LINE"
);
}
);
width = 243;
}
);
unicode = 2018;
},
{
glyphname = quoteright;
layers = (
{
hints = (
{
horizontal = 1;
place = "{703, -20}";
target = down;
type = TopGhost;
},
{
place = "{30, 189}";
type = Stem;
}
);
layerId = "0D3EB0FA-AC0F-4259-9DA6-5CB309C7FB4D";
paths = (
{
closed = 1;
nodes = (
"219 703 LINE",
"79 703 LINE",
"30 399 LINE",
"127 399 LINE"
);
}
);
width = 242;
}
);
unicode = 2019;
},
{
glyphname = quotedblleft;
layers = (
{
hints = (
{
place = "{30, 405}";
type = Stem;
},
{
horizontal = 1;
place = "{402, 304}";
type = Stem;
},
{
horizontal = 1;
place = "{706, -20}";
target = down;
type = TopGhost;
}
);
layerId = "0D3EB0FA-AC0F-4259-9DA6-5CB309C7FB4D";
paths = (
{
closed = 1;
nodes = (
"30 402 LINE",
"170 402 LINE",
"219 706 LINE",
"121 706 LINE"
);
},
{
closed = 1;
nodes = (
"247 402 LINE",
"387 402 LINE",
"435 706 LINE",
"338 706 LINE"
);
}
);
width = 457;
}
);
unicode = 201C;
},
{
glyphname = quotedblright;
layers = (
{
hints = (
{
place = "{29, 405}";
type = Stem;
},
{
horizontal = 1;
place = "{399, 304}";
type = Stem;
},
{
horizontal = 1;
place = "{703, -20}";
target = down;
type = TopGhost;
}
);
layerId = "0D3EB0FA-AC0F-4259-9DA6-5CB309C7FB4D";
paths = (
{
closed = 1;
nodes = (
"218 703 LINE",
"78 703 LINE",
"29 399 LINE",
"126 399 LINE"
);
},
{
closed = 1;
nodes = (
"434 703 LINE",
"295 703 LINE",
"246 399 LINE",
"343 399 LINE"
);
}
);
width = 457;
}
);
unicode = 201D;
},
{
glyphname = bullet;
layers = (
{
hints = (
{
horizontal = 1;
place = "{512, -20}";
target = down;
type = TopGhost;
},
{
place = "{39, 317}";
type = Stem;
}
);
layerId = "0D3EB0FA-AC0F-4259-9DA6-5CB309C7FB4D";
paths = (
{
closed = 1;
nodes = (
"39 267 OFFCURVE",
"112 195 OFFCURVE",
"197 195 CURVE SMOOTH",
"285 195 OFFCURVE",
"356 266 OFFCURVE",
"356 353 CURVE SMOOTH",
"356 441 OFFCURVE",
"284 512 OFFCURVE",
"197 512 CURVE SMOOTH",
"110 512 OFFCURVE",
"39 439 OFFCURVE",
"39 352 CURVE SMOOTH"
);
}
);
width = 395;
}
);
unicode = 2022;
},
{
glyphname = endash;
layers = (
{
hints = (
{
horizontal = 1;
place = "{239, 119}";
type = Stem;
},
{
place = "{31, 443}";
type = Stem;
}
);
layerId = "0D3EB0FA-AC0F-4259-9DA6-5CB309C7FB4D";
paths = (
{
closed = 1;
nodes = (
"474 358 LINE",
"31 358 LINE",
"31 239 LINE",
"474 239 LINE"
);
}
);
width = 506;
}
);
unicode = 2013;
},
{
glyphname = emdash;
layers = (
{
hints = (
{
horizontal = 1;
place = "{239, 119}";
type = Stem;
},
{
place = "{31, 751}";
type = Stem;
}
);
layerId = "0D3EB0FA-AC0F-4259-9DA6-5CB309C7FB4D";
paths = (
{
closed = 1;
nodes = (
"782 358 LINE",
"31 358 LINE",
"31 239 LINE",
"782 239 LINE"
);
}
);
width = 813;
}
);
unicode = 2014;
},
{
glyphname = tilde;
layers = (
{
hints = (
{
place = "{11, 354}";
type = Stem;
},
{
horizontal = 1;
place = "{544, 94}";
type = Stem;
},
{
horizontal = 1;
place = "{580, 94}";
type = Stem;
}
);
layerId = "0D3EB0FA-AC0F-4259-9DA6-5CB309C7FB4D";
paths = (
{
closed = 1;
nodes = (
"90 534 LINE",
"101 569 OFFCURVE",
"117 580 OFFCURVE",
"136 580 CURVE SMOOTH",
"171 580 OFFCURVE",
"209 544 OFFCURVE",
"255 544 CURVE SMOOTH",
"311 544 OFFCURVE",
"344 593 OFFCURVE",
"365 668 CURVE",
"288 683 LINE",
"279 651 OFFCURVE",
"266 638 OFFCURVE",
"249 638 CURVE SMOOTH",
"218 638 OFFCURVE",
"175 674 OFFCURVE",
"128 674 CURVE SMOOTH",
"71 674 OFFCURVE",
"32 623 OFFCURVE",
"11 548 CURVE"
);
}
);
width = 375;
}
);
unicode = 02DC;
},
{
glyphname = trademark;
layers = (
{
hints = (
{
horizontal = 1;
place = "{618, 88}";
type = Stem;
},
{
place = "{156, 96}";
type = Stem;
},
{
place = "{431, 95}";
type = Stem;
},
{
place = "{790, 96}";
type = Stem;
}
);
layerId = "0D3EB0FA-AC0F-4259-9DA6-5CB309C7FB4D";
paths = (
{
closed = 1;
nodes = (
"378 706 LINE",
"29 706 LINE",
"29 618 LINE",
"156 618 LINE",
"156 292 LINE",
"252 292 LINE",
"252 618 LINE",
"378 618 LINE"
);
},
{
closed = 1;
nodes = (
"886 706 LINE",
"768 706 LINE",
"659 455 LINE",
"551 706 LINE",
"431 706 LINE",
"431 292 LINE",
"526 292 LINE",
"526 535 LINE",
"628 292 LINE",
"688 292 LINE",
"790 534 LINE",
"790 292 LINE",
"886 292 LINE"
);
}
);
width = 897;
}
);
unicode = 2122;
},
{
glyphname = guilsinglright;
layers = (
{
hints = (
{
horizontal = 1;
place = "{38, 441}";
type = Stem;
},
{
place = "{24, 268}";
type = Stem;
}
);
layerId = "0D3EB0FA-AC0F-4259-9DA6-5CB309C7FB4D";
paths = (
{
closed = 1;
nodes = (
"26 83 LINE",
"130 38 LINE",
"292 257 LINE",
"129 479 LINE",
"24 436 LINE",
"154 259 LINE"
);
}
);
width = 320;
}
);
unicode = 203A;
},
{
glyphname = exclamdown;
layers = (
{
hints = (
{
place = "{51, 168}";
type = Stem;
},
{
place = "{57, 154}";
type = Stem;
},
{
horizontal = 1;
place = "{514, 155}";
type = Stem;
}
);
layerId = "0D3EB0FA-AC0F-4259-9DA6-5CB309C7FB4D";
paths = (
{
closed = 1;
nodes = (
"219 641 OFFCURVE",
"180 669 OFFCURVE",
"135 669 CURVE SMOOTH",
"88 669 OFFCURVE",
"51 641 OFFCURVE",
"51 592 CURVE SMOOTH",
"51 543 OFFCURVE",
"88 514 OFFCURVE",
"135 514 CURVE SMOOTH",
"180 514 OFFCURVE",
"219 543 OFFCURVE",
"219 592 CURVE SMOOTH"
);
},
{
closed = 1;
nodes = (
"213 -45 LINE",
"211 61 LINE",
"174 443 LINE",
"96 443 LINE",
"59 61 LINE",
"56 -45 LINE"
);
}
);
width = 268;
}
);
unicode = 00A1;
},
{
glyphname = cent;
layers = (
{
hints = (
{
horizontal = 1;
place = "{-10, 21}";
target = up;
type = BottomGhost;
},
{
horizontal = 1;
place = "{74, 108}";
type = Stem;
},
{
horizontal = 1;
place = "{491, 190}";
type = Stem;
},
{
place = "{77, 123}";
type = Stem;
},
{
place = "{342, 88}";
type = Stem;
}
);
layerId = "0D3EB0FA-AC0F-4259-9DA6-5CB309C7FB4D";
paths = (
{
closed = 1;
nodes = (
"497 561 LINE",
"473 577 OFFCURVE",
"449 589 OFFCURVE",
"425 594 CURVE",
"436 681 LINE",
"347 681 LINE",
"337 605 LINE",
"182 602 OFFCURVE",
"77 487 OFFCURVE",
"77 338 CURVE SMOOTH",
"77 221 OFFCURVE",
"151 119 OFFCURVE",
"261 87 CURVE",
"247 -10 LINE",
"337 -10 LINE",
"349 74 LINE",
"410 75 OFFCURVE",
"459 92 OFFCURVE",
"498 123 CURVE",
"498 248 LINE",
"465 212 OFFCURVE",
"415 182 OFFCURVE",
"359 182 CURVE",
"402 491 LINE",
"439 486 OFFCURVE",
"474 464 OFFCURVE",
"497 437 CURVE"
);
},
{
closed = 1;
nodes = (
"282 195 LINE",
"230 223 OFFCURVE",
"200 271 OFFCURVE",
"200 340 CURVE SMOOTH",
"200 431 OFFCURVE",
"248 488 OFFCURVE",
"324 496 CURVE"
);
}
);
width = 578;
}
);
unicode = 00A2;
},
{
glyphname = sterling;
layers = (
{
hints = (
{
horizontal = 1;
place = "{0, 113}";
type = Stem;
},
{
horizontal = 1;
place = "{284, 102}";
type = Stem;
},
{
horizontal = 1;
place = "{590, 125}";
type = Stem;
},
{
place = "{126, 139}";
type = Stem;
}
);
layerId = "0D3EB0FA-AC0F-4259-9DA6-5CB309C7FB4D";
paths = (
{
closed = 1;
nodes = (
"498 386 LINE",
"265 386 LINE",
"265 463 LINE SMOOTH",
"265 534 OFFCURVE",
"299 590 OFFCURVE",
"374 590 CURVE SMOOTH",
"425 590 OFFCURVE",
"459 569 OFFCURVE",
"492 530 CURVE",
"584 616 LINE",
"535 675 OFFCURVE",
"467 715 OFFCURVE",
"368 715 CURVE SMOOTH",
"213 715 OFFCURVE",
"126 612 OFFCURVE",
"126 463 CURVE SMOOTH",
"126 386 LINE",
"55 386 LINE",
"55 284 LINE",
"126 284 LINE",
"126 0 LINE",
"577 0 LINE",
"577 113 LINE",
"265 113 LINE",
"265 284 LINE",
"498 284 LINE"
);
}
);
width = 632;
}
);
unicode = 00A3;
},
{
glyphname = currency;
layers = (
{
hints = (
{
horizontal = 1;
place = "{72, 95}";
type = Stem;
},
{
horizontal = 1;
place = "{491, 95}";
type = Stem;
},
{
place = "{71, 103}";
type = Stem;
},
{
place = "{485, 104}";
type = Stem;
}
);
layerId = "0D3EB0FA-AC0F-4259-9DA6-5CB309C7FB4D";
paths = (
{
closed = 1;
nodes = (
"570 632 LINE",
"477 541 LINE",
"436 570 OFFCURVE",
"386 586 OFFCURVE",
"330 586 CURVE SMOOTH",
"274 586 OFFCURVE",
"225 571 OFFCURVE",
"181 540 CURVE",
"86 632 LINE",
"23 567 LINE",
"115 475 LINE",
"83 430 OFFCURVE",
"71 384 OFFCURVE",
"71 329 CURVE SMOOTH",
"71 270 OFFCURVE",
"87 222 OFFCURVE",
"118 181 CURVE",
"23 86 LINE",
"86 21 LINE",
"184 116 LINE",
"229 87 OFFCURVE",
"277 72 OFFCURVE",
"330 72 CURVE SMOOTH",
"383 72 OFFCURVE",
"432 87 OFFCURVE",
"476 115 CURVE",
"571 21 LINE",
"635 86 LINE",
"542 178 LINE",
"573 222 OFFCURVE",
"589 270 OFFCURVE",
"589 329 CURVE SMOOTH",
"589 386 OFFCURVE",
"573 430 OFFCURVE",
"544 477 CURVE",
"635 567 LINE"
);
},
{
closed = 1;
nodes = (
"423 491 OFFCURVE",
"485 420 OFFCURVE",
"485 328 CURVE SMOOTH",
"485 239 OFFCURVE",
"423 167 OFFCURVE",
"330 167 CURVE SMOOTH",
"236 167 OFFCURVE",
"174 238 OFFCURVE",
"174 329 CURVE SMOOTH",
"174 417 OFFCURVE",
"236 491 OFFCURVE",
"330 491 CURVE SMOOTH"
);
}
);
width = 656;
}
);
unicode = 00A4;
},
{
glyphname = yen;
layers = (
{
hints = (
{
place = "{261, 136}";
type = Stem;
},
{
horizontal = 1;
place = "{0, 213}";
type = Stem;
},
{
horizontal = 1;
place = "{120, 93}";
type = Stem;
},
{
horizontal = 1;
place = "{283, 94}";
type = Stem;
},
{
horizontal = 1;
place = "{703, -20}";
target = down;
type = TopGhost;
}
);
layerId = "0D3EB0FA-AC0F-4259-9DA6-5CB309C7FB4D";
paths = (
{
closed = 1;
nodes = (
"76 213 LINE",
"76 120 LINE",
"261 120 LINE",
"261 0 LINE",
"397 0 LINE",
"397 120 LINE",
"581 120 LINE",
"581 213 LINE",
"398 213 LINE",
"406 283 LINE",
"581 283 LINE",
"581 377 LINE",
"440 377 LINE",
"651 703 LINE",
"496 703 LINE",
"331 421 LINE",
"166 703 LINE",
"7 703 LINE",
"218 377 LINE",
"76 377 LINE",
"76 283 LINE",
"251 283 LINE",
"261 213 LINE"
);
}
);
width = 657;
}
);
unicode = 00A5;
},
{
glyphname = brokenbar;
layers = (
{
hints = (
{
horizontal = 1;
place = "{-174, 21}";
target = up;
type = BottomGhost;
},
{
place = "{92, 121}";
type = Stem;
}
);
layerId = "0D3EB0FA-AC0F-4259-9DA6-5CB309C7FB4D";
paths = (
{
closed = 1;
nodes = (
"92 674 LINE",
"92 325 LINE",
"213 325 LINE",
"213 674 LINE"
);
},
{
closed = 1;
nodes = (
"92 173 LINE",
"92 -174 LINE",
"213 -174 LINE",
"213 173 LINE"
);
}
);
width = 305;
}
);
unicode = 00A6;
},
{
glyphname = section;
layers = (
{
hints = (
{
place = "{52, 111}";
type = Stem;
},
{
place = "{99, 128}";
type = Stem;
},
{
place = "{384, 127}";
type = Stem;
},
{
place = "{447, 111}";
type = Stem;
},
{
horizontal = 1;
place = "{-50, 99}";
type = Stem;
},
{
horizontal = 1;
place = "{-4, 21}";
target = up;
type = BottomGhost;
},
{
horizontal = 1;
place = "{619, 99}";
type = Stem;
}
);
layerId = "0D3EB0FA-AC0F-4259-9DA6-5CB309C7FB4D";
paths = (
{
closed = 1;
nodes = (
"467 675 LINE",
"423 702 OFFCURVE",
"370 718 OFFCURVE",
"306 718 CURVE SMOOTH",
"179 718 OFFCURVE",
"99 653 OFFCURVE",
"99 568 CURVE SMOOTH",
"99 521 OFFCURVE",
"125 482 OFFCURVE",
"160 458 CURVE",
"92 439 OFFCURVE",
"52 399 OFFCURVE",
"52 340 CURVE SMOOTH",
"52 266 OFFCURVE",
"125 216 OFFCURVE",
"257 184 CURVE",
"341 161 OFFCURVE",
"384 135 OFFCURVE",
"384 103 CURVE SMOOTH",
"384 68 OFFCURVE",
"357 49 OFFCURVE",
"306 49 CURVE SMOOTH",
"246 49 OFFCURVE",
"187 72 OFFCURVE",
"139 115 CURVE",
"139 -4 LINE",
"183 -32 OFFCURVE",
"239 -50 OFFCURVE",
"304 -50 CURVE SMOOTH",
"435 -50 OFFCURVE",
"511 18 OFFCURVE",
"511 106 CURVE SMOOTH",
"511 149 OFFCURVE",
"491 186 OFFCURVE",
"452 214 CURVE",
"517 234 OFFCURVE",
"558 272 OFFCURVE",
"558 332 CURVE SMOOTH",
"558 407 OFFCURVE",
"491 448 OFFCURVE",
"351 488 CURVE",
"256 517 OFFCURVE",
"227 542 OFFCURVE",
"227 569 CURVE SMOOTH",
"227 602 OFFCURVE",
"258 619 OFFCURVE",
"307 619 CURVE SMOOTH",
"366 619 OFFCURVE",
"416 596 OFFCURVE",
"467 557 CURVE"
);
},
{
closed = 1;
nodes = (
"447 279 OFFCURVE",
"417 258 OFFCURVE",
"372 258 CURVE",
"283 266 OFFCURVE",
"163 303 OFFCURVE",
"163 358 CURVE SMOOTH",
"163 393 OFFCURVE",
"194 410 OFFCURVE",
"239 414 CURVE",
"295 409 OFFCURVE",
"447 370 OFFCURVE",
"447 310 CURVE SMOOTH"
);
}
);
width = 608;
}
);
unicode = 00A7;
},
{
glyphname = dieresis;
layers = (
{
hints = (
{
horizontal = 1;
place = "{540, 145}";
type = Stem;
},
{
place = "{-18, 148}";
type = Stem;
},
{
place = "{192, 146}";
type = Stem;
}
);
layerId = "0D3EB0FA-AC0F-4259-9DA6-5CB309C7FB4D";
paths = (
{
closed = 1;
nodes = (
"-18 568 OFFCURVE",
"15 540 OFFCURVE",
"56 540 CURVE SMOOTH",
"97 540 OFFCURVE",
"130 568 OFFCURVE",
"130 613 CURVE SMOOTH",
"130 657 OFFCURVE",
"97 685 OFFCURVE",
"56 685 CURVE SMOOTH",
"15 685 OFFCURVE",
"-18 657 OFFCURVE",
"-18 613 CURVE SMOOTH"
);
},
{
closed = 1;
nodes = (
"192 568 OFFCURVE",
"224 540 OFFCURVE",
"264 540 CURVE SMOOTH",
"307 540 OFFCURVE",
"338 568 OFFCURVE",
"338 613 CURVE SMOOTH",
"338 657 OFFCURVE",
"307 685 OFFCURVE",
"264 685 CURVE SMOOTH",
"224 685 OFFCURVE",
"192 657 OFFCURVE",
"192 613 CURVE SMOOTH"
);
}
);
width = 321;
}
);
unicode = 00A8;
},
{
glyphname = copyright;
layers = (
{
hints = (
{
horizontal = 1;
place = "{-39, 55}";
type = Stem;
},
{
horizontal = 1;
place = "{131, 92}";
type = Stem;
},
{
horizontal = 1;
place = "{468, 93}";
type = Stem;
},
{
horizontal = 1;
place = "{666, 54}";
type = Stem;
},
{
place = "{38, 53}";
type = Stem;
},
{
place = "{208, 106}";
type = Stem;
},
{
place = "{737, 53}";
type = Stem;
}
);
layerId = "0D3EB0FA-AC0F-4259-9DA6-5CB309C7FB4D";
paths = (
{
closed = 1;
nodes = (
"624 -39 OFFCURVE",
"790 135 OFFCURVE",
"790 342 CURVE SMOOTH",
"790 550 OFFCURVE",
"623 720 OFFCURVE",
"414 720 CURVE SMOOTH",
"206 720 OFFCURVE",
"38 548 OFFCURVE",
"38 343 CURVE SMOOTH",
"38 135 OFFCURVE",
"202 -39 OFFCURVE",
"414 -39 CURVE SMOOTH"
);
},
{
closed = 1;
nodes = (
"233 16 OFFCURVE",
"91 163 OFFCURVE",
"91 342 CURVE SMOOTH",
"91 519 OFFCURVE",
"234 666 OFFCURVE",
"415 666 CURVE SMOOTH",
"595 666 OFFCURVE",
"737 521 OFFCURVE",
"737 342 CURVE SMOOTH",
"737 163 OFFCURVE",
"594 16 OFFCURVE",
"414 16 CURVE SMOOTH"
);
},
{
closed = 1;
nodes = (
"536 268 LINE",
"501 237 OFFCURVE",
"465 223 OFFCURVE",
"429 223 CURVE SMOOTH",
"362 223 OFFCURVE",
"314 278 OFFCURVE",
"314 347 CURVE SMOOTH",
"314 416 OFFCURVE",
"365 468 OFFCURVE",
"429 468 CURVE SMOOTH",
"470 468 OFFCURVE",
"508 450 OFFCURVE",
"535 423 CURVE",
"535 528 LINE",
"510 545 OFFCURVE",
"471 561 OFFCURVE",
"424 561 CURVE SMOOTH",
"298 561 OFFCURVE",
"208 465 OFFCURVE",
"208 347 CURVE SMOOTH",
"208 228 OFFCURVE",
"298 131 OFFCURVE",
"420 131 CURVE SMOOTH",
"468 131 OFFCURVE",
"505 147 OFFCURVE",
"536 168 CURVE"
);
}
);
width = 826;
}
);
unicode = 00A9;
},
{
glyphname = ordfeminine;
layers = (
{
hints = (
{
horizontal = 1;
place = "{281, 62}";
type = Stem;
},
{
horizontal = 1;
place = "{405, 54}";
type = Stem;
},
{
horizontal = 1;
place = "{547, 44}";
type = Stem;
},
{
horizontal = 1;
place = "{644, 63}";
type = Stem;
},
{
place = "{38, 76}";
type = Stem;
},
{
place = "{233, 77}";
type = Stem;
}
);
layerId = "0D3EB0FA-AC0F-4259-9DA6-5CB309C7FB4D";
paths = (
{
closed = 1;
nodes = (
"180 405 OFFCURVE",
"212 421 OFFCURVE",
"233 448 CURVE",
"233 411 LINE",
"310 411 LINE",
"310 583 LINE SMOOTH",
"310 666 OFFCURVE",
"263 707 OFFCURVE",
"175 707 CURVE SMOOTH",
"132 707 OFFCURVE",
"95 698 OFFCURVE",
"63 683 CURVE",
"81 624 LINE",
"108 636 OFFCURVE",
"135 644 OFFCURVE",
"164 644 CURVE SMOOTH",
"209 644 OFFCURVE",
"233 624 OFFCURVE",
"233 584 CURVE SMOOTH",
"233 578 LINE",
"212 586 OFFCURVE",
"189 591 OFFCURVE",
"158 591 CURVE SMOOTH",
"86 591 OFFCURVE",
"38 560 OFFCURVE",
"38 496 CURVE SMOOTH",
"38 437 OFFCURVE",
"88 405 OFFCURVE",
"141 405 CURVE SMOOTH"
);
},
{
closed = 1;
nodes = (
"136 459 OFFCURVE",
"114 474 OFFCURVE",
"114 501 CURVE SMOOTH",
"114 529 OFFCURVE",
"137 547 OFFCURVE",
"176 547 CURVE SMOOTH",
"199 547 OFFCURVE",
"218 542 OFFCURVE",
"234 535 CURVE",
"234 518 LINE SMOOTH",
"234 482 OFFCURVE",
"201 459 OFFCURVE",
"165 459 CURVE SMOOTH"
);
},
{
closed = 1;
nodes = (
"35 281 LINE",
"315 281 LINE",
"315 343 LINE",
"35 343 LINE"
);
}
);
width = 355;
}
);
unicode = 00AA;
},
{
glyphname = guillemotleft;
layers = (
{
hints = (
{
horizontal = 1;
place = "{38, 441}";
type = Stem;
},
{
place = "{29, 510}";
type = Stem;
}
);
layerId = "0D3EB0FA-AC0F-4259-9DA6-5CB309C7FB4D";
paths = (
{
closed = 1;
nodes = (
"167 259 LINE",
"297 436 LINE",
"192 479 LINE",
"29 257 LINE",
"191 38 LINE",
"296 83 LINE"
);
},
{
closed = 1;
nodes = (
"409 259 LINE",
"539 436 LINE",
"434 479 LINE",
"271 257 LINE",
"433 38 LINE",
"538 83 LINE"
);
}
);
width = 562;
}
);
unicode = 00AB;
},
{
glyphname = logicalnot;
layers = (
{
hints = (
{
horizontal = 1;
place = "{308, 105}";
type = Stem;
},
{
place = "{454, 108}";
type = Stem;
}
);
layerId = "0D3EB0FA-AC0F-4259-9DA6-5CB309C7FB4D";
paths = (
{
closed = 1;
nodes = (
"562 413 LINE",
"42 413 LINE",
"42 308 LINE",
"454 308 LINE",
"454 127 LINE",
"562 127 LINE"
);
}
);
width = 604;
}
);
unicode = 00AC;
},
{
glyphname = registered;
layers = (
{
hints = (
{
horizontal = 1;
place = "{-1, 51}";
type = Stem;
},
{
horizontal = 1;
place = "{312, 74}";
type = Stem;
},
{
horizontal = 1;
place = "{492, 77}";
type = Stem;
},
{
horizontal = 1;
place = "{670, 50}";
type = Stem;
},
{
place = "{51, 53}";
type = Stem;
},
{
place = "{269, 89}";
type = Stem;
},
{
place = "{487, 86}";
type = Stem;
},
{
place = "{721, 53}";
type = Stem;
}
);
layerId = "0D3EB0FA-AC0F-4259-9DA6-5CB309C7FB4D";
paths = (
{
closed = 1;
nodes = (
"51 164 OFFCURVE",
"211 -1 OFFCURVE",
"413 -1 CURVE SMOOTH",
"611 -1 OFFCURVE",
"774 165 OFFCURVE",
"774 361 CURVE SMOOTH",
"774 557 OFFCURVE",
"613 720 OFFCURVE",
"415 720 CURVE SMOOTH",
"212 720 OFFCURVE",
"51 559 OFFCURVE",
"51 361 CURVE SMOOTH"
);
},
{
closed = 1;
nodes = (
"104 531 OFFCURVE",
"240 670 OFFCURVE",
"415 670 CURVE SMOOTH",
"585 670 OFFCURVE",
"721 531 OFFCURVE",
"721 362 CURVE SMOOTH",
"721 193 OFFCURVE",
"585 50 OFFCURVE",
"413 50 CURVE SMOOTH",
"238 50 OFFCURVE",
"104 189 OFFCURVE",
"104 360 CURVE SMOOTH"
);
},
{
closed = 1;
nodes = (
"269 163 LINE",
"358 163 LINE",
"358 312 LINE",
"388 312 LINE",
"498 163 LINE",
"601 163 LINE",
"480 324 LINE",
"531 340 OFFCURVE",
"573 384 OFFCURVE",
"573 444 CURVE SMOOTH",
"573 519 OFFCURVE",
"517 569 OFFCURVE",
"429 569 CURVE SMOOTH",
"269 569 LINE"
);
},
{
closed = 1;
nodes = (
"358 386 LINE",
"358 492 LINE",
"420 492 LINE SMOOTH",
"464 492 OFFCURVE",
"487 467 OFFCURVE",
"487 439 CURVE SMOOTH",
"487 407 OFFCURVE",
"459 386 OFFCURVE",
"420 386 CURVE SMOOTH"
);
}
);
width = 825;
}
);
unicode = 00AE;
},
{
glyphname = degree;
layers = (
{
hints = (
{
horizontal = 1;
place = "{387, 73}";
type = Stem;
},
{
horizontal = 1;
place = "{637, 73}";
type = Stem;
},
{
place = "{28, 77}";
type = Stem;
},
{
place = "{280, 78}";
type = Stem;
}
);
layerId = "0D3EB0FA-AC0F-4259-9DA6-5CB309C7FB4D";
paths = (
{
closed = 1;
nodes = (
"358 638 OFFCURVE",
"281 710 OFFCURVE",
"193 710 CURVE SMOOTH",
"105 710 OFFCURVE",
"28 637 OFFCURVE",
"28 548 CURVE SMOOTH",
"28 459 OFFCURVE",
"102 387 OFFCURVE",
"193 387 CURVE SMOOTH",
"282 387 OFFCURVE",
"358 459 OFFCURVE",
"358 549 CURVE SMOOTH"
);
},
{
closed = 1;
nodes = (
"280 498 OFFCURVE",
"242 460 OFFCURVE",
"193 460 CURVE SMOOTH",
"142 460 OFFCURVE",
"105 500 OFFCURVE",
"105 549 CURVE SMOOTH",
"105 597 OFFCURVE",
"144 637 OFFCURVE",
"193 637 CURVE SMOOTH",
"241 637 OFFCURVE",
"280 597 OFFCURVE",
"280 549 CURVE SMOOTH"
);
}
);
width = 384;
}
);
unicode = 00B0;
},
{
glyphname = plusminus;
layers = (
{
hints = (
{
horizontal = 1;
place = "{17, 100}";
type = Stem;
},
{
horizontal = 1;
place = "{331, 100}";
type = Stem;
},
{
place = "{235, 101}";
type = Stem;
}
);
layerId = "0D3EB0FA-AC0F-4259-9DA6-5CB309C7FB4D";
paths = (
{
closed = 1;
nodes = (
"42 331 LINE",
"235 331 LINE",
"235 177 LINE",
"336 177 LINE",
"336 331 LINE",
"528 331 LINE",
"528 431 LINE",
"336 431 LINE",
"336 585 LINE",
"235 585 LINE",
"235 431 LINE",
"42 431 LINE"
);
},
{
closed = 1;
nodes = (
"42 17 LINE",
"528 17 LINE",
"528 117 LINE",
"42 117 LINE"
);
}
);
width = 569;
}
);
unicode = 00B1;
},
{
glyphname = acute;
layers = (
{
hints = (
{
horizontal = 1;
place = "{704, -20}";
target = down;
type = TopGhost;
},
{
place = "{87, 234}";
type = Stem;
}
);
layerId = "0D3EB0FA-AC0F-4259-9DA6-5CB309C7FB4D";
paths = (
{
closed = 1;
nodes = (
"321 704 LINE",
"184 742 LINE",
"87 575 LINE",
"183 575 LINE"
);
}
);
width = 323;
}
);
unicode = 00B4;
},
{
glyphname = paragraph;
layers = (
{
hints = (
{
horizontal = 1;
place = "{615, 91}";
type = Stem;
},
{
place = "{213, 96}";
type = Stem;
},
{
place = "{387, 96}";
type = Stem;
}
);
layerId = "0D3EB0FA-AC0F-4259-9DA6-5CB309C7FB4D";
paths = (
{
closed = 1;
nodes = (
"309 -109 LINE",
"309 615 LINE",
"387 615 LINE",
"387 -109 LINE",
"483 -109 LINE",
"483 615 LINE",
"527 615 LINE",
"549 706 LINE",
"247 706 LINE SMOOTH",
"112 706 OFFCURVE",
"33 636 OFFCURVE",
"33 517 CURVE SMOOTH",
"33 400 OFFCURVE",
"116 351 OFFCURVE",
"213 335 CURVE",
"213 -109 LINE"
);
}
);
width = 629;
}
);
unicode = 00B6;
},
{
glyphname = cedilla;
layers = (
{
hints = (
{
horizontal = 1;
place = "{-219, 58}";
type = Stem;
},
{
horizontal = 1;
place = "{-96, 41}";
type = Stem;
},
{
place = "{190, 80}";
type = Stem;
}
);
layerId = "0D3EB0FA-AC0F-4259-9DA6-5CB309C7FB4D";
paths = (
{
closed = 1;
nodes = (
"220 15 LINE",
"153 15 LINE",
"88 -85 LINE",
"112 -104 LINE",
"125 -99 OFFCURVE",
"137 -96 OFFCURVE",
"150 -96 CURVE SMOOTH",
"174 -96 OFFCURVE",
"190 -105 OFFCURVE",
"190 -124 CURVE SMOOTH",
"190 -151 OFFCURVE",
"151 -161 OFFCURVE",
"131 -161 CURVE SMOOTH",
"114 -161 OFFCURVE",
"93 -157 OFFCURVE",
"70 -148 CURVE",
"52 -196 LINE",
"81 -211 OFFCURVE",
"114 -219 OFFCURVE",
"147 -219 CURVE SMOOTH",
"200 -219 OFFCURVE",
"270 -196 OFFCURVE",
"270 -128 CURVE SMOOTH",
"270 -75 OFFCURVE",
"223 -55 OFFCURVE",
"184 -55 CURVE SMOOTH",
"179 -55 LINE"
);
}
);
width = 331;
}
);
unicode = 00B8;
},
{
glyphname = ordmasculine;
layers = (
{
hints = (
{
horizontal = 1;
place = "{281, 62}";
type = Stem;
},
{
horizontal = 1;
place = "{403, 69}";
type = Stem;
},
{
horizontal = 1;
place = "{638, 70}";
type = Stem;
},
{
place = "{23, 78}";
type = Stem;
},
{
place = "{255, 78}";
type = Stem;
}
);
layerId = "0D3EB0FA-AC0F-4259-9DA6-5CB309C7FB4D";
paths = (
{
closed = 1;
nodes = (
"268 403 OFFCURVE",
"333 472 OFFCURVE",
"333 557 CURVE SMOOTH",
"333 639 OFFCURVE",
"269 708 OFFCURVE",
"179 708 CURVE SMOOTH",
"90 708 OFFCURVE",
"23 638 OFFCURVE",
"23 555 CURVE SMOOTH",
"23 471 OFFCURVE",
"88 403 OFFCURVE",
"177 403 CURVE SMOOTH"
);
},
{
closed = 1;
nodes = (
"134 472 OFFCURVE",
"101 509 OFFCURVE",
"101 557 CURVE SMOOTH",
"101 601 OFFCURVE",
"130 638 OFFCURVE",
"177 638 CURVE SMOOTH",
"222 638 OFFCURVE",
"255 602 OFFCURVE",
"255 555 CURVE SMOOTH",
"255 508 OFFCURVE",
"226 472 OFFCURVE",
"179 472 CURVE SMOOTH"
);
},
{
closed = 1;
nodes = (
"34 281 LINE",
"322 281 LINE",
"322 343 LINE",
"34 343 LINE"
);
}
);
width = 357;
}
);
unicode = 00BA;
},
{
glyphname = guillemotright;
layers = (
{
hints = (
{
horizontal = 1;
place = "{38, 441}";
type = Stem;
},
{
place = "{24, 510}";
type = Stem;
}
);
layerId = "0D3EB0FA-AC0F-4259-9DA6-5CB309C7FB4D";
paths = (
{
closed = 1;
nodes = (
"25 83 LINE",
"130 38 LINE",
"292 257 LINE",
"129 479 LINE",
"24 436 LINE",
"154 259 LINE"
);
},
{
closed = 1;
nodes = (
"267 83 LINE",
"372 38 LINE",
"534 257 LINE",
"371 479 LINE",
"266 436 LINE",
"396 259 LINE"
);
}
);
width = 564;
}
);
unicode = 00BB;
},
{
glyphname = onequarter;
layers = (
{
hints = (
{
horizontal = 1;
place = "{-9, 21}";
target = up;
type = BottomGhost;
},
{
horizontal = 1;
place = "{0, 21}";
target = up;
type = BottomGhost;
},
{
horizontal = 1;
place = "{74, 72}";
type = Stem;
},
{
horizontal = 1;
place = "{296, 132}";
type = Stem;
},
{
horizontal = 1;
place = "{707, -20}";
target = down;
type = TopGhost;
},
{
horizontal = 1;
place = "{711, -20}";
target = down;
type = TopGhost;
},
{
place = "{101, 98}";
type = Stem;
},
{
place = "{650, 93}";
type = Stem;
}
);
layerId = "0D3EB0FA-AC0F-4259-9DA6-5CB309C7FB4D";
paths = (
{
closed = 1;
nodes = (
"137 -9 LINE",
"203 -32 LINE",
"635 711 LINE",
"567 734 LINE"
);
},
{
closed = 1;
nodes = (
"101 281 LINE",
"199 281 LINE",
"199 707 LINE",
"127 706 LINE",
"99 692 OFFCURVE",
"63 678 OFFCURVE",
"40 663 CURVE",
"40 578 LINE",
"61 585 OFFCURVE",
"80 595 OFFCURVE",
"101 607 CURVE"
);
},
{
closed = 1;
nodes = (
"448 74 LINE",
"520 74 OFFCURVE",
"585 75 OFFCURVE",
"650 75 CURVE",
"649 0 LINE",
"743 0 LINE",
"742 75 LINE",
"762 74 LINE",
"782 74 LINE",
"791 148 LINE",
"743 147 LINE",
"743 428 LINE",
"651 428 LINE",
"448 128 LINE"
);
},
{
closed = 1;
nodes = (
"553 146 LINE",
"552 146 LINE",
"587 200 OFFCURVE",
"631 264 OFFCURVE",
"650 296 CURVE",
"650 296 LINE",
"650 296 LINE",
"652 296 LINE",
"652 296 LINE",
"652 290 LINE",
"649 268 OFFCURVE",
"650 190 OFFCURVE",
"650 147 CURVE",
"634 147 OFFCURVE",
"617 147 OFFCURVE",
"600 146 CURVE"
);
}
);
width = 828;
}
);
unicode = 00BC;
},
{
glyphname = onehalf;
layers = (
{
hints = (
{
horizontal = 1;
place = "{1, 77}";
type = Stem;
},
{
horizontal = 1;
place = "{-9, 21}";
target = up;
type = BottomGhost;
},
{
horizontal = 1;
place = "{357, 77}";
type = Stem;
},
{
horizontal = 1;
place = "{707, -20}";
target = down;
type = TopGhost;
},
{
horizontal = 1;
place = "{711, -20}";
target = down;
type = TopGhost;
},
{
place = "{87, 98}";
type = Stem;
},
{
place = "{681, 98}";
type = Stem;
}
);
layerId = "0D3EB0FA-AC0F-4259-9DA6-5CB309C7FB4D";
paths = (
{
closed = 1;
nodes = (
"102 -9 LINE",
"167 -32 LINE",
"599 711 LINE",
"532 734 LINE"
);
},
{
closed = 1;
nodes = (
"87 281 LINE",
"185 281 LINE",
"185 707 LINE",
"107 706 LINE",
"83 691 OFFCURVE",
"53 678 OFFCURVE",
"26 663 CURVE",
"26 578 LINE",
"46 587 OFFCURVE",
"67 595 OFFCURVE",
"87 607 CURVE"
);
},
{
closed = 1;
nodes = (
"446 1 LINE",
"766 1 LINE",
"782 80 LINE",
"620 76 LINE",
"673 127 LINE SMOOTH",
"747 199 OFFCURVE",
"779 245 OFFCURVE",
"779 302 CURVE SMOOTH",
"779 381 OFFCURVE",
"708 434 OFFCURVE",
"627 434 CURVE SMOOTH",
"547 434 OFFCURVE",
"503 397 OFFCURVE",
"479 328 CURVE",
"563 304 LINE",
"576 335 OFFCURVE",
"595 357 OFFCURVE",
"624 357 CURVE SMOOTH",
"657 357 OFFCURVE",
"681 333 OFFCURVE",
"681 300 CURVE SMOOTH",
"681 262 OFFCURVE",
"638 212 OFFCURVE",
"593 162 CURVE SMOOTH"
);
}
);
width = 826;
}
);
unicode = 00BD;
},
{
glyphname = threequarters;
layers = (
{
hints = (
{
place = "{227, 94}";
type = Stem;
},
{
place = "{246, 95}";
type = Stem;
},
{
place = "{651, 92}";
type = Stem;
},
{
horizontal = 1;
place = "{-9, 21}";
target = up;
type = BottomGhost;
},
{
horizontal = 1;
place = "{0, 21}";
target = up;
type = BottomGhost;
},
{
horizontal = 1;
place = "{74, 73}";
type = Stem;
},
{
horizontal = 1;
place = "{275, 73}";
type = Stem;
},
{
horizontal = 1;
place = "{481, 65}";
type = Stem;
},
{
horizontal = 1;
place = "{518, -20}";
target = down;
type = TopGhost;
},
{
horizontal = 1;
place = "{646, 72}";
type = Stem;
},
{
horizontal = 1;
place = "{711, -20}";
target = down;
type = TopGhost;
}
);
layerId = "0D3EB0FA-AC0F-4259-9DA6-5CB309C7FB4D";
paths = (
{
closed = 1;
nodes = (
"183 -9 LINE",
"250 -31 LINE",
"682 711 LINE",
"615 734 LINE"
);
},
{
closed = 1;
nodes = (
"29 356 LINE",
"48 300 OFFCURVE",
"111 275 OFFCURVE",
"173 275 CURVE SMOOTH",
"257 275 OFFCURVE",
"341 320 OFFCURVE",
"341 412 CURVE SMOOTH",
"341 463 OFFCURVE",
"314 498 OFFCURVE",
"267 518 CURVE",
"299 537 OFFCURVE",
"321 568 OFFCURVE",
"321 607 CURVE SMOOTH",
"321 687 OFFCURVE",
"244 718 OFFCURVE",
"176 718 CURVE SMOOTH",
"116 718 OFFCURVE",
"70 695 OFFCURVE",
"51 644 CURVE",
"112 613 LINE",
"125 632 OFFCURVE",
"148 646 OFFCURVE",
"175 646 CURVE SMOOTH",
"202 646 OFFCURVE",
"227 629 OFFCURVE",
"227 600 CURVE SMOOTH",
"227 555 OFFCURVE",
"180 546 OFFCURVE",
"145 546 CURVE",
"145 481 LINE",
"197 481 OFFCURVE",
"246 473 OFFCURVE",
"246 417 CURVE SMOOTH",
"246 376 OFFCURVE",
"213 348 OFFCURVE",
"173 348 CURVE SMOOTH",
"140 348 OFFCURVE",
"110 365 OFFCURVE",
"93 388 CURVE"
);
},
{
closed = 1;
nodes = (
"450 74 LINE",
"522 74 OFFCURVE",
"596 75 OFFCURVE",
"652 75 CURVE",
"650 0 LINE",
"743 0 LINE",
"742 75 LINE",
"754 75 OFFCURVE",
"767 74 OFFCURVE",
"782 74 CURVE",
"791 148 LINE",
"743 147 LINE",
"743 429 LINE",
"652 429 LINE",
"450 130 LINE"
);
},
{
closed = 1;
nodes = (
"554 147 LINE",
"587 198 OFFCURVE",
"621 246 OFFCURVE",
"652 297 CURVE",
"654 285 LINE",
"652 270 OFFCURVE",
"651 254 OFFCURVE",
"651 235 CURVE SMOOTH",
"651 226 OFFCURVE",
"652 196 OFFCURVE",
"652 147 CURVE",
"617 147 OFFCURVE",
"594 147 OFFCURVE",
"559 146 CURVE"
);
}
);
width = 817;
}
);
unicode = 00BE;
},
{
glyphname = questiondown;
layers = (
{
hints = (
{
place = "{48, 137}";
type = Stem;
},
{
place = "{182, 168}";
type = Stem;
},
{
place = "{209, 128}";
type = Stem;
},
{
horizontal = 1;
place = "{-119, 119}";
type = Stem;
},
{
horizontal = 1;
place = "{450, 155}";
type = Stem;
}
);
layerId = "0D3EB0FA-AC0F-4259-9DA6-5CB309C7FB4D";
paths = (
{
closed = 1;
nodes = (
"350 578 OFFCURVE",
"312 605 OFFCURVE",
"267 605 CURVE SMOOTH",
"220 605 OFFCURVE",
"182 578 OFFCURVE",
"182 527 CURVE SMOOTH",
"182 480 OFFCURVE",
"220 450 OFFCURVE",
"267 450 CURVE SMOOTH",
"312 450 OFFCURVE",
"350 480 OFFCURVE",
"350 527 CURVE SMOOTH"
);
},
{
closed = 1;
nodes = (
"223 0 OFFCURVE",
"185 33 OFFCURVE",
"185 75 CURVE SMOOTH",
"185 114 OFFCURVE",
"214 144 OFFCURVE",
"246 171 CURVE SMOOTH",
"290 210 OFFCURVE",
"337 254 OFFCURVE",
"337 338 CURVE SMOOTH",
"337 390 LINE",
"209 390 LINE",
"209 359 LINE SMOOTH",
"209 305 OFFCURVE",
"193 280 OFFCURVE",
"150 245 CURVE SMOOTH",
"92 198 OFFCURVE",
"48 149 OFFCURVE",
"48 66 CURVE SMOOTH",
"48 -50 OFFCURVE",
"139 -119 OFFCURVE",
"255 -119 CURVE SMOOTH",
"331 -119 OFFCURVE",
"399 -90 OFFCURVE",
"440 -37 CURVE",
"440 91 LINE",
"397 37 OFFCURVE",
"338 0 OFFCURVE",
"277 0 CURVE SMOOTH"
);
}
);
width = 486;
}
);
unicode = 00BF;
},
{
glyphname = germandbls;
layers = (
{
hints = (
{
place = "{67, 135}";
type = Stem;
},
{
place = "{407, 134}";
type = Stem;
},
{
place = "{446, 136}";
type = Stem;
},
{
horizontal = 1;
place = "{-4, 102}";
type = Stem;
},
{
horizontal = 1;
place = "{0, 98}";
type = Stem;
},
{
horizontal = 1;
place = "{630, 116}";
type = Stem;
}
);
layerId = "0D3EB0FA-AC0F-4259-9DA6-5CB309C7FB4D";
paths = (
{
closed = 1;
nodes = (
"202 501 LINE SMOOTH",
"202 573 OFFCURVE",
"240 630 OFFCURVE",
"311 630 CURVE SMOOTH",
"368 630 OFFCURVE",
"407 595 OFFCURVE",
"407 535 CURVE SMOOTH",
"407 468 OFFCURVE",
"357 437 OFFCURVE",
"295 410 CURVE",
"295 329 LINE",
"386 318 OFFCURVE",
"446 286 OFFCURVE",
"446 212 CURVE SMOOTH",
"446 137 OFFCURVE",
"382 98 OFFCURVE",
"290 98 CURVE",
"290 -3 LINE",
"298 -4 OFFCURVE",
"306 -4 OFFCURVE",
"313 -4 CURVE SMOOTH",
"426 -4 OFFCURVE",
"582 49 OFFCURVE",
"582 202 CURVE SMOOTH",
"582 302 OFFCURVE",
"507 363 OFFCURVE",
"427 382 CURVE",
"491 411 OFFCURVE",
"541 467 OFFCURVE",
"541 551 CURVE SMOOTH",
"541 665 OFFCURVE",
"450 746 OFFCURVE",
"315 746 CURVE SMOOTH",
"148 746 OFFCURVE",
"67 640 OFFCURVE",
"67 500 CURVE SMOOTH",
"67 0 LINE",
"202 0 LINE"
);
}
);
width = 620;
}
);
unicode = 00DF;
},
{
glyphname = divide;
layers = (
{
hints = (
{
horizontal = 1;
place = "{84, 129}";
type = Stem;
},
{
horizontal = 1;
place = "{263, 83}";
type = Stem;
},
{
horizontal = 1;
place = "{396, 130}";
type = Stem;
},
{
place = "{234, 133}";
type = Stem;
}
);
layerId = "0D3EB0FA-AC0F-4259-9DA6-5CB309C7FB4D";
paths = (
{
closed = 1;
nodes = (
"367 495 OFFCURVE",
"340 526 OFFCURVE",
"300 526 CURVE SMOOTH",
"261 526 OFFCURVE",
"234 495 OFFCURVE",
"234 460 CURVE SMOOTH",
"234 425 OFFCURVE",
"261 396 OFFCURVE",
"300 396 CURVE SMOOTH",
"340 396 OFFCURVE",
"367 425 OFFCURVE",
"367 460 CURVE SMOOTH"
);
},
{
closed = 1;
nodes = (
"559 346 LINE",
"42 346 LINE",
"42 263 LINE",
"559 263 LINE"
);
},
{
closed = 1;
nodes = (
"367 186 OFFCURVE",
"340 213 OFFCURVE",
"300 213 CURVE SMOOTH",
"261 213 OFFCURVE",
"234 186 OFFCURVE",
"234 150 CURVE SMOOTH",
"234 114 OFFCURVE",
"261 84 OFFCURVE",
"300 84 CURVE SMOOTH",
"340 84 OFFCURVE",
"367 114 OFFCURVE",
"367 150 CURVE SMOOTH"
);
}
);
width = 601;
}
);
unicode = 00F7;
},
{
glyphname = oslash;
layers = (
{
hints = (
{
place = "{49, 129}";
type = Stem;
},
{
place = "{471, 129}";
type = Stem;
},
{
horizontal = 1;
place = "{-13, 110}";
type = Stem;
},
{
horizontal = 1;
place = "{-1, 21}";
target = up;
type = BottomGhost;
},
{
horizontal = 1;
place = "{409, 109}";
type = Stem;
}
);
layerId = "0D3EB0FA-AC0F-4259-9DA6-5CB309C7FB4D";
paths = (
{
closed = 1;
nodes = (
"36 -1 LINE",
"90 -53 LINE",
"170 32 LINE",
"214 3 OFFCURVE",
"263 -13 OFFCURVE",
"323 -13 CURVE SMOOTH",
"483 -13 OFFCURVE",
"600 106 OFFCURVE",
"600 253 CURVE SMOOTH",
"600 324 OFFCURVE",
"576 379 OFFCURVE",
"537 426 CURVE",
"603 499 LINE",
"544 549 LINE",
"478 475 LINE",
"435 504 OFFCURVE",
"383 518 OFFCURVE",
"324 518 CURVE SMOOTH",
"164 518 OFFCURVE",
"49 401 OFFCURVE",
"49 253 CURVE SMOOTH",
"49 186 OFFCURVE",
"72 129 OFFCURVE",
"112 81 CURVE"
);
},
{
closed = 1;
nodes = (
"198 173 LINE",
"183 196 OFFCURVE",
"178 221 OFFCURVE",
"178 253 CURVE SMOOTH",
"178 340 OFFCURVE",
"233 409 OFFCURVE",
"324 409 CURVE SMOOTH",
"355 409 OFFCURVE",
"379 402 OFFCURVE",
"399 387 CURVE"
);
},
{
closed = 1;
nodes = (
"451 333 LINE",
"463 310 OFFCURVE",
"471 284 OFFCURVE",
"471 253 CURVE SMOOTH",
"471 166 OFFCURVE",
"413 97 OFFCURVE",
"323 97 CURVE SMOOTH",
"294 97 OFFCURVE",
"270 105 OFFCURVE",
"249 118 CURVE"
);
}
);
width = 644;
}
);
unicode = 00F8;
},
{
glyphname = fraction;
layers = (
{
hints = (
{
horizontal = 1;
place = "{-13, 21}";
target = up;
type = BottomGhost;
},
{
horizontal = 1;
place = "{-7, 21}";
target = up;
type = BottomGhost;
},
{
place = "{-91, 561}";
type = Stem;
}
);
layerId = "0D3EB0FA-AC0F-4259-9DA6-5CB309C7FB4D";
paths = (
{
closed = 1;
nodes = (
"470 853 LINE",
"358 861 LINE",
"-91 -7 LINE",
"21 -13 LINE"
);
}
);
width = 379;
}
);
unicode = 2044;
},
{
glyphname = fi;
layers = (
{
hints = (
{
place = "{106, 134}";
type = Stem;
},
{
place = "{411, 168}";
type = Stem;
},
{
place = "{428, 136}";
type = Stem;
},
{
horizontal = 1;
place = "{0, 21}";
target = up;
type = BottomGhost;
},
{
horizontal = 1;
place = "{401, 108}";
type = Stem;
},
{
horizontal = 1;
place = "{401, 111}";
type = Stem;
},
{
horizontal = 1;
place = "{583, 156}";
type = Stem;
},
{
horizontal = 1;
place = "{634, 103}";
type = Stem;
}
);
layerId = "0D3EB0FA-AC0F-4259-9DA6-5CB309C7FB4D";
paths = (
{
closed = 1;
nodes = (
"411 613 OFFCURVE",
"448 583 OFFCURVE",
"495 583 CURVE SMOOTH",
"542 583 OFFCURVE",
"579 613 OFFCURVE",
"579 661 CURVE SMOOTH",
"579 710 OFFCURVE",
"542 739 OFFCURVE",
"495 739 CURVE SMOOTH",
"448 739 OFFCURVE",
"411 710 OFFCURVE",
"411 661 CURVE SMOOTH"
);
},
{
closed = 1;
nodes = (
"369 724 LINE",
"346 732 OFFCURVE",
"317 737 OFFCURVE",
"281 737 CURVE SMOOTH",
"173 737 OFFCURVE",
"106 683 OFFCURVE",
"106 554 CURVE SMOOTH",
"106 510 LINE",
"15 401 LINE",
"106 401 LINE",
"106 0 LINE",
"240 0 LINE",
"240 401 LINE",
"361 401 LINE",
"361 509 LINE",
"223 509 LINE",
"223 551 LINE SMOOTH",
"223 604 OFFCURVE",
"257 634 OFFCURVE",
"305 634 CURVE SMOOTH",
"325 634 OFFCURVE",
"349 630 OFFCURVE",
"369 623 CURVE"
);
},
{
closed = 1;
nodes = (
"564 512 LINE",
"428 512 LINE",
"428 0 LINE",
"564 0 LINE"
);
}
);
width = 646;
}
);
unicode = FB01;
},
{
glyphname = fl;
layers = (
{
hints = (
{
horizontal = 1;
place = "{0, 21}";
target = up;
type = BottomGhost;
},
{
horizontal = 1;
place = "{401, 108}";
type = Stem;
},
{
horizontal = 1;
place = "{634, 103}";
type = Stem;
},
{
place = "{106, 134}";
type = Stem;
},
{
place = "{419, 136}";
type = Stem;
}
);
layerId = "0D3EB0FA-AC0F-4259-9DA6-5CB309C7FB4D";
paths = (
{
closed = 1;
nodes = (
"369 724 LINE",
"346 732 OFFCURVE",
"317 737 OFFCURVE",
"281 737 CURVE SMOOTH",
"173 737 OFFCURVE",
"106 683 OFFCURVE",
"106 554 CURVE SMOOTH",
"106 510 LINE",
"15 401 LINE",
"106 401 LINE",
"106 0 LINE",
"240 0 LINE",
"240 401 LINE",
"361 401 LINE",
"361 509 LINE",
"223 509 LINE",
"223 551 LINE SMOOTH",
"223 604 OFFCURVE",
"257 634 OFFCURVE",
"305 634 CURVE SMOOTH",
"325 634 OFFCURVE",
"349 630 OFFCURVE",
"369 623 CURVE"
);
},
{
closed = 1;
nodes = (
"555 731 LINE",
"419 731 LINE",
"419 0 LINE",
"555 0 LINE"
);
}
);
width = 621;
}
);
unicode = FB02;
},
{
glyphname = breve;
layers = (
{
hints = (
{
horizontal = 1;
place = "{558, 91}";
type = Stem;
},
{
place = "{16, 319}";
type = Stem;
}
);
layerId = "0D3EB0FA-AC0F-4259-9DA6-5CB309C7FB4D";
paths = (
{
closed = 1;
nodes = (
"256 719 LINE",
"244 675 OFFCURVE",
"216 649 OFFCURVE",
"177 649 CURVE SMOOTH",
"138 649 OFFCURVE",
"107 675 OFFCURVE",
"95 719 CURVE",
"16 719 LINE",
"27 622 OFFCURVE",
"87 558 OFFCURVE",
"175 558 CURVE SMOOTH",
"263 558 OFFCURVE",
"327 622 OFFCURVE",
"335 719 CURVE"
);
}
);
width = 351;
}
);
unicode = 02D8;
},
{
glyphname = dotaccent;
layers = (
{
hints = (
{
horizontal = 1;
place = "{567, 127}";
type = Stem;
},
{
place = "{65, 128}";
type = Stem;
}
);
layerId = "0D3EB0FA-AC0F-4259-9DA6-5CB309C7FB4D";
paths = (
{
closed = 1;
nodes = (
"193 668 OFFCURVE",
"161 694 OFFCURVE",
"128 694 CURVE SMOOTH",
"96 694 OFFCURVE",
"65 668 OFFCURVE",
"65 631 CURVE SMOOTH",
"65 592 OFFCURVE",
"96 567 OFFCURVE",
"128 567 CURVE SMOOTH",
"161 567 OFFCURVE",
"193 592 OFFCURVE",
"193 631 CURVE SMOOTH"
);
}
);
width = 308;
}
);
unicode = 02D9;
},
{
glyphname = ring;
layers = (
{
hints = (
{
horizontal = 1;
place = "{548, 70}";
type = Stem;
},
{
horizontal = 1;
place = "{698, 70}";
type = Stem;
},
{
place = "{64, 72}";
type = Stem;
},
{
place = "{217, 72}";
type = Stem;
}
);
layerId = "0D3EB0FA-AC0F-4259-9DA6-5CB309C7FB4D";
paths = (
{
closed = 1;
nodes = (
"289 719 OFFCURVE",
"238 768 OFFCURVE",
"175 768 CURVE SMOOTH",
"116 768 OFFCURVE",
"64 719 OFFCURVE",
"64 658 CURVE SMOOTH",
"64 597 OFFCURVE",
"116 548 OFFCURVE",
"175 548 CURVE SMOOTH",
"238 548 OFFCURVE",
"289 596 OFFCURVE",
"289 657 CURVE SMOOTH"
);
},
{
closed = 1;
nodes = (
"217 635 OFFCURVE",
"201 618 OFFCURVE",
"176 618 CURVE SMOOTH",
"153 618 OFFCURVE",
"136 634 OFFCURVE",
"136 659 CURVE SMOOTH",
"136 680 OFFCURVE",
"153 698 OFFCURVE",
"176 698 CURVE SMOOTH",
"200 698 OFFCURVE",
"217 679 OFFCURVE",
"217 658 CURVE SMOOTH"
);
}
);
width = 361;
}
);
unicode = 02DA;
},
{
glyphname = hungarumlaut;
layers = (
{
hints = (
{
place = "{12, 431}";
type = Stem;
},
{
horizontal = 1;
place = "{553, 150}";
type = Stem;
},
{
horizontal = 1;
place = "{703, -20}";
target = down;
type = TopGhost;
}
);
layerId = "0D3EB0FA-AC0F-4259-9DA6-5CB309C7FB4D";
paths = (
{
closed = 1;
nodes = (
"251 703 LINE",
"129 726 LINE",
"12 553 LINE",
"109 553 LINE"
);
},
{
closed = 1;
nodes = (
"443 703 LINE",
"321 726 LINE",
"205 553 LINE",
"301 553 LINE"
);
}
);
width = 386;
}
);
unicode = 02DD;
},
{
glyphname = ogonek;
layers = (
{
hints = (
{
horizontal = 1;
place = "{-179, 78}";
type = Stem;
},
{
place = "{51, 96}";
type = Stem;
}
);
layerId = "0D3EB0FA-AC0F-4259-9DA6-5CB309C7FB4D";
paths = (
{
closed = 1;
nodes = (
"241 -90 LINE",
"217 -98 OFFCURVE",
"203 -101 OFFCURVE",
"191 -101 CURVE SMOOTH",
"166 -101 OFFCURVE",
"147 -86 OFFCURVE",
"147 -62 CURVE SMOOTH",
"147 -39 OFFCURVE",
"159 -12 OFFCURVE",
"200 39 CURVE",
"107 39 LINE",
"80 7 OFFCURVE",
"51 -33 OFFCURVE",
"51 -77 CURVE SMOOTH",
"51 -141 OFFCURVE",
"103 -179 OFFCURVE",
"171 -179 CURVE SMOOTH",
"199 -179 OFFCURVE",
"228 -173 OFFCURVE",
"257 -158 CURVE"
);
}
);
width = 308;
}
);
unicode = 02DB;
},
{
glyphname = caron;
layers = (
{
hints = (
{
horizontal = 1;
place = "{553, 165}";
type = Stem;
},
{
place = "{6, 344}";
type = Stem;
}
);
layerId = "0D3EB0FA-AC0F-4259-9DA6-5CB309C7FB4D";
paths = (
{
closed = 1;
nodes = (
"246 718 LINE",
"179 644 LINE",
"112 718 LINE",
"6 718 LINE",
"135 553 LINE",
"222 553 LINE",
"350 718 LINE"
);
}
);
width = 356;
}
);
unicode = 02C7;
},
{
glyphname = dotlessi;
layers = (
{
hints = (
{
horizontal = 1;
place = "{0, 21}";
target = up;
type = BottomGhost;
},
{
horizontal = 1;
place = "{512, -20}";
target = down;
type = TopGhost;
},
{
place = "{67, 136}";
type = Stem;
}
);
layerId = "0D3EB0FA-AC0F-4259-9DA6-5CB309C7FB4D";
paths = (
{
closed = 1;
nodes = (
"203 512 LINE",
"67 512 LINE",
"67 0 LINE",
"203 0 LINE"
);
}
);
width = 270;
}
);
unicode = 0131;
},
{
glyphname = greaterequal;
layers = (
{
hints = (
{
horizontal = 1;
place = "{4, 93}";
type = Stem;
},
{
place = "{64, 511}";
type = Stem;
}
);
layerId = "0D3EB0FA-AC0F-4259-9DA6-5CB309C7FB4D";
paths = (
{
closed = 1;
nodes = (
"575 324 LINE",
"575 410 LINE",
"64 603 LINE",
"64 502 LINE",
"425 367 LINE",
"64 234 LINE",
"64 132 LINE"
);
},
{
closed = 1;
nodes = (
"575 4 LINE",
"575 97 LINE",
"64 97 LINE",
"64 4 LINE"
);
}
);
width = 638;
}
);
unicode = 2265;
},
{
glyphname = radical;
layers = (
{
hints = (
{
horizontal = 1;
place = "{-211, 994}";
type = Stem;
},
{
place = "{26, 532}";
type = Stem;
}
);
layerId = "0D3EB0FA-AC0F-4259-9DA6-5CB309C7FB4D";
paths = (
{
closed = 1;
nodes = (
"558 783 LINE",
"456 783 LINE",
"287 -51 LINE",
"157 225 LINE",
"26 167 LINE",
"65 84 LINE",
"108 104 LINE",
"259 -211 LINE",
"353 -211 LINE"
);
}
);
width = 536;
}
);
unicode = 221A;
},
{
glyphname = notequal;
layers = (
{
hints = (
{
horizontal = 1;
place = "{109, 93}";
type = Stem;
},
{
horizontal = 1;
place = "{299, 94}";
type = Stem;
},
{
place = "{42, 517}";
type = Stem;
}
);
layerId = "0D3EB0FA-AC0F-4259-9DA6-5CB309C7FB4D";
paths = (
{
closed = 1;
nodes = (
"554 109 LINE",
"554 202 LINE",
"328 202 LINE",
"377 299 LINE",
"559 299 LINE",
"559 393 LINE",
"428 393 LINE",
"479 488 LINE",
"395 535 LINE",
"320 393 LINE",
"47 393 LINE",
"47 299 LINE",
"270 299 LINE",
"220 202 LINE",
"42 202 LINE",
"42 109 LINE",
"171 109 LINE",
"120 15 LINE",
"204 -31 LINE",
"276 109 LINE"
);
}
);
width = 601;
}
);
unicode = 2260;
},
{
glyphname = product;
layers = (
{
hints = (
{
horizontal = 1;
place = "{688, 95}";
type = Stem;
},
{
place = "{11, 102}";
type = Stem;
},
{
place = "{485, 102}";
type = Stem;
}
);
layerId = "0D3EB0FA-AC0F-4259-9DA6-5CB309C7FB4D";
paths = (
{
closed = 1;
nodes = (
"587 -211 LINE",
"587 783 LINE",
"11 783 LINE",
"11 -211 LINE",
"113 -211 LINE",
"113 688 LINE",
"485 688 LINE",
"485 -211 LINE"
);
}
);
width = 599;
}
);
unicode = 220F;
},
{
glyphname = summation;
layers = (
{
hints = (
{
horizontal = 1;
place = "{-211, 96}";
type = Stem;
},
{
horizontal = 1;
place = "{688, 96}";
type = Stem;
},
{
place = "{14, 563}";
type = Stem;
}
);
layerId = "0D3EB0FA-AC0F-4259-9DA6-5CB309C7FB4D";
paths = (
{
closed = 1;
nodes = (
"577 -211 LINE",
"577 -115 LINE",
"147 -115 LINE",
"443 292 LINE",
"163 688 LINE",
"566 688 LINE",
"566 784 LINE",
"26 784 LINE",
"26 707 LINE",
"320 293 LINE",
"14 -134 LINE",
"14 -211 LINE"
);
}
);
width = 579;
}
);
unicode = 2211;
},
{
glyphname = lessequal;
layers = (
{
hints = (
{
horizontal = 1;
place = "{3, 93}";
type = Stem;
},
{
place = "{64, 511}";
type = Stem;
}
);
layerId = "0D3EB0FA-AC0F-4259-9DA6-5CB309C7FB4D";
paths = (
{
closed = 1;
nodes = (
"575 132 LINE",
"575 234 LINE",
"218 366 LINE",
"575 502 LINE",
"575 603 LINE",
"64 410 LINE",
"64 324 LINE"
);
},
{
closed = 1;
nodes = (
"575 3 LINE",
"575 96 LINE",
"64 96 LINE",
"64 3 LINE"
);
}
);
width = 638;
}
);
unicode = 2264;
},
{
glyphname = uni02C9;
layers = (
{
hints = (
{
horizontal = 1;
place = "{755, 90}";
type = Stem;
},
{
place = "{-2, 295}";
type = Stem;
}
);
layerId = "0D3EB0FA-AC0F-4259-9DA6-5CB309C7FB4D";
paths = (
{
closed = 1;
nodes = (
"293 845 LINE",
"-2 845 LINE",
"-2 755 LINE",
"293 755 LINE"
);
}
);
width = 297;
}
);
unicode = 02C9;
},
{
glyphname = lozenge;
layers = (
{
hints = (
{
horizontal = 1;
place = "{-35, 780}";
type = Stem;
},
{
place = "{44, 423}";
type = Stem;
}
);
layerId = "0D3EB0FA-AC0F-4259-9DA6-5CB309C7FB4D";
paths = (
{
closed = 1;
nodes = (
"467 355 LINE",
"297 745 LINE",
"212 745 LINE",
"44 355 LINE",
"212 -35 LINE",
"297 -35 LINE"
);
},
{
closed = 1;
nodes = (
"363 355 LINE",
"255 99 LINE",
"147 356 LINE",
"255 611 LINE"
);
}
);
width = 511;
}
);
unicode = 25CA;
},
{
glyphname = minus;
layers = (
{
hints = (
{
horizontal = 1;
place = "{258, 94}";
type = Stem;
},
{
place = "{42, 520}";
type = Stem;
}
);
layerId = "0D3EB0FA-AC0F-4259-9DA6-5CB309C7FB4D";
paths = (
{
closed = 1;
nodes = (
"562 352 LINE",
"42 352 LINE",
"42 258 LINE",
"562 258 LINE"
);
}
);
width = 604;
}
);
unicode = 2212;
},
{
glyphname = uni2215;
layers = (
{
hints = (
{
horizontal = 1;
place = "{-30, 884}";
type = Stem;
},
{
place = "{-162, 538}";
type = Stem;
}
);
layerId = "0D3EB0FA-AC0F-4259-9DA6-5CB309C7FB4D";
paths = (
{
closed = 1;
nodes = (
"376 808 LINE",
"283 854 LINE",
"-162 16 LINE",
"-69 -30 LINE"
);
}
);
width = 228;
}
);
unicode = 2215;
},
{
glyphname = approxequal;
layers = (
{
hints = (
{
place = "{480, 80}";
type = Stem;
},
{
horizontal = 1;
place = "{74, 93}";
type = Stem;
},
{
horizontal = 1;
place = "{144, 93}";
type = Stem;
},
{
horizontal = 1;
place = "{265, 93}";
type = Stem;
},
{
horizontal = 1;
place = "{335, 93}";
type = Stem;
}
);
layerId = "0D3EB0FA-AC0F-4259-9DA6-5CB309C7FB4D";
paths = (
{
closed = 1;
nodes = (
"480 435 LINE",
"472 390 OFFCURVE",
"455 358 OFFCURVE",
"415 358 CURVE SMOOTH",
"343 358 OFFCURVE",
"253 428 OFFCURVE",
"167 428 CURVE SMOOTH",
"71 428 OFFCURVE",
"34 343 OFFCURVE",
"21 258 CURVE",
"103 258 LINE",
"110 299 OFFCURVE",
"128 335 OFFCURVE",
"173 335 CURVE SMOOTH",
"236 335 OFFCURVE",
"329 265 OFFCURVE",
"416 265 CURVE SMOOTH",
"515 265 OFFCURVE",
"552 352 OFFCURVE",
"560 435 CURVE"
);
},
{
closed = 1;
nodes = (
"480 244 LINE",
"472 199 OFFCURVE",
"455 167 OFFCURVE",
"415 167 CURVE SMOOTH",
"343 167 OFFCURVE",
"253 237 OFFCURVE",
"167 237 CURVE SMOOTH",
"71 237 OFFCURVE",
"34 152 OFFCURVE",
"21 67 CURVE",
"103 67 LINE",
"110 108 OFFCURVE",
"128 144 OFFCURVE",
"173 144 CURVE SMOOTH",
"236 144 OFFCURVE",
"329 74 OFFCURVE",
"416 74 CURVE SMOOTH",
"515 74 OFFCURVE",
"552 161 OFFCURVE",
"560 244 CURVE"
);
}
);
width = 580;
}
);
unicode = 2248;
},
{
glyphname = integral;
layers = (
{
hints = (
{
horizontal = 1;
place = "{-210, 111}";
type = Stem;
},
{
horizontal = 1;
place = "{666, 117}";
type = Stem;
},
{
place = "{119, 103}";
type = Stem;
}
);
layerId = "0D3EB0FA-AC0F-4259-9DA6-5CB309C7FB4D";
paths = (
{
closed = 1;
nodes = (
"92 -112 OFFCURVE",
"80 -99 OFFCURVE",
"60 -99 CURVE SMOOTH",
"32 -99 OFFCURVE",
"11 -120 OFFCURVE",
"11 -147 CURVE SMOOTH",
"11 -192 OFFCURVE",
"65 -210 OFFCURVE",
"101 -210 CURVE SMOOTH",
"223 -210 OFFCURVE",
"222 -47 OFFCURVE",
"222 39 CURVE SMOOTH",
"222 607 LINE SMOOTH",
"222 627 OFFCURVE",
"221 681 OFFCURVE",
"237 692 CURVE",
"254 684 OFFCURVE",
"263 666 OFFCURVE",
"288 666 CURVE SMOOTH",
"317 666 OFFCURVE",
"340 688 OFFCURVE",
"340 717 CURVE SMOOTH",
"340 765 OFFCURVE",
"288 783 OFFCURVE",
"246 783 CURVE SMOOTH",
"137 783 OFFCURVE",
"119 657 OFFCURVE",
"119 573 CURVE SMOOTH",
"119 -34 LINE SMOOTH",
"119 -67 OFFCURVE",
"118 -106 OFFCURVE",
"104 -124 CURVE"
);
}
);
width = 349;
}
);
unicode = 222B;
},
{
glyphname = uni2113;
layers = (
{
hints = (
{
horizontal = 1;
place = "{-13, 85}";
type = Stem;
},
{
horizontal = 1;
place = "{635, 80}";
type = Stem;
},
{
place = "{132, 101}";
type = Stem;
},
{
place = "{300, 91}";
type = Stem;
}
);
layerId = "0D3EB0FA-AC0F-4259-9DA6-5CB309C7FB4D";
paths = (
{
closed = 1;
nodes = (
"372 118 LINE",
"333 86 OFFCURVE",
"306 72 OFFCURVE",
"283 72 CURVE SMOOTH",
"264 72 OFFCURVE",
"240 82 OFFCURVE",
"235 118 CURVE SMOOTH",
"234 123 OFFCURVE",
"233 128 OFFCURVE",
"233 135 CURVE SMOOTH",
"233 266 LINE",
"324 365 OFFCURVE",
"386 467 OFFCURVE",
"390 563 CURVE",
"391 566 OFFCURVE",
"391 568 OFFCURVE",
"391 571 CURVE SMOOTH",
"391 574 OFFCURVE",
"390 580 OFFCURVE",
"390 588 CURVE",
"385 667 OFFCURVE",
"337 715 OFFCURVE",
"270 715 CURVE SMOOTH",
"190 715 OFFCURVE",
"132 652 OFFCURVE",
"132 533 CURVE SMOOTH",
"132 292 LINE",
"47 208 LINE",
"93 146 LINE",
"132 185 LINE",
"132 138 LINE SMOOTH",
"132 129 OFFCURVE",
"133 119 OFFCURVE",
"133 110 CURVE",
"140 29 OFFCURVE",
"193 -13 OFFCURVE",
"268 -13 CURVE SMOOTH",
"315 -13 OFFCURVE",
"359 3 OFFCURVE",
"414 50 CURVE",
"416 50 LINE"
);
},
{
closed = 1;
nodes = (
"300 517 OFFCURVE",
"280 441 OFFCURVE",
"233 380 CURVE",
"233 544 LINE SMOOTH",
"233 608 OFFCURVE",
"250 635 OFFCURVE",
"270 635 CURVE SMOOTH",
"287 635 OFFCURVE",
"300 607 OFFCURVE",
"300 567 CURVE SMOOTH"
);
}
);
width = 474;
}
);
unicode = 2113;
},
{
glyphname = partialdiff;
layers = (
{
hints = (
{
horizontal = 1;
place = "{-11, 88}";
type = Stem;
},
{
horizontal = 1;
place = "{348, 91}";
type = Stem;
},
{
horizontal = 1;
place = "{628, 90}";
type = Stem;
},
{
place = "{25, 99}";
type = Stem;
},
{
place = "{365, 99}";
type = Stem;
}
);
layerId = "0D3EB0FA-AC0F-4259-9DA6-5CB309C7FB4D";
paths = (
{
closed = 1;
nodes = (
"464 517 OFFCURVE",
"408 718 OFFCURVE",
"215 718 CURVE SMOOTH",
"152 718 OFFCURVE",
"101 696 OFFCURVE",
"50 645 CURVE",
"108 579 LINE",
"140 612 OFFCURVE",
"175 628 OFFCURVE",
"215 628 CURVE SMOOTH",
"336 628 OFFCURVE",
"365 485 OFFCURVE",
"365 385 CURVE",
"326 418 OFFCURVE",
"282 439 OFFCURVE",
"227 439 CURVE SMOOTH",
"99 439 OFFCURVE",
"25 340 OFFCURVE",
"25 218 CURVE SMOOTH",
"25 100 OFFCURVE",
"101 -11 OFFCURVE",
"232 -11 CURVE SMOOTH",
"431 -11 OFFCURVE",
"464 214 OFFCURVE",
"464 361 CURVE SMOOTH"
);
},
{
closed = 1;
nodes = (
"355 197 OFFCURVE",
"324 77 OFFCURVE",
"233 77 CURVE SMOOTH",
"160 77 OFFCURVE",
"124 150 OFFCURVE",
"124 217 CURVE SMOOTH",
"124 286 OFFCURVE",
"162 348 OFFCURVE",
"233 348 CURVE SMOOTH",
"284 348 OFFCURVE",
"328 315 OFFCURVE",
"360 276 CURVE"
);
}
);
width = 498;
}
);
unicode = 2202;
},
{
glyphname = uni2206;
layers = (
{
hints = (
{
horizontal = 1;
place = "{0, 119}";
type = Stem;
},
{
horizontal = 1;
place = "{710, -20}";
target = down;
type = TopGhost;
},
{
place = "{21, 712}";
type = Stem;
}
);
layerId = "0D3EB0FA-AC0F-4259-9DA6-5CB309C7FB4D";
paths = (
{
closed = 1;
nodes = (
"733 0 LINE",
"443 710 LINE",
"308 710 LINE",
"21 0 LINE"
);
},
{
closed = 1;
nodes = (
"540 119 LINE",
"210 119 LINE",
"247 219 LINE SMOOTH",
"288 330 OFFCURVE",
"340 466 OFFCURVE",
"374 552 CURVE"
);
}
);
width = 755;
}
);
unicode = 2206;
},
{
glyphname = infinity;
layers = (
{
hints = (
{
horizontal = 1;
place = "{98, 93}";
type = Stem;
},
{
horizontal = 1;
place = "{321, 93}";
type = Stem;
},
{
place = "{31, 94}";
type = Stem;
},
{
place = "{599, 94}";
type = Stem;
}
);
layerId = "0D3EB0FA-AC0F-4259-9DA6-5CB309C7FB4D";
paths = (
{
closed = 1;
nodes = (
"693 343 OFFCURVE",
"635 414 OFFCURVE",
"544 414 CURVE SMOOTH",
"468 414 OFFCURVE",
"408 364 OFFCURVE",
"362 313 CURVE",
"320 358 OFFCURVE",
"256 413 OFFCURVE",
"180 413 CURVE SMOOTH",
"90 413 OFFCURVE",
"31 340 OFFCURVE",
"31 253 CURVE SMOOTH",
"31 167 OFFCURVE",
"93 98 OFFCURVE",
"182 98 CURVE SMOOTH",
"255 98 OFFCURVE",
"310 145 OFFCURVE",
"360 192 CURVE",
"410 148 OFFCURVE",
"470 98 OFFCURVE",
"543 98 CURVE SMOOTH",
"635 98 OFFCURVE",
"693 170 OFFCURVE",
"693 255 CURVE SMOOTH"
);
},
{
closed = 1;
nodes = (
"599 217 OFFCURVE",
"578 191 OFFCURVE",
"542 191 CURVE SMOOTH",
"498 191 OFFCURVE",
"459 221 OFFCURVE",
"426 252 CURVE",
"455 281 OFFCURVE",
"499 321 OFFCURVE",
"541 321 CURVE SMOOTH",
"580 321 OFFCURVE",
"599 291 OFFCURVE",
"599 254 CURVE SMOOTH"
);
},
{
closed = 1;
nodes = (
"268 223 OFFCURVE",
"224 191 OFFCURVE",
"183 191 CURVE SMOOTH",
"146 191 OFFCURVE",
"125 217 OFFCURVE",
"125 254 CURVE SMOOTH",
"125 290 OFFCURVE",
"144 320 OFFCURVE",
"180 320 CURVE SMOOTH",
"225 320 OFFCURVE",
"268 280 OFFCURVE",
"298 253 CURVE"
);
}
);
width = 725;
}
);
unicode = 221E;
},
{
glyphname = uni2126;
layers = (
{
hints = (
{
horizontal = 1;
place = "{0, 117}";
type = Stem;
},
{
horizontal = 1;
place = "{595, 123}";
type = Stem;
},
{
place = "{35, 140}";
type = Stem;
},
{
place = "{185, 152}";
type = Stem;
},
{
place = "{433, 152}";
type = Stem;
},
{
place = "{596, 139}";
type = Stem;
}
);
layerId = "0D3EB0FA-AC0F-4259-9DA6-5CB309C7FB4D";
paths = (
{
closed = 1;
nodes = (
"736 0 LINE",
"736 117 LINE",
"588 117 LINE",
"583 147 LINE",
"673 187 OFFCURVE",
"735 294 OFFCURVE",
"735 403 CURVE SMOOTH",
"735 592 OFFCURVE",
"587 718 OFFCURVE",
"386 718 CURVE SMOOTH",
"184 718 OFFCURVE",
"35 592 OFFCURVE",
"35 403 CURVE SMOOTH",
"35 294 OFFCURVE",
"92 188 OFFCURVE",
"187 147 CURVE",
"183 117 LINE",
"34 117 LINE",
"34 0 LINE",
"337 0 LINE",
"337 177 LINE",
"228 198 OFFCURVE",
"175 292 OFFCURVE",
"175 389 CURVE SMOOTH",
"175 501 OFFCURVE",
"260 595 OFFCURVE",
"386 595 CURVE SMOOTH",
"512 595 OFFCURVE",
"596 504 OFFCURVE",
"596 389 CURVE SMOOTH",
"596 292 OFFCURVE",
"543 198 OFFCURVE",
"433 177 CURVE",
"433 0 LINE"
);
}
);
width = 769;
}
);
unicode = 2126;
},
{
glyphname = uni2219;
layers = (
{
hints = (
{
horizontal = 1;
place = "{246, 140}";
type = Stem;
},
{
place = "{43, 139}";
type = Stem;
}
);
layerId = "0D3EB0FA-AC0F-4259-9DA6-5CB309C7FB4D";
paths = (
{
closed = 1;
nodes = (
"182 354 OFFCURVE",
"157 386 OFFCURVE",
"113 386 CURVE SMOOTH",
"72 386 OFFCURVE",
"43 354 OFFCURVE",
"43 315 CURVE SMOOTH",
"43 279 OFFCURVE",
"72 246 OFFCURVE",
"113 246 CURVE SMOOTH",
"157 246 OFFCURVE",
"182 279 OFFCURVE",
"182 315 CURVE SMOOTH"
);
}
);
width = 232;
}
);
unicode = 2219;
},
{
glyphname = estimated;
layers = (
{
hints = (
{
horizontal = 1;
place = "{-16, 72}";
type = Stem;
},
{
horizontal = 1;
place = "{245, 72}";
type = Stem;
},
{
horizontal = 1;
place = "{472, 70}";
type = Stem;
},
{
place = "{37, 146}";
type = Stem;
},
{
place = "{419, 146}";
type = Stem;
}
);
layerId = "0D3EB0FA-AC0F-4259-9DA6-5CB309C7FB4D";
paths = (
{
closed = 1;
nodes = (
"565 245 LINE",
"565 421 OFFCURVE",
"457 542 OFFCURVE",
"301 542 CURVE SMOOTH",
"142 542 OFFCURVE",
"37 420 OFFCURVE",
"37 264 CURVE SMOOTH",
"37 108 OFFCURVE",
"142 -16 OFFCURVE",
"301 -16 CURVE SMOOTH",
"406 -16 OFFCURVE",
"475 29 OFFCURVE",
"544 138 CURVE",
"475 178 LINE",
"424 90 OFFCURVE",
"370 56 OFFCURVE",
"301 56 CURVE SMOOTH",
"253 56 OFFCURVE",
"215 73 OFFCURVE",
"183 101 CURVE",
"183 245 LINE"
);
},
{
closed = 1;
nodes = (
"183 317 LINE",
"183 427 LINE",
"216 456 OFFCURVE",
"256 472 OFFCURVE",
"300 472 CURVE SMOOTH",
"345 472 OFFCURVE",
"383 458 OFFCURVE",
"419 427 CURVE",
"419 317 LINE"
);
}
);
width = 602;
}
);
unicode = 212E;
},
{
glyphname = exclam;
layers = (
{
hints = (
{
place = "{50, 167}";
type = Stem;
},
{
place = "{56, 155}";
type = Stem;
},
{
horizontal = 1;
place = "{-12, 157}";
type = Stem;
},
{
horizontal = 1;
place = "{703, -20}";
target = down;
type = TopGhost;
}
);
layerId = "0D3EB0FA-AC0F-4259-9DA6-5CB309C7FB4D";
paths = (
{
closed = 1;
nodes = (
"55 703 LINE",
"57 618 LINE",
"95 216 LINE",
"173 216 LINE",
"210 618 LINE",
"212 703 LINE"
);
},
{
closed = 1;
nodes = (
"50 18 OFFCURVE",
"87 -12 OFFCURVE",
"134 -12 CURVE SMOOTH",
"181 -12 OFFCURVE",
"217 18 OFFCURVE",
"217 67 CURVE SMOOTH",
"217 115 OFFCURVE",
"181 145 OFFCURVE",
"134 145 CURVE SMOOTH",
"87 145 OFFCURVE",
"50 115 OFFCURVE",
"50 67 CURVE SMOOTH"
);
}
);
width = 268;
}
);
unicode = 0021;
},
{
glyphname = Alpha;
layers = (
{
hints = (
{
horizontal = 1;
place = "{0, 21}";
target = up;
type = BottomGhost;
},
{
horizontal = 1;
place = "{161, 113}";
type = Stem;
},
{
horizontal = 1;
place = "{705, -20}";
target = down;
type = TopGhost;
},
{
place = "{21, 735}";
type = Stem;
}
);
layerId = "0D3EB0FA-AC0F-4259-9DA6-5CB309C7FB4D";
paths = (
{
closed = 1;
nodes = (
"538 161 LINE",
"605 0 LINE",
"756 0 LINE",
"452 705 LINE",
"324 705 LINE",
"21 0 LINE",
"168 0 LINE",
"236 161 LINE"
);
},
{
closed = 1;
nodes = (
"387 541 LINE",
"494 274 LINE",
"280 274 LINE"
);
}
);
width = 780;
}
);
unicode = 0391;
},
{
glyphname = Epsilon;
layers = (
{
hints = (
{
horizontal = 1;
place = "{0, 121}";
type = Stem;
},
{
horizontal = 1;
place = "{299, 114}";
type = Stem;
},
{
horizontal = 1;
place = "{582, 121}";
type = Stem;
},
{
place = "{73, 139}";
type = Stem;
}
);
layerId = "0D3EB0FA-AC0F-4259-9DA6-5CB309C7FB4D";
paths = (
{
closed = 1;
nodes = (
"212 299 LINE",
"552 299 LINE",
"552 413 LINE",
"212 413 LINE",
"212 582 LINE",
"584 582 LINE",
"584 703 LINE",
"73 703 LINE",
"73 0 LINE",
"592 0 LINE",
"592 121 LINE",
"212 121 LINE"
);
}
);
width = 631;
}
);
unicode = 0395;
},
{
glyphname = Eta;
layers = (
{
hints = (
{
horizontal = 1;
place = "{0, 21}";
target = up;
type = BottomGhost;
},
{
horizontal = 1;
place = "{293, 125}";
type = Stem;
},
{
horizontal = 1;
place = "{703, -20}";
target = down;
type = TopGhost;
},
{
place = "{73, 139}";
type = Stem;
},
{
place = "{527, 139}";
type = Stem;
}
);
layerId = "0D3EB0FA-AC0F-4259-9DA6-5CB309C7FB4D";
paths = (
{
closed = 1;
nodes = (
"73 0 LINE",
"212 0 LINE",
"212 293 LINE",
"527 293 LINE",
"527 0 LINE",
"666 0 LINE",
"666 703 LINE",
"527 703 LINE",
"527 418 LINE",
"212 418 LINE",
"212 703 LINE",
"73 703 LINE"
);
}
);
width = 738;
}
);
unicode = 0397;
},
{
glyphname = Iota;
layers = (
{
hints = (
{
horizontal = 1;
place = "{0, 21}";
target = up;
type = BottomGhost;
},
{
horizontal = 1;
place = "{703, -20}";
target = down;
type = TopGhost;
},
{
place = "{73, 139}";
type = Stem;
}
);
layerId = "0D3EB0FA-AC0F-4259-9DA6-5CB309C7FB4D";
paths = (
{
closed = 1;
nodes = (
"212 703 LINE",
"73 703 LINE",
"73 0 LINE",
"212 0 LINE"
);
}
);
width = 284;
}
);
unicode = 0399;
},
{
glyphname = Kappa;
layers = (
{
hints = (
{
horizontal = 1;
place = "{0, 21}";
target = up;
type = BottomGhost;
},
{
horizontal = 1;
place = "{703, -20}";
target = down;
type = TopGhost;
},
{
place = "{73, 139}";
type = Stem;
}
);
layerId = "0D3EB0FA-AC0F-4259-9DA6-5CB309C7FB4D";
paths = (
{
closed = 1;
nodes = (
"212 703 LINE",
"73 703 LINE",
"73 0 LINE",
"212 0 LINE",
"212 349 LINE",
"483 0 LINE",
"653 0 LINE",
"351 387 LINE",
"635 703 LINE",
"466 703 LINE",
"212 413 LINE"
);
}
);
width = 648;
}
);
unicode = 039A;
},
{
glyphname = Mu;
layers = (
{
hints = (
{
horizontal = 1;
place = "{0, 21}";
target = up;
type = BottomGhost;
},
{
place = "{56, 137}";
type = Stem;
},
{
place = "{646, 139}";
type = Stem;
}
);
layerId = "0D3EB0FA-AC0F-4259-9DA6-5CB309C7FB4D";
paths = (
{
closed = 1;
nodes = (
"419 141 LINE",
"646 484 LINE",
"646 0 LINE",
"785 0 LINE",
"785 700 LINE",
"641 700 LINE",
"420 354 LINE",
"199 700 LINE",
"56 700 LINE",
"56 0 LINE",
"193 0 LINE",
"193 483 LINE"
);
}
);
width = 841;
}
);
unicode = 039C;
},
{
glyphname = Nu;
layers = (
{
hints = (
{
horizontal = 1;
place = "{0, 21}";
target = up;
type = BottomGhost;
},
{
horizontal = 1;
place = "{703, -20}";
target = down;
type = TopGhost;
},
{
place = "{73, 137}";
type = Stem;
},
{
place = "{559, 137}";
type = Stem;
}
);
layerId = "0D3EB0FA-AC0F-4259-9DA6-5CB309C7FB4D";
paths = (
{
closed = 1;
nodes = (
"206 700 LINE",
"73 700 LINE",
"73 0 LINE",
"210 0 LINE",
"210 481 LINE",
"569 0 LINE",
"696 0 LINE",
"696 703 LINE",
"559 703 LINE",
"559 228 LINE"
);
}
);
width = 769;
}
);
unicode = 039D;
},
{
glyphname = Omicron;
layers = (
{
hints = (
{
horizontal = 1;
place = "{-14, 126}";
type = Stem;
},
{
horizontal = 1;
place = "{591, 126}";
type = Stem;
},
{
place = "{37, 143}";
type = Stem;
},
{
place = "{637, 143}";
type = Stem;
}
);
layerId = "0D3EB0FA-AC0F-4259-9DA6-5CB309C7FB4D";
paths = (
{
closed = 1;
nodes = (
"780 552 OFFCURVE",
"622 717 OFFCURVE",
"410 717 CURVE SMOOTH",
"195 717 OFFCURVE",
"37 553 OFFCURVE",
"37 351 CURVE SMOOTH",
"37 148 OFFCURVE",
"195 -14 OFFCURVE",
"408 -14 CURVE SMOOTH",
"620 -14 OFFCURVE",
"780 152 OFFCURVE",
"780 353 CURVE SMOOTH"
);
},
{
closed = 1;
nodes = (
"637 220 OFFCURVE",
"542 112 OFFCURVE",
"409 112 CURVE SMOOTH",
"275 112 OFFCURVE",
"180 221 OFFCURVE",
"180 353 CURVE SMOOTH",
"180 484 OFFCURVE",
"274 591 OFFCURVE",
"409 591 CURVE SMOOTH",
"542 591 OFFCURVE",
"637 481 OFFCURVE",
"637 350 CURVE SMOOTH"
);
}
);
width = 817;
}
);
unicode = 039F;
},
{
glyphname = Chi;
layers = (
{
hints = (
{
horizontal = 1;
place = "{0, 21}";
target = up;
type = BottomGhost;
},
{
horizontal = 1;
place = "{703, -20}";
target = down;
type = TopGhost;
},
{
place = "{20, 658}";
type = Stem;
}
);
layerId = "0D3EB0FA-AC0F-4259-9DA6-5CB309C7FB4D";
paths = (
{
closed = 1;
nodes = (
"31 703 LINE",
"268 359 LINE",
"20 0 LINE",
"179 0 LINE",
"348 254 LINE",
"518 0 LINE",
"678 0 LINE",
"432 361 LINE",
"667 703 LINE",
"510 703 LINE",
"352 465 LINE",
"192 703 LINE"
);
}
);
width = 698;
}
);
unicode = 03A7;
},
{
glyphname = Tau;
layers = (
{
hints = (
{
horizontal = 1;
place = "{0, 21}";
target = up;
type = BottomGhost;
},
{
horizontal = 1;
place = "{580, 123}";
type = Stem;
},
{
place = "{221, 139}";
type = Stem;
}
);
layerId = "0D3EB0FA-AC0F-4259-9DA6-5CB309C7FB4D";
paths = (
{
closed = 1;
nodes = (
"360 580 LINE",
"570 580 LINE",
"570 703 LINE",
"11 703 LINE",
"11 580 LINE",
"221 580 LINE",
"221 0 LINE",
"360 0 LINE"
);
}
);
width = 580;
}
);
unicode = 03A4;
},
{
glyphname = Rho;
layers = (
{
hints = (
{
horizontal = 1;
place = "{-1, 21}";
target = up;
type = BottomGhost;
},
{
horizontal = 1;
place = "{240, 114}";
type = Stem;
},
{
horizontal = 1;
place = "{583, 120}";
type = Stem;
},
{
place = "{73, 140}";
type = Stem;
},
{
place = "{467, 140}";
type = Stem;
}
);
layerId = "0D3EB0FA-AC0F-4259-9DA6-5CB309C7FB4D";
paths = (
{
closed = 1;
nodes = (
"73 -1 LINE",
"213 -1 LINE",
"213 240 LINE",
"328 240 LINE SMOOTH",
"487 240 OFFCURVE",
"607 324 OFFCURVE",
"607 476 CURVE SMOOTH",
"607 618 OFFCURVE",
"501 703 OFFCURVE",
"336 703 CURVE SMOOTH",
"73 703 LINE"
);
},
{
closed = 1;
nodes = (
"213 583 LINE",
"325 583 LINE SMOOTH",
"416 583 OFFCURVE",
"467 545 OFFCURVE",
"467 469 CURVE SMOOTH",
"467 398 OFFCURVE",
"414 354 OFFCURVE",
"325 354 CURVE SMOOTH",
"213 354 LINE"
);
}
);
width = 643;
}
);
unicode = 03A1;
},
{
glyphname = Upsilon;
layers = (
{
hints = (
{
horizontal = 1;
place = "{0, 21}";
target = up;
type = BottomGhost;
},
{
horizontal = 1;
place = "{703, -20}";
target = down;
type = TopGhost;
},
{
place = "{278, 139}";
type = Stem;
}
);
layerId = "0D3EB0FA-AC0F-4259-9DA6-5CB309C7FB4D";
paths = (
{
closed = 1;
nodes = (
"417 273 LINE",
"685 703 LINE",
"529 703 LINE",
"350 402 LINE",
"170 703 LINE",
"9 703 LINE",
"278 271 LINE",
"278 0 LINE",
"417 0 LINE"
);
}
);
width = 691;
}
);
unicode = 03A5;
},
{
glyphname = uni0394;
layers = (
{
hints = (
{
horizontal = 1;
place = "{0, 113}";
type = Stem;
},
{
horizontal = 1;
place = "{705, -20}";
target = down;
type = TopGhost;
},
{
place = "{16, 750}";
type = Stem;
}
);
layerId = "0D3EB0FA-AC0F-4259-9DA6-5CB309C7FB4D";
paths = (
{
closed = 1;
nodes = (
"766 0 LINE",
"455 705 LINE",
"327 705 LINE",
"16 0 LINE"
);
},
{
closed = 1;
nodes = (
"209 113 LINE",
"390 546 LINE",
"571 113 LINE"
);
}
);
width = 784;
}
);
unicode = 0394;
},
{
glyphname = uni03A9;
layers = (
{
hints = (
{
horizontal = 1;
place = "{1, 121}";
type = Stem;
},
{
horizontal = 1;
place = "{591, 126}";
type = Stem;
},
{
place = "{42, 143}";
type = Stem;
},
{
place = "{601, 143}";
type = Stem;
}
);
layerId = "0D3EB0FA-AC0F-4259-9DA6-5CB309C7FB4D";
paths = (
{
closed = 1;
nodes = (
"444 1 LINE",
"766 1 LINE",
"766 122 LINE",
"596 122 LINE",
"689 173 OFFCURVE",
"744 285 OFFCURVE",
"744 389 CURVE SMOOTH",
"744 593 OFFCURVE",
"591 717 OFFCURVE",
"394 717 CURVE SMOOTH",
"201 717 OFFCURVE",
"42 594 OFFCURVE",
"42 391 CURVE SMOOTH",
"42 286 OFFCURVE",
"96 172 OFFCURVE",
"190 122 CURVE",
"20 122 LINE",
"20 1 LINE",
"345 1 LINE",
"345 127 LINE",
"246 175 OFFCURVE",
"185 259 OFFCURVE",
"185 370 CURVE SMOOTH",
"185 498 OFFCURVE",
"261 591 OFFCURVE",
"393 591 CURVE SMOOTH",
"524 591 OFFCURVE",
"601 498 OFFCURVE",
"601 370 CURVE SMOOTH",
"601 258 OFFCURVE",
"540 178 OFFCURVE",
"444 127 CURVE"
);
}
);
width = 816;
}
);
unicode = 03A9;
},
{
glyphname = Lambda;
layers = (
{
hints = (
{
horizontal = 1;
place = "{0, 21}";
target = up;
type = BottomGhost;
},
{
horizontal = 1;
place = "{705, -20}";
target = down;
type = TopGhost;
},
{
place = "{21, 720}";
type = Stem;
}
);
layerId = "0D3EB0FA-AC0F-4259-9DA6-5CB309C7FB4D";
paths = (
{
closed = 1;
nodes = (
"590 0 LINE",
"741 0 LINE",
"445 705 LINE",
"316 705 LINE",
"21 0 LINE",
"168 0 LINE",
"380 541 LINE"
);
}
);
width = 757;
}
);
unicode = 039B;
},
{
glyphname = Beta;
layers = (
{
hints = (
{
place = "{73, 136}";
type = Stem;
},
{
place = "{455, 139}";
type = Stem;
},
{
place = "{502, 139}";
type = Stem;
},
{
horizontal = 1;
place = "{0, 115}";
type = Stem;
},
{
horizontal = 1;
place = "{304, 105}";
type = Stem;
},
{
horizontal = 1;
place = "{588, 115}";
type = Stem;
}
);
layerId = "0D3EB0FA-AC0F-4259-9DA6-5CB309C7FB4D";
paths = (
{
closed = 1;
nodes = (
"73 0 LINE",
"367 0 LINE SMOOTH",
"553 0 OFFCURVE",
"641 82 OFFCURVE",
"641 195 CURVE SMOOTH",
"641 285 OFFCURVE",
"590 345 OFFCURVE",
"489 366 CURVE",
"554 393 OFFCURVE",
"594 447 OFFCURVE",
"594 526 CURVE SMOOTH",
"594 648 OFFCURVE",
"486 703 OFFCURVE",
"352 703 CURVE SMOOTH",
"73 703 LINE"
);
},
{
closed = 1;
nodes = (
"209 588 LINE",
"335 588 LINE SMOOTH",
"410 588 OFFCURVE",
"455 559 OFFCURVE",
"455 500 CURVE SMOOTH",
"455 445 OFFCURVE",
"416 409 OFFCURVE",
"333 409 CURVE SMOOTH",
"209 409 LINE"
);
},
{
closed = 1;
nodes = (
"209 304 LINE",
"346 304 LINE SMOOTH",
"458 304 OFFCURVE",
"502 269 OFFCURVE",
"502 210 CURVE SMOOTH",
"502 150 OFFCURVE",
"456 115 OFFCURVE",
"363 115 CURVE SMOOTH",
"209 115 LINE"
);
}
);
width = 682;
}
);
unicode = 0392;
},
{
glyphname = Zeta;
layers = (
{
hints = (
{
horizontal = 1;
place = "{0, 120}";
type = Stem;
},
{
horizontal = 1;
place = "{583, 120}";
type = Stem;
},
{
place = "{27, 611}";
type = Stem;
}
);
layerId = "0D3EB0FA-AC0F-4259-9DA6-5CB309C7FB4D";
paths = (
{
closed = 1;
nodes = (
"638 596 LINE",
"638 703 LINE",
"47 703 LINE",
"47 583 LINE",
"452 583 LINE",
"27 107 LINE",
"27 0 LINE",
"627 0 LINE",
"627 120 LINE",
"216 120 LINE"
);
}
);
width = 670;
}
);
unicode = 0396;
},
{
glyphname = Pi;
layers = (
{
hints = (
{
horizontal = 1;
place = "{0, 21}";
target = up;
type = BottomGhost;
},
{
horizontal = 1;
place = "{578, 125}";
type = Stem;
},
{
place = "{73, 139}";
type = Stem;
},
{
place = "{512, 139}";
type = Stem;
}
);
layerId = "0D3EB0FA-AC0F-4259-9DA6-5CB309C7FB4D";
paths = (
{
closed = 1;
nodes = (
"73 0 LINE",
"212 0 LINE",
"212 578 LINE",
"512 578 LINE",
"512 0 LINE",
"651 0 LINE",
"651 703 LINE",
"73 703 LINE"
);
}
);
width = 724;
}
);
unicode = 03A0;
},
{
glyphname = Xi;
layers = (
{
hints = (
{
horizontal = 1;
place = "{0, 131}";
type = Stem;
},
{
horizontal = 1;
place = "{294, 124}";
type = Stem;
},
{
horizontal = 1;
place = "{572, 131}";
type = Stem;
},
{
place = "{45, 520}";
type = Stem;
}
);
layerId = "0D3EB0FA-AC0F-4259-9DA6-5CB309C7FB4D";
paths = (
{
closed = 1;
nodes = (
"557 572 LINE",
"557 703 LINE",
"53 703 LINE",
"53 572 LINE"
);
},
{
closed = 1;
nodes = (
"525 294 LINE",
"525 418 LINE",
"85 418 LINE",
"85 294 LINE"
);
},
{
closed = 1;
nodes = (
"565 0 LINE",
"565 131 LINE",
"45 131 LINE",
"45 0 LINE"
);
}
);
width = 603;
}
);
unicode = 039E;
},
{
glyphname = Sigma;
layers = (
{
hints = (
{
horizontal = 1;
place = "{0, 120}";
type = Stem;
},
{
horizontal = 1;
place = "{583, 120}";
type = Stem;
},
{
place = "{31, 580}";
type = Stem;
}
);
layerId = "0D3EB0FA-AC0F-4259-9DA6-5CB309C7FB4D";
paths = (
{
closed = 1;
nodes = (
"254 353 LINE",
"31 107 LINE",
"31 0 LINE",
"611 0 LINE",
"611 120 LINE",
"220 120 LINE",
"429 353 LINE",
"228 583 LINE",
"603 583 LINE",
"603 703 LINE",
"42 703 LINE",
"42 596 LINE"
);
}
);
width = 645;
}
);
unicode = 03A3;
},
{
glyphname = Psi;
layers = (
{
hints = (
{
horizontal = 1;
place = "{0, 21}";
target = up;
type = BottomGhost;
},
{
horizontal = 1;
place = "{131, 127}";
type = Stem;
},
{
horizontal = 1;
place = "{703, -20}";
target = down;
type = TopGhost;
},
{
place = "{46, 139}";
type = Stem;
},
{
place = "{349, 139}";
type = Stem;
},
{
place = "{653, 139}";
type = Stem;
}
);
layerId = "0D3EB0FA-AC0F-4259-9DA6-5CB309C7FB4D";
paths = (
{
closed = 1;
nodes = (
"653 445 LINE SMOOTH",
"653 330 OFFCURVE",
"597 258 OFFCURVE",
"488 258 CURVE",
"488 703 LINE",
"349 703 LINE",
"349 258 LINE",
"241 258 OFFCURVE",
"185 330 OFFCURVE",
"185 445 CURVE SMOOTH",
"185 703 LINE",
"46 703 LINE",
"46 445 LINE SMOOTH",
"46 242 OFFCURVE",
"163 131 OFFCURVE",
"348 131 CURVE",
"348 0 LINE",
"488 0 LINE",
"488 131 LINE",
"678 131 OFFCURVE",
"792 241 OFFCURVE",
"792 448 CURVE SMOOTH",
"792 703 LINE",
"653 703 LINE"
);
}
);
width = 835;
}
);
unicode = 03A8;
},
{
glyphname = omicron;
layers = (
{
hints = (
{
horizontal = 1;
place = "{-12, 116}";
type = Stem;
},
{
horizontal = 1;
place = "{409, 115}";
type = Stem;
},
{
place = "{36, 134}";
type = Stem;
},
{
place = "{459, 134}";
type = Stem;
}
);
layerId = "0D3EB0FA-AC0F-4259-9DA6-5CB309C7FB4D";
paths = (
{
closed = 1;
nodes = (
"593 405 OFFCURVE",
"476 524 OFFCURVE",
"315 524 CURVE SMOOTH",
"153 524 OFFCURVE",
"36 404 OFFCURVE",
"36 255 CURVE SMOOTH",
"36 108 OFFCURVE",
"153 -12 OFFCURVE",
"313 -12 CURVE SMOOTH",
"476 -12 OFFCURVE",
"593 111 OFFCURVE",
"593 257 CURVE SMOOTH"
);
},
{
closed = 1;
nodes = (
"459 173 OFFCURVE",
"400 104 OFFCURVE",
"315 104 CURVE SMOOTH",
"232 104 OFFCURVE",
"170 172 OFFCURVE",
"170 257 CURVE SMOOTH",
"170 341 OFFCURVE",
"228 409 OFFCURVE",
"313 409 CURVE SMOOTH",
"399 409 OFFCURVE",
"459 339 OFFCURVE",
"459 256 CURVE SMOOTH"
);
}
);
width = 630;
}
);
unicode = 03BF;
},
{
glyphname = kappa;
layers = (
{
hints = (
{
horizontal = 1;
place = "{0, 21}";
target = up;
type = BottomGhost;
},
{
horizontal = 1;
place = "{512, -20}";
target = down;
type = TopGhost;
},
{
place = "{54, 136}";
type = Stem;
}
);
layerId = "0D3EB0FA-AC0F-4259-9DA6-5CB309C7FB4D";
paths = (
{
closed = 1;
nodes = (
"190 512 LINE",
"54 512 LINE",
"54 0 LINE",
"190 0 LINE",
"190 250 LINE",
"368 0 LINE",
"523 0 LINE",
"312 289 LINE",
"516 512 LINE",
"356 512 LINE",
"190 321 LINE"
);
}
);
width = 528;
}
);
unicode = 03BA;
},
{
glyphname = nu;
layers = (
{
hints = (
{
horizontal = 1;
place = "{-2, 21}";
target = up;
type = BottomGhost;
},
{
place = "{1, 545}";
type = Stem;
}
);
layerId = "0D3EB0FA-AC0F-4259-9DA6-5CB309C7FB4D";
paths = (
{
closed = 1;
nodes = (
"546 511 LINE",
"404 511 LINE",
"275 158 LINE",
"146 511 LINE",
"1 511 LINE",
"210 -2 LINE",
"337 -2 LINE"
);
}
);
width = 568;
}
);
unicode = 03BD;
},
{
glyphname = tonos;
layers = (
{
hints = (
{
horizontal = 1;
place = "{575, 167}";
type = Stem;
},
{
place = "{88, 274}";
type = Stem;
}
);
layerId = "0D3EB0FA-AC0F-4259-9DA6-5CB309C7FB4D";
paths = (
{
closed = 1;
nodes = (
"88 575 LINE",
"185 575 LINE",
"362 742 LINE",
"186 742 LINE"
);
}
);
width = 414;
}
);
unicode = 0384;
},
{
glyphname = Alphatonos;
layers = (
{
hints = (
{
horizontal = 1;
place = "{0, 21}";
target = up;
type = BottomGhost;
},
{
horizontal = 1;
place = "{161, 113}";
type = Stem;
},
{
horizontal = 1;
place = "{538, 167}";
type = Stem;
},
{
place = "{21, 766}";
type = Stem;
}
);
layerId = "0D3EB0FA-AC0F-4259-9DA6-5CB309C7FB4D";
paths = (
{
closed = 1;
nodes = (
"569 161 LINE",
"636 0 LINE",
"787 0 LINE",
"483 705 LINE",
"355 705 LINE",
"52 0 LINE",
"199 0 LINE",
"267 161 LINE"
);
},
{
closed = 1;
nodes = (
"21 538 LINE",
"118 538 LINE",
"295 705 LINE",
"119 705 LINE"
);
},
{
closed = 1;
nodes = (
"418 541 LINE",
"525 274 LINE",
"311 274 LINE"
);
}
);
width = 811;
}
);
unicode = 0386;
},
{
glyphname = Epsilontonos;
layers = (
{
hints = (
{
place = "{334, 139}";
type = Stem;
},
{
horizontal = 1;
place = "{0, 121}";
type = Stem;
},
{
horizontal = 1;
place = "{299, 114}";
type = Stem;
},
{
horizontal = 1;
place = "{535, 167}";
type = Stem;
},
{
horizontal = 1;
place = "{582, 121}";
type = Stem;
}
);
layerId = "0D3EB0FA-AC0F-4259-9DA6-5CB309C7FB4D";
paths = (
{
closed = 1;
nodes = (
"473 299 LINE",
"813 299 LINE",
"813 413 LINE",
"473 413 LINE",
"473 582 LINE",
"845 582 LINE",
"845 703 LINE",
"334 703 LINE",
"334 0 LINE",
"853 0 LINE",
"853 121 LINE",
"473 121 LINE"
);
},
{
closed = 1;
nodes = (
"0 535 LINE",
"97 535 LINE",
"274 702 LINE",
"98 702 LINE"
);
}
);
width = 892;
}
);
unicode = 0388;
},
{
glyphname = Etatonos;
layers = (
{
hints = (
{
horizontal = 1;
place = "{0, 21}";
target = up;
type = BottomGhost;
},
{
horizontal = 1;
place = "{293, 125}";
type = Stem;
},
{
horizontal = 1;
place = "{535, 167}";
type = Stem;
},
{
place = "{335, 139}";
type = Stem;
},
{
place = "{789, 139}";
type = Stem;
}
);
layerId = "0D3EB0FA-AC0F-4259-9DA6-5CB309C7FB4D";
paths = (
{
closed = 1;
nodes = (
"335 0 LINE",
"474 0 LINE",
"474 293 LINE",
"789 293 LINE",
"789 0 LINE",
"928 0 LINE",
"928 703 LINE",
"789 703 LINE",
"789 418 LINE",
"474 418 LINE",
"474 703 LINE",
"335 703 LINE"
);
},
{
closed = 1;
nodes = (
"0 535 LINE",
"97 535 LINE",
"274 702 LINE",
"98 702 LINE"
);
}
);
width = 1000;
}
);
unicode = 0389;
},
{
glyphname = Iotatonos;
layers = (
{
hints = (
{
horizontal = 1;
place = "{0, 21}";
target = up;
type = BottomGhost;
},
{
horizontal = 1;
place = "{535, 167}";
type = Stem;
},
{
place = "{338, 139}";
type = Stem;
}
);
layerId = "0D3EB0FA-AC0F-4259-9DA6-5CB309C7FB4D";
paths = (
{
closed = 1;
nodes = (
"477 703 LINE",
"338 703 LINE",
"338 0 LINE",
"477 0 LINE"
);
},
{
closed = 1;
nodes = (
"0 535 LINE",
"97 535 LINE",
"274 702 LINE",
"98 702 LINE"
);
}
);
width = 550;
}
);
unicode = 038A;
},
{
glyphname = Omicrontonos;
layers = (
{
hints = (
{
place = "{205, 143}";
type = Stem;
},
{
place = "{805, 143}";
type = Stem;
},
{
horizontal = 1;
place = "{-14, 126}";
type = Stem;
},
{
horizontal = 1;
place = "{535, 167}";
type = Stem;
},
{
horizontal = 1;
place = "{591, 126}";
type = Stem;
}
);
layerId = "0D3EB0FA-AC0F-4259-9DA6-5CB309C7FB4D";
paths = (
{
closed = 1;
nodes = (
"948 552 OFFCURVE",
"790 717 OFFCURVE",
"578 717 CURVE SMOOTH",
"363 717 OFFCURVE",
"205 553 OFFCURVE",
"205 351 CURVE SMOOTH",
"205 148 OFFCURVE",
"363 -14 OFFCURVE",
"576 -14 CURVE SMOOTH",
"788 -14 OFFCURVE",
"948 152 OFFCURVE",
"948 353 CURVE SMOOTH"
);
},
{
closed = 1;
nodes = (
"0 535 LINE",
"97 535 LINE",
"274 702 LINE",
"98 702 LINE"
);
},
{
closed = 1;
nodes = (
"805 220 OFFCURVE",
"710 112 OFFCURVE",
"577 112 CURVE SMOOTH",
"443 112 OFFCURVE",
"348 221 OFFCURVE",
"348 353 CURVE SMOOTH",
"348 484 OFFCURVE",
"442 591 OFFCURVE",
"577 591 CURVE SMOOTH",
"710 591 OFFCURVE",
"805 481 OFFCURVE",
"805 350 CURVE SMOOTH"
);
}
);
width = 984;
}
);
unicode = 038C;
},
{
glyphname = Upsilontonos;
layers = (
{
hints = (
{
horizontal = 1;
place = "{0, 21}";
target = up;
type = BottomGhost;
},
{
horizontal = 1;
place = "{535, 167}";
type = Stem;
},
{
place = "{605, 139}";
type = Stem;
}
);
layerId = "0D3EB0FA-AC0F-4259-9DA6-5CB309C7FB4D";
paths = (
{
closed = 1;
nodes = (
"744 273 LINE",
"1012 703 LINE",
"856 703 LINE",
"677 402 LINE",
"497 703 LINE",
"336 703 LINE",
"605 271 LINE",
"605 0 LINE",
"744 0 LINE"
);
},
{
closed = 1;
nodes = (
"0 535 LINE",
"97 535 LINE",
"274 702 LINE",
"98 702 LINE"
);
}
);
width = 1021;
}
);
unicode = 038E;
},
{
glyphname = Gamma;
layers = (
{
hints = (
{
horizontal = 1;
place = "{0, 21}";
target = up;
type = BottomGhost;
},
{
horizontal = 1;
place = "{580, 123}";
type = Stem;
},
{
place = "{73, 139}";
type = Stem;
}
);
layerId = "0D3EB0FA-AC0F-4259-9DA6-5CB309C7FB4D";
paths = (
{
closed = 1;
nodes = (
"212 580 LINE",
"581 580 LINE",
"581 703 LINE",
"73 703 LINE",
"73 0 LINE",
"212 0 LINE"
);
}
);
width = 590;
}
);
unicode = 0393;
},
{
glyphname = Theta;
layers = (
{
hints = (
{
horizontal = 1;
place = "{-14, 126}";
type = Stem;
},
{
horizontal = 1;
place = "{295, 124}";
type = Stem;
},
{
horizontal = 1;
place = "{591, 126}";
type = Stem;
},
{
place = "{37, 143}";
type = Stem;
},
{
place = "{265, 287}";
type = Stem;
},
{
place = "{637, 143}";
type = Stem;
}
);
layerId = "0D3EB0FA-AC0F-4259-9DA6-5CB309C7FB4D";
paths = (
{
closed = 1;
nodes = (
"780 552 OFFCURVE",
"622 717 OFFCURVE",
"410 717 CURVE SMOOTH",
"196 717 OFFCURVE",
"37 553 OFFCURVE",
"37 351 CURVE SMOOTH",
"37 148 OFFCURVE",
"195 -14 OFFCURVE",
"408 -14 CURVE SMOOTH",
"620 -14 OFFCURVE",
"780 152 OFFCURVE",
"780 353 CURVE SMOOTH"
);
},
{
closed = 1;
nodes = (
"637 220 OFFCURVE",
"543 112 OFFCURVE",
"410 112 CURVE SMOOTH",
"274 112 OFFCURVE",
"180 221 OFFCURVE",
"180 353 CURVE SMOOTH",
"180 484 OFFCURVE",
"274 591 OFFCURVE",
"409 591 CURVE SMOOTH",
"542 591 OFFCURVE",
"637 481 OFFCURVE",
"637 350 CURVE SMOOTH"
);
},
{
closed = 1;
nodes = (
"552 295 LINE",
"552 419 LINE",
"265 419 LINE",
"265 295 LINE"
);
}
);
width = 817;
}
);
unicode = 0398;
},
{
glyphname = Iotadieresis;
layers = (
{
hints = (
{
horizontal = 1;
place = "{0, 21}";
target = up;
type = BottomGhost;
},
{
horizontal = 1;
place = "{703, -20}";
target = down;
type = TopGhost;
},
{
horizontal = 1;
place = "{719, 145}";
type = Stem;
},
{
place = "{81, 139}";
type = Stem;
}
);
layerId = "0D3EB0FA-AC0F-4259-9DA6-5CB309C7FB4D";
paths = (
{
closed = 1;
nodes = (
"-28 747 OFFCURVE",
"5 719 OFFCURVE",
"46 719 CURVE SMOOTH",
"87 719 OFFCURVE",
"120 747 OFFCURVE",
"120 792 CURVE SMOOTH",
"120 836 OFFCURVE",
"87 864 OFFCURVE",
"46 864 CURVE SMOOTH",
"5 864 OFFCURVE",
"-28 836 OFFCURVE",
"-28 792 CURVE SMOOTH"
);
},
{
closed = 1;
nodes = (
"182 747 OFFCURVE",
"214 719 OFFCURVE",
"254 719 CURVE SMOOTH",
"297 719 OFFCURVE",
"328 747 OFFCURVE",
"328 792 CURVE SMOOTH",
"328 836 OFFCURVE",
"297 864 OFFCURVE",
"254 864 CURVE SMOOTH",
"214 864 OFFCURVE",
"182 836 OFFCURVE",
"182 792 CURVE SMOOTH"
);
},
{
closed = 1;
nodes = (
"220 703 LINE",
"81 703 LINE",
"81 0 LINE",
"220 0 LINE"
);
}
);
width = 301;
}
);
unicode = 03AA;
},
{
glyphname = Upsilondieresis;
layers = (
{
hints = (
{
place = "{171, 147}";
type = Stem;
},
{
place = "{278, 139}";
type = Stem;
},
{
place = "{380, 146}";
type = Stem;
},
{
horizontal = 1;
place = "{0, 21}";
target = up;
type = BottomGhost;
},
{
horizontal = 1;
place = "{703, -20}";
target = down;
type = TopGhost;
},
{
horizontal = 1;
place = "{719, 145}";
type = Stem;
}
);
layerId = "0D3EB0FA-AC0F-4259-9DA6-5CB309C7FB4D";
paths = (
{
closed = 1;
nodes = (
"171 747 OFFCURVE",
"203 719 OFFCURVE",
"244 719 CURVE SMOOTH",
"285 719 OFFCURVE",
"318 747 OFFCURVE",
"318 792 CURVE SMOOTH",
"318 836 OFFCURVE",
"285 864 OFFCURVE",
"244 864 CURVE SMOOTH",
"203 864 OFFCURVE",
"171 836 OFFCURVE",
"171 792 CURVE SMOOTH"
);
},
{
closed = 1;
nodes = (
"380 747 OFFCURVE",
"412 719 OFFCURVE",
"452 719 CURVE SMOOTH",
"495 719 OFFCURVE",
"526 747 OFFCURVE",
"526 792 CURVE SMOOTH",
"526 836 OFFCURVE",
"495 864 OFFCURVE",
"452 864 CURVE SMOOTH",
"412 864 OFFCURVE",
"380 836 OFFCURVE",
"380 792 CURVE SMOOTH"
);
},
{
closed = 1;
nodes = (
"417 273 LINE",
"685 703 LINE",
"529 703 LINE",
"350 402 LINE",
"170 703 LINE",
"9 703 LINE",
"278 271 LINE",
"278 0 LINE",
"417 0 LINE"
);
}
);
width = 691;
}
);
unicode = 03AB;
},
{
glyphname = dieresistonos;
layers = (
{
hints = (
{
place = "{5, 137}";
type = Stem;
},
{
place = "{344, 134}";
type = Stem;
},
{
horizontal = 1;
place = "{523, 135}";
type = Stem;
},
{
horizontal = 1;
place = "{524, 137}";
type = Stem;
},
{
horizontal = 1;
place = "{525, 167}";
type = Stem;
}
);
layerId = "0D3EB0FA-AC0F-4259-9DA6-5CB309C7FB4D";
paths = (
{
closed = 1;
nodes = (
"144 525 LINE",
"234 525 LINE",
"381 692 LINE",
"220 692 LINE"
);
},
{
closed = 1;
nodes = (
"450 524 OFFCURVE",
"478 556 OFFCURVE",
"478 592 CURVE SMOOTH",
"478 628 OFFCURVE",
"450 661 OFFCURVE",
"410 661 CURVE SMOOTH",
"371 661 OFFCURVE",
"344 628 OFFCURVE",
"344 592 CURVE SMOOTH",
"344 556 OFFCURVE",
"371 524 OFFCURVE",
"410 524 CURVE SMOOTH"
);
},
{
closed = 1;
nodes = (
"5 551 OFFCURVE",
"37 523 OFFCURVE",
"73 523 CURVE SMOOTH",
"109 523 OFFCURVE",
"142 551 OFFCURVE",
"142 591 CURVE SMOOTH",
"142 630 OFFCURVE",
"109 658 OFFCURVE",
"73 658 CURVE SMOOTH",
"37 658 OFFCURVE",
"5 630 OFFCURVE",
"5 591 CURVE SMOOTH"
);
}
);
width = 488;
}
);
unicode = 0385;
},
{
glyphname = alpha;
layers = (
{
hints = (
{
place = "{31, 135}";
type = Stem;
},
{
place = "{443, 136}";
type = Stem;
},
{
horizontal = 1;
place = "{-12, 115}";
type = Stem;
},
{
horizontal = 1;
place = "{0, 21}";
target = up;
type = BottomGhost;
},
{
horizontal = 1;
place = "{409, 103}";
type = Stem;
},
{
horizontal = 1;
place = "{409, 115}";
type = Stem;
}
);
layerId = "0D3EB0FA-AC0F-4259-9DA6-5CB309C7FB4D";
paths = (
{
closed = 1;
nodes = (
"579 0 LINE",
"579 512 LINE",
"443 512 LINE",
"443 433 LINE",
"399 492 OFFCURVE",
"345 524 OFFCURVE",
"270 524 CURVE SMOOTH",
"120 524 OFFCURVE",
"31 397 OFFCURVE",
"31 256 CURVE SMOOTH",
"31 117 OFFCURVE",
"122 -12 OFFCURVE",
"270 -12 CURVE SMOOTH",
"349 -12 OFFCURVE",
"395 24 OFFCURVE",
"443 80 CURVE"
);
},
{
closed = 1;
nodes = (
"390 409 OFFCURVE",
"447 337 OFFCURVE",
"447 257 CURVE SMOOTH",
"447 177 OFFCURVE",
"390 103 OFFCURVE",
"305 103 CURVE SMOOTH",
"222 103 OFFCURVE",
"166 178 OFFCURVE",
"166 255 CURVE SMOOTH",
"166 338 OFFCURVE",
"218 409 OFFCURVE",
"306 409 CURVE SMOOTH"
);
}
);
width = 606;
}
);
unicode = 03B1;
},
{
glyphname = rho;
layers = (
{
hints = (
{
horizontal = 1;
place = "{-174, 21}";
target = up;
type = BottomGhost;
},
{
horizontal = 1;
place = "{-11, 114}";
type = Stem;
},
{
horizontal = 1;
place = "{408, 116}";
type = Stem;
},
{
place = "{62, 136}";
type = Stem;
},
{
place = "{477, 135}";
type = Stem;
}
);
layerId = "0D3EB0FA-AC0F-4259-9DA6-5CB309C7FB4D";
paths = (
{
closed = 1;
nodes = (
"62 -174 LINE",
"198 -174 LINE",
"198 75 LINE",
"243 18 OFFCURVE",
"300 -11 OFFCURVE",
"372 -11 CURVE SMOOTH",
"523 -11 OFFCURVE",
"612 118 OFFCURVE",
"612 257 CURVE SMOOTH",
"612 417 OFFCURVE",
"493 524 OFFCURVE",
"338 524 CURVE SMOOTH",
"181 524 OFFCURVE",
"62 419 OFFCURVE",
"62 257 CURVE SMOOTH"
);
},
{
closed = 1;
nodes = (
"477 176 OFFCURVE",
"424 103 OFFCURVE",
"338 103 CURVE SMOOTH",
"254 103 OFFCURVE",
"195 168 OFFCURVE",
"195 253 CURVE SMOOTH",
"195 344 OFFCURVE",
"256 408 OFFCURVE",
"336 408 CURVE SMOOTH",
"421 408 OFFCURVE",
"477 340 OFFCURVE",
"477 257 CURVE SMOOTH"
);
}
);
width = 648;
}
);
unicode = 03C1;
},
{
glyphname = iota;
layers = (
{
hints = (
{
horizontal = 1;
place = "{0, 21}";
target = up;
type = BottomGhost;
},
{
horizontal = 1;
place = "{512, -20}";
target = down;
type = TopGhost;
},
{
place = "{67, 136}";
type = Stem;
}
);
layerId = "0D3EB0FA-AC0F-4259-9DA6-5CB309C7FB4D";
paths = (
{
closed = 1;
nodes = (
"203 512 LINE",
"67 512 LINE",
"67 0 LINE",
"203 0 LINE"
);
}
);
width = 227;
}
);
unicode = 03B9;
},
{
glyphname = eta;
layers = (
{
hints = (
{
place = "{52, 136}";
type = Stem;
},
{
place = "{391, 136}";
type = Stem;
},
{
horizontal = 1;
place = "{0, 21}";
target = up;
type = BottomGhost;
},
{
horizontal = 1;
place = "{403, 120}";
type = Stem;
},
{
horizontal = 1;
place = "{512, -20}";
target = down;
type = TopGhost;
}
);
layerId = "0D3EB0FA-AC0F-4259-9DA6-5CB309C7FB4D";
paths = (
{
closed = 1;
nodes = (
"275 523 OFFCURVE",
"224 487 OFFCURVE",
"189 443 CURVE",
"52 512 LINE",
"52 0 LINE",
"188 0 LINE",
"188 287 LINE SMOOTH",
"188 371 OFFCURVE",
"244 403 OFFCURVE",
"294 403 CURVE SMOOTH",
"343 403 OFFCURVE",
"391 370 OFFCURVE",
"391 287 CURVE SMOOTH",
"391 0 LINE",
"527 0 LINE",
"527 329 LINE SMOOTH",
"527 453 OFFCURVE",
"452 523 OFFCURVE",
"348 523 CURVE SMOOTH"
);
}
);
width = 582;
}
);
unicode = 03B7;
},
{
glyphname = gamma;
layers = (
{
hints = (
{
horizontal = 1;
place = "{-174, 21}";
target = up;
type = BottomGhost;
},
{
place = "{194, 136}";
type = Stem;
}
);
layerId = "0D3EB0FA-AC0F-4259-9DA6-5CB309C7FB4D";
paths = (
{
closed = 1;
nodes = (
"330 11 LINE",
"534 511 LINE",
"392 511 LINE",
"263 158 LINE",
"134 511 LINE",
"-12 511 LINE",
"194 8 LINE",
"194 -174 LINE",
"330 -174 LINE"
);
}
);
width = 553;
}
);
unicode = 03B3;
},
{
glyphname = upsilon;
layers = (
{
hints = (
{
horizontal = 1;
place = "{-12, 118}";
type = Stem;
},
{
horizontal = 1;
place = "{512, -20}";
target = down;
type = TopGhost;
},
{
place = "{41, 136}";
type = Stem;
},
{
place = "{380, 136}";
type = Stem;
}
);
layerId = "0D3EB0FA-AC0F-4259-9DA6-5CB309C7FB4D";
paths = (
{
closed = 1;
nodes = (
"516 512 LINE",
"380 512 LINE",
"380 219 LINE SMOOTH",
"380 158 OFFCURVE",
"343 106 OFFCURVE",
"278 106 CURVE SMOOTH",
"207 106 OFFCURVE",
"177 156 OFFCURVE",
"177 220 CURVE SMOOTH",
"177 512 LINE",
"41 512 LINE",
"41 228 LINE SMOOTH",
"41 69 OFFCURVE",
"124 -12 OFFCURVE",
"279 -12 CURVE SMOOTH",
"429 -12 OFFCURVE",
"516 72 OFFCURVE",
"516 231 CURVE SMOOTH"
);
}
);
width = 566;
}
);
unicode = 03C5;
},
{
glyphname = beta;
layers = (
{
hints = (
{
place = "{64, 136}";
type = Stem;
},
{
place = "{311, 136}";
type = Stem;
},
{
place = "{428, 135}";
type = Stem;
},
{
place = "{467, 135}";
type = Stem;
},
{
horizontal = 1;
place = "{-174, 21}";
target = up;
type = BottomGhost;
},
{
horizontal = 1;
place = "{-11, 116}";
type = Stem;
},
{
horizontal = 1;
place = "{334, 82}";
type = Stem;
},
{
horizontal = 1;
place = "{620, 117}";
type = Stem;
}
);
layerId = "0D3EB0FA-AC0F-4259-9DA6-5CB309C7FB4D";
paths = (
{
closed = 1;
nodes = (
"503 -11 OFFCURVE",
"602 79 OFFCURVE",
"602 202 CURVE SMOOTH",
"602 302 OFFCURVE",
"542 371 OFFCURVE",
"447 387 CURVE",
"515 416 OFFCURVE",
"563 464 OFFCURVE",
"563 543 CURVE SMOOTH",
"563 655 OFFCURVE",
"471 737 OFFCURVE",
"323 737 CURVE SMOOTH",
"155 737 OFFCURVE",
"64 630 OFFCURVE",
"64 490 CURVE SMOOTH",
"64 -174 LINE",
"200 -174 LINE",
"200 77 LINE",
"240 28 OFFCURVE",
"301 -11 OFFCURVE",
"382 -11 CURVE SMOOTH"
);
},
{
closed = 1;
nodes = (
"268 105 OFFCURVE",
"200 168 OFFCURVE",
"200 256 CURVE SMOOTH",
"200 491 LINE SMOOTH",
"200 563 OFFCURVE",
"244 620 OFFCURVE",
"321 620 CURVE SMOOTH",
"380 620 OFFCURVE",
"428 589 OFFCURVE",
"428 523 CURVE SMOOTH",
"428 468 OFFCURVE",
"392 424 OFFCURVE",
"311 416 CURVE",
"311 334 LINE",
"418 331 OFFCURVE",
"467 282 OFFCURVE",
"467 217 CURVE SMOOTH",
"467 153 OFFCURVE",
"419 105 OFFCURVE",
"352 105 CURVE SMOOTH"
);
}
);
width = 638;
}
);
unicode = 03B2;
},
{
glyphname = pi;
layers = (
{
hints = (
{
horizontal = 1;
place = "{0, 21}";
target = up;
type = BottomGhost;
},
{
horizontal = 1;
place = "{402, 110}";
type = Stem;
},
{
place = "{52, 136}";
type = Stem;
},
{
place = "{381, 136}";
type = Stem;
}
);
layerId = "0D3EB0FA-AC0F-4259-9DA6-5CB309C7FB4D";
paths = (
{
closed = 1;
nodes = (
"52 512 LINE",
"52 0 LINE",
"188 0 LINE",
"188 402 LINE",
"381 402 LINE",
"381 0 LINE",
"517 0 LINE",
"517 512 LINE"
);
}
);
width = 572;
}
);
unicode = 03C0;
},
{
glyphname = uni03BC;
layers = (
{
hints = (
{
place = "{67, 136}";
type = Stem;
},
{
place = "{406, 136}";
type = Stem;
},
{
horizontal = 1;
place = "{-174, 21}";
target = up;
type = BottomGhost;
},
{
horizontal = 1;
place = "{-11, 120}";
type = Stem;
},
{
horizontal = 1;
place = "{0, 21}";
target = up;
type = BottomGhost;
},
{
horizontal = 1;
place = "{512, -20}";
target = down;
type = TopGhost;
}
);
layerId = "0D3EB0FA-AC0F-4259-9DA6-5CB309C7FB4D";
paths = (
{
closed = 1;
nodes = (
"203 50 LINE",
"223 9 OFFCURVE",
"259 -11 OFFCURVE",
"296 -11 CURVE SMOOTH",
"348 -11 OFFCURVE",
"387 30 OFFCURVE",
"406 68 CURVE",
"542 0 LINE",
"542 512 LINE",
"406 512 LINE",
"406 226 LINE SMOOTH",
"406 154 OFFCURVE",
"363 109 OFFCURVE",
"300 109 CURVE SMOOTH",
"249 109 OFFCURVE",
"203 146 OFFCURVE",
"203 226 CURVE SMOOTH",
"203 512 LINE",
"67 512 LINE",
"67 -174 LINE",
"203 -174 LINE"
);
}
);
width = 565;
}
);
unicode = 03BC;
},
{
glyphname = tau;
layers = (
{
hints = (
{
place = "{118, 135}";
type = Stem;
},
{
horizontal = 1;
place = "{-11, 116}";
type = Stem;
},
{
horizontal = 1;
place = "{-11, 21}";
target = up;
type = BottomGhost;
},
{
horizontal = 1;
place = "{400, 112}";
type = Stem;
}
);
layerId = "0D3EB0FA-AC0F-4259-9DA6-5CB309C7FB4D";
paths = (
{
closed = 1;
nodes = (
"-9 512 LINE",
"-9 400 LINE",
"118 400 LINE",
"118 144 LINE SMOOTH",
"118 39 OFFCURVE",
"175 -11 OFFCURVE",
"266 -11 CURVE SMOOTH",
"302 -11 OFFCURVE",
"332 -2 OFFCURVE",
"357 10 CURVE",
"357 119 LINE",
"341 111 OFFCURVE",
"320 105 OFFCURVE",
"303 105 CURVE SMOOTH",
"268 105 OFFCURVE",
"253 127 OFFCURVE",
"253 164 CURVE SMOOTH",
"253 400 LINE",
"383 400 LINE",
"383 512 LINE"
);
}
);
width = 392;
}
);
unicode = 03C4;
},
{
glyphname = Phi;
layers = (
{
hints = (
{
place = "{37, 142}";
type = Stem;
},
{
place = "{388, 134}";
type = Stem;
},
{
place = "{728, 142}";
type = Stem;
},
{
horizontal = 1;
place = "{-5, 177}";
type = Stem;
},
{
horizontal = 1;
place = "{52, 120}";
type = Stem;
},
{
horizontal = 1;
place = "{533, 122}";
type = Stem;
},
{
horizontal = 1;
place = "{533, 175}";
type = Stem;
}
);
layerId = "0D3EB0FA-AC0F-4259-9DA6-5CB309C7FB4D";
paths = (
{
closed = 1;
nodes = (
"522 708 LINE",
"388 708 LINE",
"388 655 LINE",
"377 655 OFFCURVE",
"367 653 OFFCURVE",
"355 652 CURVE SMOOTH",
"150 639 OFFCURVE",
"37 511 OFFCURVE",
"37 353 CURVE SMOOTH",
"37 195 OFFCURVE",
"150 68 OFFCURVE",
"355 55 CURVE SMOOTH",
"367 54 OFFCURVE",
"377 52 OFFCURVE",
"388 52 CURVE",
"388 -5 LINE",
"522 -5 LINE",
"522 52 LINE",
"534 52 OFFCURVE",
"544 54 OFFCURVE",
"555 55 CURVE SMOOTH",
"759 71 OFFCURVE",
"870 195 OFFCURVE",
"870 355 CURVE SMOOTH",
"870 510 OFFCURVE",
"759 639 OFFCURVE",
"555 652 CURVE SMOOTH",
"544 653 OFFCURVE",
"534 655 OFFCURVE",
"522 655 CURVE"
);
},
{
closed = 1;
nodes = (
"522 533 LINE",
"653 528 OFFCURVE",
"728 453 OFFCURVE",
"728 351 CURVE SMOOTH",
"728 248 OFFCURVE",
"651 180 OFFCURVE",
"522 172 CURVE"
);
},
{
closed = 1;
nodes = (
"388 172 LINE",
"260 180 OFFCURVE",
"179 246 OFFCURVE",
"179 354 CURVE SMOOTH",
"179 459 OFFCURVE",
"260 528 OFFCURVE",
"388 533 CURVE"
);
}
);
width = 907;
}
);
unicode = 03A6;
},
{
glyphname = chi;
layers = (
{
hints = (
{
horizontal = 1;
place = "{-174, 21}";
target = up;
type = BottomGhost;
},
{
place = "{4, 525}";
type = Stem;
}
);
layerId = "0D3EB0FA-AC0F-4259-9DA6-5CB309C7FB4D";
paths = (
{
closed = 1;
nodes = (
"268 310 LINE",
"161 511 LINE",
"12 511 LINE",
"194 185 LINE",
"4 -174 LINE",
"149 -174 LINE",
"265 57 LINE",
"380 -174 LINE",
"529 -174 LINE",
"338 189 LINE",
"520 511 LINE",
"375 511 LINE"
);
}
);
width = 530;
}
);
unicode = 03C7;
},
{
glyphname = sigma;
layers = (
{
hints = (
{
place = "{36, 134}";
type = Stem;
},
{
place = "{459, 134}";
type = Stem;
},
{
horizontal = 1;
place = "{-12, 116}";
type = Stem;
},
{
horizontal = 1;
place = "{397, 115}";
type = Stem;
},
{
horizontal = 1;
place = "{400, 112}";
type = Stem;
}
);
layerId = "0D3EB0FA-AC0F-4259-9DA6-5CB309C7FB4D";
paths = (
{
closed = 1;
nodes = (
"651 400 LINE",
"651 512 LINE",
"325 512 LINE SMOOTH",
"149 512 OFFCURVE",
"36 389 OFFCURVE",
"36 249 CURVE SMOOTH",
"36 108 OFFCURVE",
"152 -12 OFFCURVE",
"313 -12 CURVE SMOOTH",
"456 -12 OFFCURVE",
"593 94 OFFCURVE",
"593 242 CURVE SMOOTH",
"593 307 OFFCURVE",
"563 365 OFFCURVE",
"507 400 CURVE"
);
},
{
closed = 1;
nodes = (
"459 167 OFFCURVE",
"400 104 OFFCURVE",
"315 104 CURVE SMOOTH",
"231 104 OFFCURVE",
"170 174 OFFCURVE",
"170 251 CURVE SMOOTH",
"170 334 OFFCURVE",
"227 397 OFFCURVE",
"315 397 CURVE SMOOTH",
"403 397 OFFCURVE",
"459 335 OFFCURVE",
"459 250 CURVE SMOOTH"
);
}
);
width = 661;
}
);
unicode = 03C3;
},
{
glyphname = theta;
layers = (
{
hints = (
{
horizontal = 1;
place = "{-12, 116}";
type = Stem;
},
{
horizontal = 1;
place = "{317, 110}";
type = Stem;
},
{
horizontal = 1;
place = "{622, 115}";
type = Stem;
},
{
place = "{36, 138}";
type = Stem;
},
{
place = "{442, 137}";
type = Stem;
}
);
layerId = "0D3EB0FA-AC0F-4259-9DA6-5CB309C7FB4D";
paths = (
{
closed = 1;
nodes = (
"118 737 OFFCURVE",
"36 556 OFFCURVE",
"36 359 CURVE SMOOTH",
"36 338 OFFCURVE",
"38 318 OFFCURVE",
"39 298 CURVE",
"58 104 OFFCURVE",
"159 -12 OFFCURVE",
"307 -12 CURVE SMOOTH",
"463 -12 OFFCURVE",
"561 111 OFFCURVE",
"577 305 CURVE",
"580 325 OFFCURVE",
"579 347 OFFCURVE",
"579 367 CURVE SMOOTH",
"579 570 OFFCURVE",
"488 737 OFFCURVE",
"309 737 CURVE SMOOTH"
);
},
{
closed = 1;
nodes = (
"174 427 LINE",
"178 483 OFFCURVE",
"191 527 OFFCURVE",
"211 559 CURVE SMOOTH",
"234 598 OFFCURVE",
"268 622 OFFCURVE",
"307 622 CURVE SMOOTH",
"346 622 OFFCURVE",
"378 599 OFFCURVE",
"402 562 CURVE SMOOTH",
"422 530 OFFCURVE",
"437 486 OFFCURVE",
"442 427 CURVE"
);
},
{
closed = 1;
nodes = (
"442 317 LINE",
"439 264 OFFCURVE",
"429 221 OFFCURVE",
"414 188 CURVE",
"411 183 OFFCURVE",
"410 178 OFFCURVE",
"407 174 CURVE",
"387 135 OFFCURVE",
"354 104 OFFCURVE",
"307 104 CURVE SMOOTH",
"275 104 OFFCURVE",
"243 121 OFFCURVE",
"218 157 CURVE",
"195 193 OFFCURVE",
"178 245 OFFCURVE",
"173 317 CURVE"
);
}
);
width = 615;
}
);
unicode = 03B8;
},
{
glyphname = lambda;
layers = (
{
hints = (
{
horizontal = 1;
place = "{0, 21}";
target = up;
type = BottomGhost;
},
{
horizontal = 1;
place = "{630, 107}";
type = Stem;
},
{
place = "{5, 546}";
type = Stem;
}
);
layerId = "0D3EB0FA-AC0F-4259-9DA6-5CB309C7FB4D";
paths = (
{
closed = 1;
nodes = (
"208 520 LINE",
"5 0 LINE",
"149 0 LINE",
"277 369 LINE",
"411 0 LINE",
"551 0 LINE",
"324 567 LINE",
"292 650 OFFCURVE",
"255 737 OFFCURVE",
"151 737 CURVE SMOOTH",
"111 737 OFFCURVE",
"70 725 OFFCURVE",
"34 709 CURVE",
"63 604 LINE",
"84 616 OFFCURVE",
"108 630 OFFCURVE",
"133 630 CURVE SMOOTH",
"168 630 OFFCURVE",
"202 546 OFFCURVE",
"208 521 CURVE"
);
}
);
width = 560;
}
);
unicode = 03BB;
},
{
glyphname = psi;
layers = (
{
hints = (
{
horizontal = 1;
place = "{-174, 21}";
target = up;
type = BottomGhost;
},
{
horizontal = 1;
place = "{-11, 117}";
type = Stem;
},
{
horizontal = 1;
place = "{512, -20}";
target = down;
type = TopGhost;
},
{
place = "{54, 136}";
type = Stem;
},
{
place = "{331, 136}";
type = Stem;
},
{
place = "{609, 136}";
type = Stem;
}
);
layerId = "0D3EB0FA-AC0F-4259-9DA6-5CB309C7FB4D";
paths = (
{
closed = 1;
nodes = (
"331 -174 LINE",
"467 -174 LINE",
"467 -11 LINE",
"616 -11 OFFCURVE",
"745 60 OFFCURVE",
"745 238 CURVE SMOOTH",
"745 512 LINE",
"609 512 LINE",
"609 237 LINE SMOOTH",
"609 141 OFFCURVE",
"539 106 OFFCURVE",
"467 106 CURVE",
"467 731 LINE",
"331 731 LINE",
"331 106 LINE",
"256 106 OFFCURVE",
"190 135 OFFCURVE",
"190 238 CURVE SMOOTH",
"190 512 LINE",
"54 512 LINE",
"54 235 LINE SMOOTH",
"54 68 OFFCURVE",
"176 -11 OFFCURVE",
"331 -11 CURVE"
);
}
);
width = 787;
}
);
unicode = 03C8;
},
{
glyphname = epsilon;
layers = (
{
hints = (
{
place = "{37, 134}";
type = Stem;
},
{
place = "{58, 134}";
type = Stem;
},
{
horizontal = 1;
place = "{-12, 116}";
type = Stem;
},
{
horizontal = 1;
place = "{213, 103}";
type = Stem;
},
{
horizontal = 1;
place = "{409, 115}";
type = Stem;
}
);
layerId = "0D3EB0FA-AC0F-4259-9DA6-5CB309C7FB4D";
paths = (
{
closed = 1;
nodes = (
"215 104 OFFCURVE",
"171 123 OFFCURVE",
"171 158 CURVE SMOOTH",
"171 187 OFFCURVE",
"202 213 OFFCURVE",
"278 213 CURVE SMOOTH",
"336 213 LINE",
"336 316 LINE",
"290 316 LINE SMOOTH",
"233 316 OFFCURVE",
"192 332 OFFCURVE",
"192 365 CURVE SMOOTH",
"192 393 OFFCURVE",
"226 409 OFFCURVE",
"270 409 CURVE SMOOTH",
"303 409 OFFCURVE",
"346 401 OFFCURVE",
"397 370 CURVE",
"431 480 LINE",
"375 511 OFFCURVE",
"317 524 OFFCURVE",
"260 524 CURVE SMOOTH",
"150 524 OFFCURVE",
"58 476 OFFCURVE",
"58 385 CURVE SMOOTH",
"58 333 OFFCURVE",
"90 290 OFFCURVE",
"150 267 CURVE",
"77 248 OFFCURVE",
"37 202 OFFCURVE",
"37 143 CURVE SMOOTH",
"37 49 OFFCURVE",
"142 -12 OFFCURVE",
"260 -12 CURVE SMOOTH",
"317 -12 OFFCURVE",
"381 2 OFFCURVE",
"440 29 CURVE",
"415 141 LINE",
"354 112 OFFCURVE",
"310 104 OFFCURVE",
"270 104 CURVE SMOOTH"
);
}
);
width = 462;
}
);
unicode = 03B5;
},
{
glyphname = delta;
layers = (
{
hints = (
{
horizontal = 1;
place = "{-12, 116}";
type = Stem;
},
{
horizontal = 1;
place = "{385, 99}";
type = Stem;
},
{
horizontal = 1;
place = "{625, 111}";
type = Stem;
},
{
place = "{36, 134}";
type = Stem;
},
{
place = "{456, 134}";
type = Stem;
}
);
layerId = "0D3EB0FA-AC0F-4259-9DA6-5CB309C7FB4D";
paths = (
{
closed = 1;
nodes = (
"291 625 LINE",
"513 625 LINE",
"513 736 LINE",
"90 736 LINE",
"90 625 LINE",
"293 483 LINE",
"285 484 OFFCURVE",
"277 484 OFFCURVE",
"269 484 CURVE SMOOTH",
"217 484 OFFCURVE",
"160 467 OFFCURVE",
"113 425 CURVE SMOOTH",
"66 383 OFFCURVE",
"36 320 OFFCURVE",
"36 248 CURVE SMOOTH",
"36 104 OFFCURVE",
"153 -12 OFFCURVE",
"312 -12 CURVE SMOOTH",
"472 -12 OFFCURVE",
"590 103 OFFCURVE",
"590 249 CURVE SMOOTH",
"590 364 OFFCURVE",
"525 440 OFFCURVE",
"437 507 CURVE"
);
},
{
closed = 1;
nodes = (
"456 174 OFFCURVE",
"400 104 OFFCURVE",
"313 104 CURVE SMOOTH",
"228 104 OFFCURVE",
"170 171 OFFCURVE",
"170 248 CURVE SMOOTH",
"170 325 OFFCURVE",
"229 385 OFFCURVE",
"316 385 CURVE SMOOTH",
"407 385 OFFCURVE",
"456 319 OFFCURVE",
"456 247 CURVE SMOOTH"
);
}
);
width = 627;
}
);
unicode = 03B4;
},
{
glyphname = alphatonos;
layers = (
{
hints = (
{
place = "{31, 135}";
type = Stem;
},
{
place = "{443, 136}";
type = Stem;
},
{
horizontal = 1;
place = "{-12, 115}";
type = Stem;
},
{
horizontal = 1;
place = "{0, 21}";
target = up;
type = BottomGhost;
},
{
horizontal = 1;
place = "{409, 103}";
type = Stem;
},
{
horizontal = 1;
place = "{409, 115}";
type = Stem;
},
{
horizontal = 1;
place = "{575, 167}";
type = Stem;
}
);
layerId = "0D3EB0FA-AC0F-4259-9DA6-5CB309C7FB4D";
paths = (
{
closed = 1;
nodes = (
"248 575 LINE",
"345 575 LINE",
"522 742 LINE",
"346 742 LINE"
);
},
{
closed = 1;
nodes = (
"579 0 LINE",
"579 512 LINE",
"443 512 LINE",
"443 433 LINE",
"399 492 OFFCURVE",
"345 524 OFFCURVE",
"270 524 CURVE SMOOTH",
"120 524 OFFCURVE",
"31 397 OFFCURVE",
"31 256 CURVE SMOOTH",
"31 117 OFFCURVE",
"122 -12 OFFCURVE",
"270 -12 CURVE SMOOTH",
"349 -12 OFFCURVE",
"395 24 OFFCURVE",
"443 80 CURVE"
);
},
{
closed = 1;
nodes = (
"390 409 OFFCURVE",
"447 337 OFFCURVE",
"447 257 CURVE SMOOTH",
"447 177 OFFCURVE",
"390 103 OFFCURVE",
"305 103 CURVE SMOOTH",
"222 103 OFFCURVE",
"166 178 OFFCURVE",
"166 255 CURVE SMOOTH",
"166 338 OFFCURVE",
"218 409 OFFCURVE",
"306 409 CURVE SMOOTH"
);
}
);
width = 607;
}
);
unicode = 03AC;
},
{
glyphname = etatonos;
layers = (
{
hints = (
{
place = "{52, 136}";
type = Stem;
},
{
place = "{391, 136}";
type = Stem;
},
{
horizontal = 1;
place = "{0, 21}";
target = up;
type = BottomGhost;
},
{
horizontal = 1;
place = "{403, 120}";
type = Stem;
},
{
horizontal = 1;
place = "{512, -20}";
target = down;
type = TopGhost;
},
{
horizontal = 1;
place = "{575, 167}";
type = Stem;
}
);
layerId = "0D3EB0FA-AC0F-4259-9DA6-5CB309C7FB4D";
paths = (
{
closed = 1;
nodes = (
"221 575 LINE",
"318 575 LINE",
"495 742 LINE",
"319 742 LINE"
);
},
{
closed = 1;
nodes = (
"275 523 OFFCURVE",
"224 487 OFFCURVE",
"189 443 CURVE",
"52 512 LINE",
"52 0 LINE",
"188 0 LINE",
"188 287 LINE SMOOTH",
"188 371 OFFCURVE",
"244 403 OFFCURVE",
"294 403 CURVE SMOOTH",
"343 403 OFFCURVE",
"391 370 OFFCURVE",
"391 287 CURVE SMOOTH",
"391 0 LINE",
"527 0 LINE",
"527 329 LINE SMOOTH",
"527 453 OFFCURVE",
"452 523 OFFCURVE",
"348 523 CURVE SMOOTH"
);
}
);
width = 582;
}
);
unicode = 03AE;
},
{
glyphname = iotatonos;
layers = (
{
hints = (
{
horizontal = 1;
place = "{0, 21}";
target = up;
type = BottomGhost;
},
{
horizontal = 1;
place = "{512, -20}";
target = down;
type = TopGhost;
},
{
horizontal = 1;
place = "{575, 167}";
type = Stem;
},
{
place = "{67, 136}";
type = Stem;
}
);
layerId = "0D3EB0FA-AC0F-4259-9DA6-5CB309C7FB4D";
paths = (
{
closed = 1;
nodes = (
"82 575 LINE",
"179 575 LINE",
"356 742 LINE",
"180 742 LINE"
);
},
{
closed = 1;
nodes = (
"203 512 LINE",
"67 512 LINE",
"67 0 LINE",
"203 0 LINE"
);
}
);
width = 285;
}
);
unicode = 03AF;
},
{
glyphname = omicrontonos;
layers = (
{
hints = (
{
horizontal = 1;
place = "{-12, 116}";
type = Stem;
},
{
horizontal = 1;
place = "{409, 115}";
type = Stem;
},
{
horizontal = 1;
place = "{575, 167}";
type = Stem;
},
{
place = "{36, 134}";
type = Stem;
},
{
place = "{459, 134}";
type = Stem;
}
);
layerId = "0D3EB0FA-AC0F-4259-9DA6-5CB309C7FB4D";
paths = (
{
closed = 1;
nodes = (
"265 575 LINE",
"362 575 LINE",
"539 742 LINE",
"363 742 LINE"
);
},
{
closed = 1;
nodes = (
"593 405 OFFCURVE",
"476 524 OFFCURVE",
"315 524 CURVE SMOOTH",
"153 524 OFFCURVE",
"36 404 OFFCURVE",
"36 255 CURVE SMOOTH",
"36 108 OFFCURVE",
"153 -12 OFFCURVE",
"313 -12 CURVE SMOOTH",
"476 -12 OFFCURVE",
"593 111 OFFCURVE",
"593 257 CURVE SMOOTH"
);
},
{
closed = 1;
nodes = (
"459 173 OFFCURVE",
"400 104 OFFCURVE",
"315 104 CURVE SMOOTH",
"232 104 OFFCURVE",
"170 172 OFFCURVE",
"170 257 CURVE SMOOTH",
"170 341 OFFCURVE",
"228 409 OFFCURVE",
"313 409 CURVE SMOOTH",
"399 409 OFFCURVE",
"459 339 OFFCURVE",
"459 256 CURVE SMOOTH"
);
}
);
width = 630;
}
);
unicode = 03CC;
},
{
glyphname = upsilontonos;
layers = (
{
hints = (
{
horizontal = 1;
place = "{-12, 118}";
type = Stem;
},
{
horizontal = 1;
place = "{512, -20}";
target = down;
type = TopGhost;
},
{
horizontal = 1;
place = "{575, 167}";
type = Stem;
},
{
place = "{41, 136}";
type = Stem;
},
{
place = "{380, 136}";
type = Stem;
}
);
layerId = "0D3EB0FA-AC0F-4259-9DA6-5CB309C7FB4D";
paths = (
{
closed = 1;
nodes = (
"231 575 LINE",
"328 575 LINE",
"505 742 LINE",
"329 742 LINE"
);
},
{
closed = 1;
nodes = (
"516 512 LINE",
"380 512 LINE",
"380 219 LINE SMOOTH",
"380 158 OFFCURVE",
"343 106 OFFCURVE",
"278 106 CURVE SMOOTH",
"207 106 OFFCURVE",
"177 156 OFFCURVE",
"177 220 CURVE SMOOTH",
"177 512 LINE",
"41 512 LINE",
"41 228 LINE SMOOTH",
"41 69 OFFCURVE",
"124 -12 OFFCURVE",
"279 -12 CURVE SMOOTH",
"429 -12 OFFCURVE",
"516 72 OFFCURVE",
"516 231 CURVE SMOOTH"
);
}
);
width = 566;
}
);
unicode = 03CD;
},
{
glyphname = iotadieresistonos;
layers = (
{
hints = (
{
place = "{-59, 137}";
type = Stem;
},
{
place = "{108, 136}";
type = Stem;
},
{
place = "{280, 134}";
type = Stem;
},
{
horizontal = 1;
place = "{0, 21}";
target = up;
type = BottomGhost;
},
{
horizontal = 1;
place = "{512, -20}";
target = down;
type = TopGhost;
},
{
horizontal = 1;
place = "{582, 135}";
type = Stem;
},
{
horizontal = 1;
place = "{583, 137}";
type = Stem;
},
{
horizontal = 1;
place = "{584, 167}";
type = Stem;
}
);
layerId = "0D3EB0FA-AC0F-4259-9DA6-5CB309C7FB4D";
paths = (
{
closed = 1;
nodes = (
"80 584 LINE",
"170 584 LINE",
"317 751 LINE",
"156 751 LINE"
);
},
{
closed = 1;
nodes = (
"386 583 OFFCURVE",
"414 615 OFFCURVE",
"414 651 CURVE SMOOTH",
"414 687 OFFCURVE",
"386 720 OFFCURVE",
"346 720 CURVE SMOOTH",
"307 720 OFFCURVE",
"280 687 OFFCURVE",
"280 651 CURVE SMOOTH",
"280 615 OFFCURVE",
"307 583 OFFCURVE",
"346 583 CURVE SMOOTH"
);
},
{
closed = 1;
nodes = (
"-59 610 OFFCURVE",
"-28 582 OFFCURVE",
"9 582 CURVE SMOOTH",
"45 582 OFFCURVE",
"78 610 OFFCURVE",
"78 650 CURVE SMOOTH",
"78 689 OFFCURVE",
"45 717 OFFCURVE",
"9 717 CURVE SMOOTH",
"-28 717 OFFCURVE",
"-59 689 OFFCURVE",
"-59 650 CURVE SMOOTH"
);
},
{
closed = 1;
nodes = (
"244 512 LINE",
"108 512 LINE",
"108 0 LINE",
"244 0 LINE"
);
}
);
width = 343;
}
);
unicode = 0390;
},
{
glyphname = iotadieresis;
layers = (
{
hints = (
{
place = "{-30, 148}";
type = Stem;
},
{
place = "{81, 136}";
type = Stem;
},
{
place = "{180, 146}";
type = Stem;
},
{
horizontal = 1;
place = "{0, 21}";
target = up;
type = BottomGhost;
},
{
horizontal = 1;
place = "{512, -20}";
target = down;
type = TopGhost;
},
{
horizontal = 1;
place = "{545, 145}";
type = Stem;
}
);
layerId = "0D3EB0FA-AC0F-4259-9DA6-5CB309C7FB4D";
paths = (
{
closed = 1;
nodes = (
"-30 573 OFFCURVE",
"3 545 OFFCURVE",
"44 545 CURVE SMOOTH",
"85 545 OFFCURVE",
"118 573 OFFCURVE",
"118 618 CURVE SMOOTH",
"118 662 OFFCURVE",
"85 690 OFFCURVE",
"44 690 CURVE SMOOTH",
"3 690 OFFCURVE",
"-30 662 OFFCURVE",
"-30 618 CURVE SMOOTH"
);
},
{
closed = 1;
nodes = (
"180 573 OFFCURVE",
"212 545 OFFCURVE",
"252 545 CURVE SMOOTH",
"295 545 OFFCURVE",
"326 573 OFFCURVE",
"326 618 CURVE SMOOTH",
"326 662 OFFCURVE",
"295 690 OFFCURVE",
"252 690 CURVE SMOOTH",
"212 690 OFFCURVE",
"180 662 OFFCURVE",
"180 618 CURVE SMOOTH"
);
},
{
closed = 1;
nodes = (
"217 512 LINE",
"81 512 LINE",
"81 0 LINE",
"217 0 LINE"
);
}
);
width = 295;
}
);
unicode = 03CA;
},
{
glyphname = upsilondieresis;
layers = (
{
hints = (
{
place = "{41, 136}";
type = Stem;
},
{
place = "{102, 147}";
type = Stem;
},
{
place = "{311, 146}";
type = Stem;
},
{
place = "{380, 136}";
type = Stem;
},
{
horizontal = 1;
place = "{-12, 118}";
type = Stem;
},
{
horizontal = 1;
place = "{512, -20}";
target = down;
type = TopGhost;
},
{
horizontal = 1;
place = "{545, 145}";
type = Stem;
}
);
layerId = "0D3EB0FA-AC0F-4259-9DA6-5CB309C7FB4D";
paths = (
{
closed = 1;
nodes = (
"102 573 OFFCURVE",
"134 545 OFFCURVE",
"175 545 CURVE SMOOTH",
"216 545 OFFCURVE",
"249 573 OFFCURVE",
"249 618 CURVE SMOOTH",
"249 662 OFFCURVE",
"216 690 OFFCURVE",
"175 690 CURVE SMOOTH",
"134 690 OFFCURVE",
"102 662 OFFCURVE",
"102 618 CURVE SMOOTH"
);
},
{
closed = 1;
nodes = (
"311 573 OFFCURVE",
"343 545 OFFCURVE",
"383 545 CURVE SMOOTH",
"426 545 OFFCURVE",
"457 573 OFFCURVE",
"457 618 CURVE SMOOTH",
"457 662 OFFCURVE",
"426 690 OFFCURVE",
"383 690 CURVE SMOOTH",
"343 690 OFFCURVE",
"311 662 OFFCURVE",
"311 618 CURVE SMOOTH"
);
},
{
closed = 1;
nodes = (
"516 512 LINE",
"380 512 LINE",
"380 219 LINE SMOOTH",
"380 158 OFFCURVE",
"343 106 OFFCURVE",
"278 106 CURVE SMOOTH",
"207 106 OFFCURVE",
"177 156 OFFCURVE",
"177 220 CURVE SMOOTH",
"177 512 LINE",
"41 512 LINE",
"41 228 LINE SMOOTH",
"41 69 OFFCURVE",
"124 -12 OFFCURVE",
"279 -12 CURVE SMOOTH",
"429 -12 OFFCURVE",
"516 72 OFFCURVE",
"516 231 CURVE SMOOTH"
);
}
);
width = 566;
}
);
unicode = 03CB;
},
{
glyphname = upsilondieresistonos;
layers = (
{
hints = (
{
place = "{48, 136}";
type = Stem;
},
{
place = "{52, 137}";
type = Stem;
},
{
place = "{387, 136}";
type = Stem;
},
{
place = "{391, 134}";
type = Stem;
},
{
horizontal = 1;
place = "{-12, 118}";
type = Stem;
},
{
horizontal = 1;
place = "{512, -20}";
target = down;
type = TopGhost;
},
{
horizontal = 1;
place = "{583, 135}";
type = Stem;
},
{
horizontal = 1;
place = "{584, 137}";
type = Stem;
},
{
horizontal = 1;
place = "{585, 167}";
type = Stem;
}
);
layerId = "0D3EB0FA-AC0F-4259-9DA6-5CB309C7FB4D";
paths = (
{
closed = 1;
nodes = (
"191 585 LINE",
"281 585 LINE",
"428 752 LINE",
"267 752 LINE"
);
},
{
closed = 1;
nodes = (
"497 584 OFFCURVE",
"525 616 OFFCURVE",
"525 652 CURVE SMOOTH",
"525 688 OFFCURVE",
"497 721 OFFCURVE",
"457 721 CURVE SMOOTH",
"418 721 OFFCURVE",
"391 688 OFFCURVE",
"391 652 CURVE SMOOTH",
"391 616 OFFCURVE",
"418 584 OFFCURVE",
"457 584 CURVE SMOOTH"
);
},
{
closed = 1;
nodes = (
"52 611 OFFCURVE",
"84 583 OFFCURVE",
"120 583 CURVE SMOOTH",
"156 583 OFFCURVE",
"189 611 OFFCURVE",
"189 651 CURVE SMOOTH",
"189 690 OFFCURVE",
"156 718 OFFCURVE",
"120 718 CURVE SMOOTH",
"84 718 OFFCURVE",
"52 690 OFFCURVE",
"52 651 CURVE SMOOTH"
);
},
{
closed = 1;
nodes = (
"523 512 LINE",
"387 512 LINE",
"387 219 LINE SMOOTH",
"387 158 OFFCURVE",
"350 106 OFFCURVE",
"285 106 CURVE SMOOTH",
"214 106 OFFCURVE",
"184 156 OFFCURVE",
"184 220 CURVE SMOOTH",
"184 512 LINE",
"48 512 LINE",
"48 228 LINE SMOOTH",
"48 69 OFFCURVE",
"131 -12 OFFCURVE",
"286 -12 CURVE SMOOTH",
"436 -12 OFFCURVE",
"523 72 OFFCURVE",
"523 231 CURVE SMOOTH"
);
}
);
width = 572;
}
);
unicode = 03B0;
},
{
glyphname = Omegatonos;
layers = (
{
hints = (
{
place = "{197, 143}";
type = Stem;
},
{
place = "{756, 143}";
type = Stem;
},
{
horizontal = 1;
place = "{1, 121}";
type = Stem;
},
{
horizontal = 1;
place = "{535, 167}";
type = Stem;
},
{
horizontal = 1;
place = "{591, 126}";
type = Stem;
}
);
layerId = "0D3EB0FA-AC0F-4259-9DA6-5CB309C7FB4D";
paths = (
{
closed = 1;
nodes = (
"599 1 LINE",
"921 1 LINE",
"921 122 LINE",
"751 122 LINE",
"844 173 OFFCURVE",
"899 285 OFFCURVE",
"899 389 CURVE SMOOTH",
"899 593 OFFCURVE",
"746 717 OFFCURVE",
"549 717 CURVE SMOOTH",
"356 717 OFFCURVE",
"197 594 OFFCURVE",
"197 391 CURVE SMOOTH",
"197 286 OFFCURVE",
"251 172 OFFCURVE",
"345 122 CURVE",
"175 122 LINE",
"175 1 LINE",
"500 1 LINE",
"500 127 LINE",
"401 175 OFFCURVE",
"340 259 OFFCURVE",
"340 370 CURVE SMOOTH",
"340 498 OFFCURVE",
"416 591 OFFCURVE",
"548 591 CURVE SMOOTH",
"679 591 OFFCURVE",
"756 498 OFFCURVE",
"756 370 CURVE SMOOTH",
"756 258 OFFCURVE",
"695 178 OFFCURVE",
"599 127 CURVE"
);
},
{
closed = 1;
nodes = (
"0 535 LINE",
"97 535 LINE",
"274 702 LINE",
"98 702 LINE"
);
}
);
width = 969;
}
);
unicode = 038F;
},
{
glyphname = omega;
layers = (
{
hints = (
{
horizontal = 1;
place = "{-12, 112}";
type = Stem;
},
{
place = "{36, 134}";
type = Stem;
},
{
place = "{354, 136}";
type = Stem;
},
{
place = "{676, 134}";
type = Stem;
}
);
layerId = "0D3EB0FA-AC0F-4259-9DA6-5CB309C7FB4D";
paths = (
{
closed = 1;
nodes = (
"490 395 LINE",
"354 395 LINE",
"354 251 LINE SMOOTH",
"354 182 OFFCURVE",
"333 100 OFFCURVE",
"266 100 CURVE SMOOTH",
"208 100 OFFCURVE",
"170 168 OFFCURVE",
"170 264 CURVE SMOOTH",
"170 351 OFFCURVE",
"200 423 OFFCURVE",
"291 528 CURVE",
"150 528 LINE",
"71 447 OFFCURVE",
"36 357 OFFCURVE",
"36 260 CURVE SMOOTH",
"36 109 OFFCURVE",
"118 -12 OFFCURVE",
"262 -12 CURVE SMOOTH",
"342 -12 OFFCURVE",
"391 25 OFFCURVE",
"423 74 CURVE",
"455 25 OFFCURVE",
"503 -12 OFFCURVE",
"583 -12 CURVE SMOOTH",
"727 -12 OFFCURVE",
"810 103 OFFCURVE",
"810 260 CURVE SMOOTH",
"810 361 OFFCURVE",
"773 448 OFFCURVE",
"697 528 CURVE",
"555 528 LINE",
"646 423 OFFCURVE",
"676 350 OFFCURVE",
"676 264 CURVE SMOOTH",
"676 166 OFFCURVE",
"639 100 OFFCURVE",
"579 100 CURVE SMOOTH",
"531 100 OFFCURVE",
"490 141 OFFCURVE",
"490 251 CURVE SMOOTH"
);
}
);
width = 847;
}
);
unicode = 03C9;
},
{
glyphname = omegatonos;
layers = (
{
hints = (
{
horizontal = 1;
place = "{-12, 112}";
type = Stem;
},
{
horizontal = 1;
place = "{575, 167}";
type = Stem;
},
{
place = "{36, 134}";
type = Stem;
},
{
place = "{354, 136}";
type = Stem;
},
{
place = "{676, 134}";
type = Stem;
}
);
layerId = "0D3EB0FA-AC0F-4259-9DA6-5CB309C7FB4D";
paths = (
{
closed = 1;
nodes = (
"370 575 LINE",
"467 575 LINE",
"644 742 LINE",
"468 742 LINE"
);
},
{
closed = 1;
nodes = (
"490 395 LINE",
"354 395 LINE",
"354 251 LINE SMOOTH",
"354 182 OFFCURVE",
"333 100 OFFCURVE",
"266 100 CURVE SMOOTH",
"208 100 OFFCURVE",
"170 168 OFFCURVE",
"170 264 CURVE SMOOTH",
"170 351 OFFCURVE",
"200 423 OFFCURVE",
"291 528 CURVE",
"150 528 LINE",
"71 447 OFFCURVE",
"36 357 OFFCURVE",
"36 260 CURVE SMOOTH",
"36 109 OFFCURVE",
"118 -12 OFFCURVE",
"262 -12 CURVE SMOOTH",
"342 -12 OFFCURVE",
"391 25 OFFCURVE",
"423 74 CURVE",
"455 25 OFFCURVE",
"503 -12 OFFCURVE",
"583 -12 CURVE SMOOTH",
"727 -12 OFFCURVE",
"810 103 OFFCURVE",
"810 260 CURVE SMOOTH",
"810 361 OFFCURVE",
"773 448 OFFCURVE",
"697 528 CURVE",
"555 528 LINE",
"646 423 OFFCURVE",
"676 350 OFFCURVE",
"676 264 CURVE SMOOTH",
"676 166 OFFCURVE",
"639 100 OFFCURVE",
"579 100 CURVE SMOOTH",
"531 100 OFFCURVE",
"490 141 OFFCURVE",
"490 251 CURVE SMOOTH"
);
}
);
width = 846;
}
);
unicode = 03CE;
},
{
glyphname = epsilontonos;
layers = (
{
hints = (
{
place = "{37, 134}";
type = Stem;
},
{
place = "{58, 134}";
type = Stem;
},
{
horizontal = 1;
place = "{-12, 116}";
type = Stem;
},
{
horizontal = 1;
place = "{213, 103}";
type = Stem;
},
{
horizontal = 1;
place = "{409, 115}";
type = Stem;
},
{
horizontal = 1;
place = "{575, 167}";
type = Stem;
}
);
layerId = "0D3EB0FA-AC0F-4259-9DA6-5CB309C7FB4D";
paths = (
{
closed = 1;
nodes = (
"187 575 LINE",
"284 575 LINE",
"461 742 LINE",
"285 742 LINE"
);
},
{
closed = 1;
nodes = (
"215 104 OFFCURVE",
"171 123 OFFCURVE",
"171 158 CURVE SMOOTH",
"171 187 OFFCURVE",
"202 213 OFFCURVE",
"278 213 CURVE SMOOTH",
"336 213 LINE",
"336 316 LINE",
"290 316 LINE SMOOTH",
"233 316 OFFCURVE",
"192 332 OFFCURVE",
"192 365 CURVE SMOOTH",
"192 393 OFFCURVE",
"226 409 OFFCURVE",
"270 409 CURVE SMOOTH",
"303 409 OFFCURVE",
"346 401 OFFCURVE",
"397 370 CURVE",
"431 480 LINE",
"375 511 OFFCURVE",
"317 524 OFFCURVE",
"260 524 CURVE SMOOTH",
"150 524 OFFCURVE",
"58 476 OFFCURVE",
"58 385 CURVE SMOOTH",
"58 333 OFFCURVE",
"90 290 OFFCURVE",
"150 267 CURVE",
"77 248 OFFCURVE",
"37 202 OFFCURVE",
"37 143 CURVE SMOOTH",
"37 49 OFFCURVE",
"142 -12 OFFCURVE",
"260 -12 CURVE SMOOTH",
"317 -12 OFFCURVE",
"381 2 OFFCURVE",
"440 29 CURVE",
"415 141 LINE",
"354 112 OFFCURVE",
"310 104 OFFCURVE",
"270 104 CURVE SMOOTH"
);
}
);
width = 483;
}
);
unicode = 03AD;
},
{
glyphname = xi;
layers = (
{
hints = (
{
place = "{36, 133}";
type = Stem;
},
{
place = "{83, 133}";
type = Stem;
},
{
place = "{306, 126}";
type = Stem;
},
{
horizontal = 1;
place = "{322, 110}";
type = Stem;
},
{
horizontal = 1;
place = "{625, 111}";
type = Stem;
}
);
layerId = "0D3EB0FA-AC0F-4259-9DA6-5CB309C7FB4D";
paths = (
{
closed = 1;
nodes = (
"304 -23 OFFCURVE",
"306 -61 OFFCURVE",
"306 -81 CURVE SMOOTH",
"306 -105 OFFCURVE",
"296 -130 OFFCURVE",
"284 -157 CURVE",
"403 -167 LINE",
"418 -132 OFFCURVE",
"432 -94 OFFCURVE",
"432 -51 CURVE SMOOTH",
"432 6 OFFCURVE",
"406 74 OFFCURVE",
"292 95 CURVE",
"213 111 OFFCURVE",
"169 149 OFFCURVE",
"169 209 CURVE SMOOTH",
"169 296 OFFCURVE",
"251 322 OFFCURVE",
"373 322 CURVE",
"373 432 LINE",
"260 432 OFFCURVE",
"216 469 OFFCURVE",
"216 520 CURVE SMOOTH",
"216 605 OFFCURVE",
"323 620 OFFCURVE",
"432 620 CURVE",
"432 736 LINE",
"68 736 LINE",
"68 625 LINE",
"178 625 LINE",
"119 604 OFFCURVE",
"83 562 OFFCURVE",
"83 507 CURVE SMOOTH",
"83 447 OFFCURVE",
"128 404 OFFCURVE",
"196 379 CURVE",
"100 358 OFFCURVE",
"36 282 OFFCURVE",
"36 192 CURVE SMOOTH",
"36 94 OFFCURVE",
"106 12 OFFCURVE",
"228 -9 CURVE SMOOTH"
);
}
);
width = 442;
}
);
unicode = 03BE;
},
{
glyphname = zeta;
layers = (
{
hints = (
{
horizontal = 1;
place = "{626, 110}";
type = Stem;
},
{
place = "{38, 133}";
type = Stem;
},
{
place = "{318, 126}";
type = Stem;
}
);
layerId = "0D3EB0FA-AC0F-4259-9DA6-5CB309C7FB4D";
paths = (
{
closed = 1;
nodes = (
"447 736 LINE",
"84 736 LINE",
"84 626 LINE",
"293 626 LINE",
"128 509 OFFCURVE",
"38 367 OFFCURVE",
"38 228 CURVE SMOOTH",
"38 88 OFFCURVE",
"123 18 OFFCURVE",
"245 -8 CURVE SMOOTH",
"305 -21 OFFCURVE",
"318 -49 OFFCURVE",
"318 -77 CURVE SMOOTH",
"318 -101 OFFCURVE",
"308 -130 OFFCURVE",
"295 -157 CURVE",
"415 -167 LINE",
"430 -132 OFFCURVE",
"444 -94 OFFCURVE",
"444 -51 CURVE SMOOTH",
"444 20 OFFCURVE",
"406 73 OFFCURVE",
"302 96 CURVE SMOOTH",
"207 116 OFFCURVE",
"171 163 OFFCURVE",
"171 236 CURVE SMOOTH",
"171 370 OFFCURVE",
"286 524 OFFCURVE",
"447 623 CURVE"
);
}
);
width = 450;
}
);
unicode = 03B6;
},
{
glyphname = uni03C2;
layers = (
{
hints = (
{
horizontal = 1;
place = "{408, 114}";
type = Stem;
},
{
place = "{41, 133}";
type = Stem;
},
{
place = "{310, 126}";
type = Stem;
}
);
layerId = "0D3EB0FA-AC0F-4259-9DA6-5CB309C7FB4D";
paths = (
{
closed = 1;
nodes = (
"402 -167 LINE",
"419 -131 OFFCURVE",
"436 -95 OFFCURVE",
"436 -52 CURVE SMOOTH",
"436 21 OFFCURVE",
"385 60 OFFCURVE",
"309 94 CURVE",
"242 121 OFFCURVE",
"174 167 OFFCURVE",
"174 265 CURVE SMOOTH",
"174 338 OFFCURVE",
"218 408 OFFCURVE",
"298 408 CURVE SMOOTH",
"337 408 OFFCURVE",
"380 392 OFFCURVE",
"408 367 CURVE",
"461 463 LINE",
"416 503 OFFCURVE",
"353 522 OFFCURVE",
"292 522 CURVE SMOOTH",
"139 522 OFFCURVE",
"41 405 OFFCURVE",
"41 256 CURVE SMOOTH",
"41 120 OFFCURVE",
"115 38 OFFCURVE",
"221 -5 CURVE",
"273 -24 OFFCURVE",
"310 -42 OFFCURVE",
"310 -80 CURVE SMOOTH",
"310 -109 OFFCURVE",
"297 -134 OFFCURVE",
"281 -157 CURVE"
);
}
);
width = 522;
}
);
unicode = 03C2;
},
{
glyphname = phi;
layers = (
{
hints = (
{
place = "{36, 130}";
type = Stem;
},
{
place = "{332, 133}";
type = Stem;
},
{
place = "{636, 131}";
type = Stem;
},
{
horizontal = 1;
place = "{-7, 109}";
type = Stem;
},
{
horizontal = 1;
place = "{-6, 109}";
type = Stem;
},
{
horizontal = 1;
place = "{414, 115}";
type = Stem;
}
);
layerId = "0D3EB0FA-AC0F-4259-9DA6-5CB309C7FB4D";
paths = (
{
closed = 1;
nodes = (
"332 -172 LINE",
"465 -172 LINE",
"465 -6 LINE",
"644 2 OFFCURVE",
"767 126 OFFCURVE",
"767 288 CURVE SMOOTH",
"767 427 OFFCURVE",
"687 529 OFFCURVE",
"541 529 CURVE SMOOTH",
"361 529 OFFCURVE",
"332 387 OFFCURVE",
"332 241 CURVE SMOOTH",
"332 102 LINE",
"218 107 OFFCURVE",
"166 187 OFFCURVE",
"166 298 CURVE SMOOTH",
"166 366 OFFCURVE",
"198 439 OFFCURVE",
"281 528 CURVE",
"145 528 LINE",
"73 457 OFFCURVE",
"36 371 OFFCURVE",
"36 284 CURVE SMOOTH",
"36 105 OFFCURVE",
"166 6 OFFCURVE",
"332 -7 CURVE"
);
},
{
closed = 1;
nodes = (
"465 276 LINE",
"468 374 OFFCURVE",
"497 414 OFFCURVE",
"547 414 CURVE SMOOTH",
"621 414 OFFCURVE",
"636 330 OFFCURVE",
"636 286 CURVE SMOOTH",
"636 276 LINE",
"631 164 OFFCURVE",
"574 108 OFFCURVE",
"465 103 CURVE"
);
}
);
width = 803;
}
);
unicode = 03C6;
},
{
glyphname = Agrave;
layers = (
{
hints = (
{
horizontal = 1;
place = "{0, 21}";
target = up;
type = BottomGhost;
},
{
horizontal = 1;
place = "{161, 113}";
type = Stem;
},
{
horizontal = 1;
place = "{705, -20}";
target = down;
type = TopGhost;
},
{
place = "{21, 735}";
type = Stem;
}
);
layerId = "0D3EB0FA-AC0F-4259-9DA6-5CB309C7FB4D";
paths = (
{
closed = 1;
nodes = (
"368 754 LINE",
"467 754 LINE",
"367 921 LINE",
"232 883 LINE"
);
},
{
closed = 1;
nodes = (
"538 161 LINE",
"605 0 LINE",
"756 0 LINE",
"452 705 LINE",
"324 705 LINE",
"21 0 LINE",
"168 0 LINE",
"236 161 LINE"
);
},
{
closed = 1;
nodes = (
"387 541 LINE",
"494 274 LINE",
"280 274 LINE"
);
}
);
width = 780;
}
);
unicode = 00C0;
},
{
glyphname = Aacute;
layers = (
{
hints = (
{
horizontal = 1;
place = "{0, 21}";
target = up;
type = BottomGhost;
},
{
horizontal = 1;
place = "{161, 113}";
type = Stem;
},
{
horizontal = 1;
place = "{705, -20}";
target = down;
type = TopGhost;
},
{
place = "{21, 735}";
type = Stem;
}
);
layerId = "0D3EB0FA-AC0F-4259-9DA6-5CB309C7FB4D";
paths = (
{
closed = 1;
nodes = (
"561 883 LINE",
"424 921 LINE",
"327 754 LINE",
"423 754 LINE"
);
},
{
closed = 1;
nodes = (
"538 161 LINE",
"605 0 LINE",
"756 0 LINE",
"452 705 LINE",
"324 705 LINE",
"21 0 LINE",
"168 0 LINE",
"236 161 LINE"
);
},
{
closed = 1;
nodes = (
"387 541 LINE",
"494 274 LINE",
"280 274 LINE"
);
}
);
width = 780;
}
);
unicode = 00C1;
},
{
glyphname = Acircumflex;
layers = (
{
hints = (
{
horizontal = 1;
place = "{0, 21}";
target = up;
type = BottomGhost;
},
{
horizontal = 1;
place = "{161, 113}";
type = Stem;
},
{
horizontal = 1;
place = "{705, -20}";
target = down;
type = TopGhost;
},
{
horizontal = 1;
place = "{757, 163}";
type = Stem;
},
{
place = "{21, 735}";
type = Stem;
}
);
layerId = "0D3EB0FA-AC0F-4259-9DA6-5CB309C7FB4D";
paths = (
{
closed = 1;
nodes = (
"433 920 LINE",
"347 920 LINE",
"223 757 LINE",
"322 757 LINE",
"389 828 LINE",
"458 757 LINE",
"556 757 LINE"
);
},
{
closed = 1;
nodes = (
"538 161 LINE",
"605 0 LINE",
"756 0 LINE",
"452 705 LINE",
"324 705 LINE",
"21 0 LINE",
"168 0 LINE",
"236 161 LINE"
);
},
{
closed = 1;
nodes = (
"387 541 LINE",
"494 274 LINE",
"280 274 LINE"
);
}
);
width = 780;
}
);
unicode = 00C2;
},
{
glyphname = Atilde;
layers = (
{
hints = (
{
place = "{21, 735}";
type = Stem;
},
{
horizontal = 1;
place = "{0, 21}";
target = up;
type = BottomGhost;
},
{
horizontal = 1;
place = "{161, 113}";
type = Stem;
},
{
horizontal = 1;
place = "{705, -20}";
target = down;
type = TopGhost;
},
{
horizontal = 1;
place = "{767, 94}";
type = Stem;
},
{
horizontal = 1;
place = "{803, 94}";
type = Stem;
}
);
layerId = "0D3EB0FA-AC0F-4259-9DA6-5CB309C7FB4D";
paths = (
{
closed = 1;
nodes = (
"291 757 LINE",
"302 792 OFFCURVE",
"318 803 OFFCURVE",
"337 803 CURVE SMOOTH",
"372 803 OFFCURVE",
"410 767 OFFCURVE",
"456 767 CURVE SMOOTH",
"512 767 OFFCURVE",
"545 816 OFFCURVE",
"566 891 CURVE",
"489 906 LINE",
"480 874 OFFCURVE",
"467 861 OFFCURVE",
"450 861 CURVE SMOOTH",
"419 861 OFFCURVE",
"376 897 OFFCURVE",
"329 897 CURVE SMOOTH",
"272 897 OFFCURVE",
"233 846 OFFCURVE",
"212 771 CURVE"
);
},
{
closed = 1;
nodes = (
"538 161 LINE",
"605 0 LINE",
"756 0 LINE",
"452 705 LINE",
"324 705 LINE",
"21 0 LINE",
"168 0 LINE",
"236 161 LINE"
);
},
{
closed = 1;
nodes = (
"387 541 LINE",
"494 274 LINE",
"280 274 LINE"
);
}
);
width = 780;
}
);
unicode = 00C3;
},
